<?xml version="1.0" encoding="UTF-8" standalone="no"?><svg xmlns="http://www.w3.org/2000/svg" xmlns:xlink="http://www.w3.org/1999/xlink" contentScriptType="application/ecmascript" contentStyleType="text/css" height="397px" preserveAspectRatio="none" style="width:279px;height:397px;background:#FFFFFF;" version="1.1" viewBox="0 0 279 397" width="279px" zoomAndPan="magnify"><defs><filter height="300%" id="f1xst7ehirryrj" width="300%" x="-1" y="-1"><feGaussianBlur result="blurOut" stdDeviation="2.0"/><feColorMatrix in="blurOut" result="blurOut2" type="matrix" values="0 0 0 0 0 0 0 0 0 0 0 0 0 0 0 0 0 0 .4 0"/><feOffset dx="4.0" dy="4.0" in="blurOut2" result="blurOut3"/><feBlend in="SourceGraphic" in2="blurOut3" mode="normal"/></filter></defs><g><!--MD5=[8fc3522a43f8c7199df5e09e5bb0188e]
entity user--><ellipse cx="156" cy="14" fill="#FEFECE" filter="url(#f1xst7ehirryrj)" rx="8" ry="8" style="stroke:#A80036;stroke-width:1.5;"/><path d="M156,22 L156,49 M143,30 L169,30 M156,49 L143,64 M156,49 L169,64 " fill="none" filter="url(#f1xst7ehirryrj)" style="stroke:#A80036;stroke-width:1.5;"/><text fill="#000000" font-family="sans-serif" font-size="14" lengthAdjust="spacing" textLength="28" x="142" y="85.5439">user</text><!--MD5=[c5339d600335f67b3d958088d1751aa3]
entity CliverShelf--><rect fill="#FEFECE" filter="url(#f1xst7ehirryrj)" height="39.1201" style="stroke:#000000;stroke-width:1.5;" width="88" x="112" y="148.5"/><text fill="#000000" font-family="sans-serif" font-size="14" lengthAdjust="spacing" textLength="68" x="122" y="174.5439">CliverShelf</text><!--MD5=[37543c6189ad49c0288bd1868c9070d8]
entity Logic--><rect fill="#FEFECE" filter="url(#f1xst7ehirryrj)" height="39.1201" style="stroke:#000000;stroke-width:1.5;" width="54" x="120" y="247.5"/><text fill="#000000" font-family="sans-serif" font-size="14" lengthAdjust="spacing" textLength="34" x="130" y="273.5439">Logic</text><!--MD5=[d98cb1d0eeb2b90d1ef52cfc0fcf4fea]
entity Model--><rect fill="#FEFECE" filter="url(#f1xst7ehirryrj)" height="39.1201" style="stroke:#000000;stroke-width:1.5;" width="58" x="69" y="346.5"/><text fill="#000000" font-family="sans-serif" font-size="14" lengthAdjust="spacing" textLength="38" x="79" y="372.5439">Model</text><!--MD5=[cf25d34b6f9695ab689953484c0b6ae1]
entity Storage--><rect fill="#FEFECE" filter="url(#f1xst7ehirryrj)" height="39.1201" style="stroke:#000000;stroke-width:1.5;" width="70" x="7" y="148.5"/><text fill="#000000" font-family="sans-serif" font-size="14" lengthAdjust="spacing" textLength="50" x="17" y="174.5439">Storage</text><!--MD5=[c42ed81cef7fdd2e33758127945b9a5b]
entity UI--><rect fill="#FEFECE" filter="url(#f1xst7ehirryrj)" height="39.1201" style="stroke:#000000;stroke-width:1.5;" width="32" x="235" y="148.5"/><text fill="#000000" font-family="sans-serif" font-size="14" lengthAdjust="spacing" textLength="12" x="245" y="174.5439">UI</text><!--MD5=[dddf1c67f5c458c1d25cfb97860d2b67]
link user to CliverShelf--><path d="M156,88.63 C156,106.82 156,127.58 156,143.16 " fill="none" id="user-to-CliverShelf" style="stroke:#A80036;stroke-width:1.0;"/><polygon fill="#A80036" points="156,148.23,160,139.23,156,143.23,152,139.23,156,148.23" style="stroke:#A80036;stroke-width:1.0;"/><!--MD5=[7b3adc0c8dd90f8d384ddb135efe31d7]
link CliverShelf to Logic--><path d="M154.26,187.7 C152.82,203.27 150.76,225.52 149.2,242.33 " fill="none" id="CliverShelf-to-Logic" style="stroke:#A80036;stroke-width:1.0;"/><polygon fill="#A80036" points="148.73,247.35,153.5618,238.7678,149.202,242.3723,145.5975,238.0126,148.73,247.35" style="stroke:#A80036;stroke-width:1.0;"/><!--MD5=[1efec9713dc2e1fb93f369b6315d549b]
link Logic to Model--><path d="M137.55,286.7 C129.62,302.4 118.25,324.91 109.74,341.76 " fill="none" id="Logic-to-Model" style="stroke:#A80036;stroke-width:1.0;"/><polygon fill="#A80036" points="107.42,346.35,115.0465,340.1181,109.6732,341.8865,107.9049,336.5131,107.42,346.35" style="stroke:#A80036;stroke-width:1.0;"/><!--MD5=[ae0e345d33b432dd1a74f1b00fbf82aa]
link Storage to Model--><path d="M47.37,187.79 C57.61,223.65 79.93,301.75 91.2,341.19 " fill="none" id="Storage-to-Model" style="stroke:#A80036;stroke-width:1.0;"/><polygon fill="#A80036" points="92.65,346.26,94.0313,336.5085,91.2802,341.4513,86.3373,338.7002,92.65,346.26" style="stroke:#A80036;stroke-width:1.0;"/><!--MD5=[a73a6c910521813156bbfb62246548c5]
link CliverShelf to UI--><path d="M200.16,168 C209.97,168 219.78,168 229.59,168 " fill="none" id="CliverShelf-to-UI" style="stroke:#A80036;stroke-width:1.0;"/><polygon fill="#A80036" points="234.72,168,225.72,164,229.72,168,225.72,172,234.72,168" style="stroke:#A80036;stroke-width:1.0;"/><!--MD5=[b2f2def6de5fbd0c24a0f650814a7d00]
reverse link Storage to CliverShelf--><path d="M82.34,168 C92.22,168 102.1,168 111.97,168 " fill="none" id="Storage-backto-CliverShelf" style="stroke:#A80036;stroke-width:1.0;"/><polygon fill="#A80036" points="77.18,168,86.18,172,82.18,168,86.18,164,77.18,168" style="stroke:#A80036;stroke-width:1.0;"/><!--MD5=[798aaca07cb2fac30d2cba10478f79f9]
@startuml
skinparam componentStyle rectangle
actor user
user -down-> [CliverShelf]
[CliverShelf] -down-> [Logic]
[Logic] -down-> [Model]
[Storage] - -> [Model]
[CliverShelf] -right-> [UI]
[CliverShelf] -left-> [Storage]
@enduml

PlantUML version 1.2021.11(Sat Oct 02 21:26:11 CST 2021)
(GPL source distribution)
Java Runtime: OpenJDK Runtime Environment
JVM: OpenJDK 64-Bit Server VM
Default Encoding: GBK
Language: zh
Country: CN
--></g></svg>