<?xml version="1.0" encoding="UTF-8" standalone="no"?><svg xmlns="http://www.w3.org/2000/svg" xmlns:xlink="http://www.w3.org/1999/xlink" contentScriptType="application/ecmascript" contentStyleType="text/css" height="397px" preserveAspectRatio="none" style="width:285px;height:397px;background:#FFFFFF;" version="1.1" viewBox="0 0 285 397" width="285px" zoomAndPan="magnify"><defs><filter height="300%" id="f1t6my7n9a5av5" width="300%" x="-1" y="-1"><feGaussianBlur result="blurOut" stdDeviation="2.0"/><feColorMatrix in="blurOut" result="blurOut2" type="matrix" values="0 0 0 0 0 0 0 0 0 0 0 0 0 0 0 0 0 0 .4 0"/><feOffset dx="4.0" dy="4.0" in="blurOut2" result="blurOut3"/><feBlend in="SourceGraphic" in2="blurOut3" mode="normal"/></filter></defs><g><!--MD5=[8fc3522a43f8c7199df5e09e5bb0188e]
entity user--><ellipse cx="159" cy="14" fill="#FEFECE" filter="url(#f1t6my7n9a5av5)" rx="8" ry="8" style="stroke:#A80036;stroke-width:1.5;"/><path d="M159,22 L159,49 M146,30 L172,30 M159,49 L146,64 M159,49 L172,64 " fill="none" filter="url(#f1t6my7n9a5av5)" style="stroke:#A80036;stroke-width:1.5;"/><text fill="#000000" font-family="sans-serif" font-size="14" lengthAdjust="spacing" textLength="28" x="145" y="85.5439">user</text><!--MD5=[ab87bdc3a9d91000b6b4db31ce5c334a]
entity CLIverShelf--><rect fill="#FEFECE" filter="url(#f1t6my7n9a5av5)" height="39.1201" style="stroke:#000000;stroke-width:1.5;" width="93" x="112.5" y="148.5"/><text fill="#000000" font-family="sans-serif" font-size="14" lengthAdjust="spacing" textLength="73" x="122.5" y="174.5439">CLIverShelf</text><!--MD5=[37543c6189ad49c0288bd1868c9070d8]
entity Logic--><rect fill="#FEFECE" filter="url(#f1t6my7n9a5av5)" height="39.1201" style="stroke:#000000;stroke-width:1.5;" width="54" x="122" y="247.5"/><text fill="#000000" font-family="sans-serif" font-size="14" lengthAdjust="spacing" textLength="34" x="132" y="273.5439">Logic</text><!--MD5=[d98cb1d0eeb2b90d1ef52cfc0fcf4fea]
entity Model--><rect fill="#FEFECE" filter="url(#f1t6my7n9a5av5)" height="39.1201" style="stroke:#000000;stroke-width:1.5;" width="58" x="71" y="346.5"/><text fill="#000000" font-family="sans-serif" font-size="14" lengthAdjust="spacing" textLength="38" x="81" y="372.5439">Model</text><!--MD5=[cf25d34b6f9695ab689953484c0b6ae1]
entity Storage--><rect fill="#FEFECE" filter="url(#f1t6my7n9a5av5)" height="39.1201" style="stroke:#000000;stroke-width:1.5;" width="70" x="7" y="148.5"/><text fill="#000000" font-family="sans-serif" font-size="14" lengthAdjust="spacing" textLength="50" x="17" y="174.5439">Storage</text><!--MD5=[c42ed81cef7fdd2e33758127945b9a5b]
entity UI--><rect fill="#FEFECE" filter="url(#f1t6my7n9a5av5)" height="39.1201" style="stroke:#000000;stroke-width:1.5;" width="32" x="241" y="148.5"/><text fill="#000000" font-family="sans-serif" font-size="14" lengthAdjust="spacing" textLength="12" x="251" y="174.5439">UI</text><!--MD5=[f58fa09b36505a38be0bc9dc2e0b44b4]
link user to CLIverShelf--><path d="M159,88.63 C159,106.82 159,127.58 159,143.16 " fill="none" id="user-to-CLIverShelf" style="stroke:#A80036;stroke-width:1.0;"/><polygon fill="#A80036" points="159,148.23,163,139.23,159,143.23,155,139.23,159,148.23" style="stroke:#A80036;stroke-width:1.0;"/><!--MD5=[23c6341301d577c26c58a358b58a7863]
link CLIverShelf to Logic--><path d="M157.07,187.7 C155.47,203.27 153.17,225.52 151.44,242.33 " fill="none" id="CLIverShelf-to-Logic" style="stroke:#A80036;stroke-width:1.0;"/><polygon fill="#A80036" points="150.92,247.35,155.8224,238.8079,151.433,242.3764,147.8646,237.9871,150.92,247.35" style="stroke:#A80036;stroke-width:1.0;"/><!--MD5=[1efec9713dc2e1fb93f369b6315d549b]
link Logic to Model--><path d="M139.55,286.7 C131.62,302.4 120.25,324.91 111.74,341.76 " fill="none" id="Logic-to-Model" style="stroke:#A80036;stroke-width:1.0;"/><polygon fill="#A80036" points="109.42,346.35,117.0465,340.1181,111.6732,341.8865,109.9049,336.5131,109.42,346.35" style="stroke:#A80036;stroke-width:1.0;"/><!--MD5=[ae0e345d33b432dd1a74f1b00fbf82aa]
link Storage to Model--><path d="M47.56,187.79 C58.17,223.65 81.28,301.75 92.95,341.19 " fill="none" id="Storage-to-Model" style="stroke:#A80036;stroke-width:1.0;"/><polygon fill="#A80036" points="94.46,346.26,95.7186,336.4919,93.0298,341.4689,88.0528,338.7802,94.46,346.26" style="stroke:#A80036;stroke-width:1.0;"/><!--MD5=[64e8539c5992d8c56f4591e77fc70dd3]
link CLIverShelf to UI--><path d="M205.7,168 C215.71,168 225.72,168 235.73,168 " fill="none" id="CLIverShelf-to-UI" style="stroke:#A80036;stroke-width:1.0;"/><polygon fill="#A80036" points="240.97,168,231.97,164,235.97,168,231.97,172,240.97,168" style="stroke:#A80036;stroke-width:1.0;"/><!--MD5=[c45d30a47445e452ec454e43aa0c275f]
reverse link Storage to CLIverShelf--><path d="M82.41,168 C92.39,168 102.37,168 112.34,168 " fill="none" id="Storage-backto-CLIverShelf" style="stroke:#A80036;stroke-width:1.0;"/><polygon fill="#A80036" points="77.19,168,86.19,172,82.19,168,86.19,164,77.19,168" style="stroke:#A80036;stroke-width:1.0;"/><!--MD5=[7df6e27e87f7288f093486e05c308247]
@startuml
skinparam componentStyle rectangle
actor user
user -down-> [CLIverShelf]
[CLIverShelf] -down-> [Logic]
[Logic] -down-> [Model]
[Storage] - -> [Model]
[CLIverShelf] -right-> [UI]
[CLIverShelf] -left-> [Storage]
@enduml

PlantUML version 1.2021.11(Sat Oct 02 21:26:11 CST 2021)
(GPL source distribution)
Java Runtime: OpenJDK Runtime Environment
JVM: OpenJDK 64-Bit Server VM
Default Encoding: GBK
Language: zh
Country: CN
--></g></svg>