<?xml version="1.0" encoding="UTF-8" standalone="no"?><svg xmlns="http://www.w3.org/2000/svg" xmlns:xlink="http://www.w3.org/1999/xlink" contentScriptType="application/ecmascript" contentStyleType="text/css" height="318px" preserveAspectRatio="none" style="width:556px;height:318px;background:#FFFFFF;" version="1.1" viewBox="0 0 556 318" width="556px" zoomAndPan="magnify"><defs/><g><rect fill="#FFFFFF" height="172.772" style="stroke:#A80036;stroke-width:1.0;" width="10" x="137" y="120.8745"/><rect fill="#FFFFFF" height="63.5088" style="stroke:#A80036;stroke-width:1.0;" width="10" x="266" y="152.6289"/><line style="stroke:#A80036;stroke-width:1.0;stroke-dasharray:5.0,5.0;" x1="22" x2="22" y1="87.1201" y2="311.6465"/><line style="stroke:#A80036;stroke-width:1.0;stroke-dasharray:5.0,5.0;" x1="142" x2="142" y1="87.1201" y2="311.6465"/><line style="stroke:#A80036;stroke-width:1.0;stroke-dasharray:5.0,5.0;" x1="271" x2="271" y1="87.1201" y2="311.6465"/><line style="stroke:#A80036;stroke-width:1.0;stroke-dasharray:5.0,5.0;" x1="414" x2="414" y1="87.1201" y2="311.6465"/><line style="stroke:#A80036;stroke-width:1.0;stroke-dasharray:5.0,5.0;" x1="463" x2="463" y1="87.1201" y2="311.6465"/><line style="stroke:#A80036;stroke-width:1.0;stroke-dasharray:5.0,5.0;" x1="518" x2="518" y1="87.1201" y2="311.6465"/><text fill="#000000" font-family="sans-serif" font-size="14" lengthAdjust="spacing" textLength="28" x="5" y="84.0439">user</text><ellipse cx="22" cy="15" fill="#FEFECE" rx="8" ry="8" style="stroke:#A80036;stroke-width:2.0;"/><path d="M22,23 L22,50 M9,31 L35,31 M22,50 L9,65 M22,50 L35,65 " fill="none" style="stroke:#A80036;stroke-width:2.0;"/><rect fill="#FEFECE" height="33.1201" style="stroke:#A80036;stroke-width:1.5;" width="82" x="101" y="53"/><text fill="#000000" font-family="sans-serif" font-size="14" lengthAdjust="spacing" textLength="68" x="108" y="76.0439">CliverShelf</text><rect fill="#FEFECE" height="33.1201" style="stroke:#A80036;stroke-width:1.5;" width="48" x="247" y="53"/><text fill="#000000" font-family="sans-serif" font-size="14" lengthAdjust="spacing" textLength="34" x="254" y="76.0439">Logic</text><rect fill="#FEFECE" height="33.1201" style="stroke:#A80036;stroke-width:1.5;" width="52" x="388" y="53"/><text fill="#000000" font-family="sans-serif" font-size="14" lengthAdjust="spacing" textLength="38" x="395" y="76.0439">Model</text><rect fill="#FEFECE" height="33.1201" style="stroke:#A80036;stroke-width:1.5;" width="26" x="450" y="53"/><text fill="#000000" font-family="sans-serif" font-size="14" lengthAdjust="spacing" textLength="12" x="457" y="76.0439">UI</text><rect fill="#FEFECE" height="33.1201" style="stroke:#A80036;stroke-width:1.5;" width="64" x="486" y="53"/><text fill="#000000" font-family="sans-serif" font-size="14" lengthAdjust="spacing" textLength="50" x="493" y="76.0439">Storage</text><rect fill="#FFFFFF" height="172.772" style="stroke:#A80036;stroke-width:1.0;" width="10" x="137" y="120.8745"/><rect fill="#FFFFFF" height="63.5088" style="stroke:#A80036;stroke-width:1.0;" width="10" x="266" y="152.6289"/><polygon fill="#A80036" points="125,116.8745,135,120.8745,125,124.8745" style="stroke:#A80036;stroke-width:1.0;"/><line style="stroke:#A80036;stroke-width:1.0;" x1="22" x2="131" y1="120.8745" y2="120.8745"/><text fill="#000000" font-family="sans-serif" font-size="13" lengthAdjust="spacing" textLength="96" x="29" y="116.0181">input commands</text><polygon fill="#A80036" points="254,148.6289,264,152.6289,254,156.6289" style="stroke:#A80036;stroke-width:1.0;"/><line style="stroke:#A80036;stroke-width:1.0;" x1="147" x2="260" y1="152.6289" y2="152.6289"/><text fill="#000000" font-family="sans-serif" font-size="13" lengthAdjust="spacing" textLength="100" x="154" y="147.7725">parse commands</text><polygon fill="#A80036" points="402,180.3833,412,184.3833,402,188.3833" style="stroke:#A80036;stroke-width:1.0;"/><line style="stroke:#A80036;stroke-width:1.0;" x1="276" x2="408" y1="184.3833" y2="184.3833"/><text fill="#000000" font-family="sans-serif" font-size="13" lengthAdjust="spacing" textLength="114" x="283" y="179.5269">execute commands</text><polygon fill="#A80036" points="158,212.1377,148,216.1377,158,220.1377" style="stroke:#A80036;stroke-width:1.0;"/><line style="stroke:#A80036;stroke-width:1.0;stroke-dasharray:2.0,2.0;" x1="152" x2="270" y1="216.1377" y2="216.1377"/><text fill="#000000" font-family="sans-serif" font-size="13" lengthAdjust="spacing" textLength="92" x="164" y="211.2813">execution result</text><polygon fill="#A80036" points="451,243.8921,461,247.8921,451,251.8921" style="stroke:#A80036;stroke-width:1.0;"/><line style="stroke:#A80036;stroke-width:1.0;" x1="147" x2="457" y1="247.8921" y2="247.8921"/><text fill="#000000" font-family="sans-serif" font-size="13" lengthAdjust="spacing" textLength="61" x="154" y="243.0356">print result</text><polygon fill="#A80036" points="506,275.6465,516,279.6465,506,283.6465" style="stroke:#A80036;stroke-width:1.0;"/><line style="stroke:#A80036;stroke-width:1.0;" x1="147" x2="512" y1="279.6465" y2="279.6465"/><text fill="#000000" font-family="sans-serif" font-size="13" lengthAdjust="spacing" textLength="55" x="154" y="274.79">save data</text><polygon fill="#A80036" points="33,289.6465,23,293.6465,33,297.6465" style="stroke:#A80036;stroke-width:1.0;"/><line style="stroke:#A80036;stroke-width:1.0;stroke-dasharray:2.0,2.0;" x1="27" x2="141" y1="293.6465" y2="293.6465"/><!--MD5=[a4aa994750c6da4182aa65a04056fb92]
@startuml
'https://plantuml.com/sequence-diagram
!include Style.puml

actor user
participant CliverShelf as main
participant Logic as logic
participant Model as model
participant UI as ui
participant Storage as storage

user -> main: input commands
activate main
main -> logic: parse commands
activate logic
logic -> model: execute commands
logic - -> main: execution result
deactivate
main -> ui: print result
main -> storage: save data
main - -> user
deactivate

@enduml

@startuml
skinparam style strictuml
skinparam backgroundColor white
skinparam box white
skinparam classAttributeIconSize 0

actor user
participant CliverShelf as main
participant Logic as logic
participant Model as model
participant UI as ui
participant Storage as storage

user -> main: input commands
activate main
main -> logic: parse commands
activate logic
logic -> model: execute commands
logic - -> main: execution result
deactivate
main -> ui: print result
main -> storage: save data
main - -> user
deactivate

@enduml

PlantUML version 1.2021.11(Sat Oct 02 21:26:11 CST 2021)
(GPL source distribution)
Java Runtime: OpenJDK Runtime Environment
JVM: OpenJDK 64-Bit Server VM
Default Encoding: GBK
Language: zh
Country: CN
--></g></svg>