<?xml version="1.0" encoding="UTF-8" standalone="no"?><svg xmlns="http://www.w3.org/2000/svg" xmlns:xlink="http://www.w3.org/1999/xlink" contentScriptType="application/ecmascript" contentStyleType="text/css" height="613px" preserveAspectRatio="none" style="width:999px;height:613px;background:#FFFFFF;" version="1.1" viewBox="0 0 999 613" width="999px" zoomAndPan="magnify"><defs/><g><rect fill="#FFFFFF" height="467.27" style="stroke:#A80036;stroke-width:1.0;" width="10" x="228" y="120.8745"/><rect fill="#FFFFFF" height="171.5034" style="stroke:#A80036;stroke-width:1.0;" width="10" x="384" y="152.6289"/><rect fill="#FFFFFF" height="36.7544" style="stroke:#A80036;stroke-width:1.0;" width="10" x="389" y="192.3833"/><rect fill="#FFFFFF" height="53.2402" style="stroke:#A80036;stroke-width:1.0;" width="10" x="651.5" y="239.1377"/><rect fill="#FFFFFF" height="218.2578" style="stroke:#A80036;stroke-width:1.0;" width="10" x="651.5" y="355.8867"/><rect fill="#FFFFFF" height="53.2402" style="stroke:#A80036;stroke-width:1.0;" width="10" x="753.5" y="379.8867"/><rect fill="#FFFFFF" height="14" style="stroke:#A80036;stroke-width:1.0;" width="10" x="933" y="528.3901"/><line style="stroke:#A80036;stroke-width:1.0;stroke-dasharray:5.0,5.0;" x1="22" x2="22" y1="87.1201" y2="606.1445"/><line style="stroke:#A80036;stroke-width:1.0;stroke-dasharray:5.0,5.0;" x1="232.5" x2="232.5" y1="87.1201" y2="606.1445"/><line style="stroke:#A80036;stroke-width:1.0;stroke-dasharray:5.0,5.0;" x1="389" x2="389" y1="87.1201" y2="606.1445"/><line style="stroke:#A80036;stroke-width:1.0;stroke-dasharray:5.0,5.0;" x1="656" x2="656" y1="247.0034" y2="606.1445"/><line style="stroke:#A80036;stroke-width:1.0;stroke-dasharray:5.0,5.0;" x1="758" x2="758" y1="405.5068" y2="606.1445"/><line style="stroke:#A80036;stroke-width:1.0;stroke-dasharray:5.0,5.0;" x1="839" x2="839" y1="87.1201" y2="606.1445"/><line style="stroke:#A80036;stroke-width:1.0;stroke-dasharray:5.0,5.0;" x1="938" x2="938" y1="87.1201" y2="606.1445"/><text fill="#000000" font-family="sans-serif" font-size="14" lengthAdjust="spacing" textLength="28" x="5" y="84.0439">user</text><ellipse cx="22" cy="15" fill="#FEFECE" rx="8" ry="8" style="stroke:#A80036;stroke-width:2.0;"/><path d="M22,23 L22,50 M9,31 L35,31 M22,50 L9,65 M22,50 L35,65 " fill="none" style="stroke:#A80036;stroke-width:2.0;"/><rect fill="#FEFECE" height="33.1201" style="stroke:#A80036;stroke-width:1.5;" width="87" x="189.5" y="53"/><text fill="#000000" font-family="sans-serif" font-size="14" lengthAdjust="spacing" textLength="73" x="196.5" y="76.0439">CLIverShelf</text><rect fill="#FEFECE" height="33.1201" style="stroke:#A80036;stroke-width:1.5;" width="60" x="359" y="53"/><text fill="#000000" font-family="sans-serif" font-size="14" lengthAdjust="spacing" textLength="46" x="366" y="76.0439">:Parser</text><rect fill="#FEFECE" height="33.1201" style="stroke:#A80036;stroke-width:1.5;" width="68" x="805" y="53"/><text fill="#000000" font-family="sans-serif" font-size="14" lengthAdjust="spacing" textLength="54" x="812" y="76.0439">ShelfList</text><rect fill="#FEFECE" height="52.2402" style="stroke:#A80036;stroke-width:1.5;" width="110" x="883" y="33.8799"/><text fill="#000000" font-family="sans-serif" font-size="14" lengthAdjust="spacing" textLength="92" x="890" y="56.9238">specifiedShelf:</text><text fill="#000000" font-family="sans-serif" font-size="14" lengthAdjust="spacing" textLength="32" x="922" y="76.0439">Shelf</text><rect fill="#FFFFFF" height="467.27" style="stroke:#A80036;stroke-width:1.0;" width="10" x="228" y="120.8745"/><rect fill="#FFFFFF" height="171.5034" style="stroke:#A80036;stroke-width:1.0;" width="10" x="384" y="152.6289"/><rect fill="#FFFFFF" height="36.7544" style="stroke:#A80036;stroke-width:1.0;" width="10" x="389" y="192.3833"/><rect fill="#FFFFFF" height="53.2402" style="stroke:#A80036;stroke-width:1.0;" width="10" x="651.5" y="239.1377"/><rect fill="#FFFFFF" height="218.2578" style="stroke:#A80036;stroke-width:1.0;" width="10" x="651.5" y="355.8867"/><rect fill="#FFFFFF" height="53.2402" style="stroke:#A80036;stroke-width:1.0;" width="10" x="753.5" y="379.8867"/><rect fill="#FFFFFF" height="14" style="stroke:#A80036;stroke-width:1.0;" width="10" x="933" y="528.3901"/><polygon fill="#A80036" points="216,116.8745,226,120.8745,216,124.8745" style="stroke:#A80036;stroke-width:1.0;"/><line style="stroke:#A80036;stroke-width:1.0;" x1="22" x2="222" y1="120.8745" y2="120.8745"/><text fill="#000000" font-family="sans-serif" font-size="13" lengthAdjust="spacing" textLength="187" x="29" y="116.0181">Run program &amp; Input commands</text><polygon fill="#A80036" points="372,148.6289,382,152.6289,372,156.6289" style="stroke:#A80036;stroke-width:1.0;"/><line style="stroke:#A80036;stroke-width:1.0;" x1="238" x2="378" y1="152.6289" y2="152.6289"/><text fill="#000000" font-family="sans-serif" font-size="13" lengthAdjust="spacing" textLength="127" x="245" y="147.7725">parseCommand(input)</text><line style="stroke:#A80036;stroke-width:1.0;" x1="394" x2="441" y1="179.3833" y2="179.3833"/><line style="stroke:#A80036;stroke-width:1.0;" x1="441" x2="441" y1="179.3833" y2="192.3833"/><line style="stroke:#A80036;stroke-width:1.0;" x1="400" x2="441" y1="192.3833" y2="192.3833"/><polygon fill="#A80036" points="410,188.3833,400,192.3833,410,196.3833" style="stroke:#A80036;stroke-width:1.0;"/><text fill="#000000" font-family="sans-serif" font-size="13" lengthAdjust="spacing" textLength="102" x="406" y="174.5269">prepareAdd(input)</text><polygon fill="#A80036" points="589,225.1377,599,229.1377,589,233.1377" style="stroke:#A80036;stroke-width:1.0;"/><line style="stroke:#A80036;stroke-width:1.0;" x1="394" x2="595" y1="229.1377" y2="229.1377"/><text fill="#000000" font-family="sans-serif" font-size="13" lengthAdjust="spacing" textLength="178" x="401" y="224.2813">new AddCommand(arguments)</text><rect fill="#FEFECE" height="52.2402" style="stroke:#A80036;stroke-width:1.5;" width="111" x="601" y="205.3833"/><text fill="#000000" font-family="sans-serif" font-size="14" lengthAdjust="spacing" textLength="93" x="608" y="228.4272">newCommand:</text><text fill="#000000" font-family="sans-serif" font-size="14" lengthAdjust="spacing" textLength="89" x="612" y="247.5474">AddCommand</text><polygon fill="#A80036" points="405,288.3779,395,292.3779,405,296.3779" style="stroke:#A80036;stroke-width:1.0;"/><line style="stroke:#A80036;stroke-width:1.0;stroke-dasharray:2.0,2.0;" x1="399" x2="655.5" y1="292.3779" y2="292.3779"/><text fill="#000000" font-family="sans-serif" font-size="13" lengthAdjust="spacing" textLength="109" x="411" y="287.5215">new AddCommand</text><polygon fill="#A80036" points="249,320.1323,239,324.1323,249,328.1323" style="stroke:#A80036;stroke-width:1.0;"/><line style="stroke:#A80036;stroke-width:1.0;stroke-dasharray:2.0,2.0;" x1="243" x2="388" y1="324.1323" y2="324.1323"/><text fill="#000000" font-family="sans-serif" font-size="13" lengthAdjust="spacing" textLength="109" x="255" y="319.2759">new AddCommand</text><polygon fill="#A80036" points="639.5,351.8867,649.5,355.8867,639.5,359.8867" style="stroke:#A80036;stroke-width:1.0;"/><line style="stroke:#A80036;stroke-width:1.0;" x1="238" x2="645.5" y1="355.8867" y2="355.8867"/><text fill="#000000" font-family="sans-serif" font-size="13" lengthAdjust="spacing" textLength="54" x="245" y="351.0303">execute()</text><polygon fill="#A80036" points="710,365.8867,720,369.8867,710,373.8867" style="stroke:#A80036;stroke-width:1.0;"/><line style="stroke:#A80036;stroke-width:1.0;" x1="661.5" x2="716" y1="369.8867" y2="369.8867"/><rect fill="#FEFECE" height="52.2402" style="stroke:#A80036;stroke-width:1.5;" width="73" x="722" y="363.8867"/><text fill="#000000" font-family="sans-serif" font-size="14" lengthAdjust="spacing" textLength="55" x="729" y="386.9307">newItem:</text><text fill="#000000" font-family="sans-serif" font-size="14" lengthAdjust="spacing" textLength="26" x="745.5" y="406.0508">Item</text><polygon fill="#A80036" points="672.5,429.127,662.5,433.127,672.5,437.127" style="stroke:#A80036;stroke-width:1.0;"/><line style="stroke:#A80036;stroke-width:1.0;stroke-dasharray:2.0,2.0;" x1="666.5" x2="757.5" y1="433.127" y2="433.127"/><polygon fill="#A80036" points="827,460.8813,837,464.8813,827,468.8813" style="stroke:#A80036;stroke-width:1.0;"/><line style="stroke:#A80036;stroke-width:1.0;" x1="661.5" x2="833" y1="464.8813" y2="464.8813"/><text fill="#000000" font-family="sans-serif" font-size="13" lengthAdjust="spacing" textLength="116" x="668.5" y="460.0249">getShelf(shelfName)</text><polygon fill="#A80036" points="672.5,492.6357,662.5,496.6357,672.5,500.6357" style="stroke:#A80036;stroke-width:1.0;"/><line style="stroke:#A80036;stroke-width:1.0;stroke-dasharray:2.0,2.0;" x1="666.5" x2="838" y1="496.6357" y2="496.6357"/><text fill="#000000" font-family="sans-serif" font-size="13" lengthAdjust="spacing" textLength="80" x="678.5" y="491.7793">specifiedShelf</text><polygon fill="#A80036" points="921,524.3901,931,528.3901,921,532.3901" style="stroke:#A80036;stroke-width:1.0;"/><line style="stroke:#A80036;stroke-width:1.0;" x1="661.5" x2="927" y1="528.3901" y2="528.3901"/><text fill="#000000" font-family="sans-serif" font-size="13" lengthAdjust="spacing" textLength="102" x="668.5" y="523.5337">addItem(newItem)</text><polygon fill="#A80036" points="672.5,538.3901,662.5,542.3901,672.5,546.3901" style="stroke:#A80036;stroke-width:1.0;"/><line style="stroke:#A80036;stroke-width:1.0;stroke-dasharray:2.0,2.0;" x1="666.5" x2="937" y1="542.3901" y2="542.3901"/><polygon fill="#A80036" points="249,570.1445,239,574.1445,249,578.1445" style="stroke:#A80036;stroke-width:1.0;"/><line style="stroke:#A80036;stroke-width:1.0;stroke-dasharray:2.0,2.0;" x1="243" x2="655.5" y1="574.1445" y2="574.1445"/><text fill="#000000" font-family="sans-serif" font-size="13" lengthAdjust="spacing" textLength="97" x="255" y="569.2881">finishedMessage</text><polygon fill="#A80036" points="33,584.1445,23,588.1445,33,592.1445" style="stroke:#A80036;stroke-width:1.0;"/><line style="stroke:#A80036;stroke-width:1.0;stroke-dasharray:2.0,2.0;" x1="27" x2="232" y1="588.1445" y2="588.1445"/><!--MD5=[a92bed6c4313b2df5eb0523b96a2d148]
@startuml
'https://plantuml.com/sequence-diagram
!include Style.puml

actor user
participant "CLIverShelf" as Main
participant ":Parser" as Parser
participant "newCommand: \nAddCommand" as AddCommand
participant "newItem: \nItem" as Item
participant ShelfList
participant "specifiedShelf: \nShelf" as Shelf
user -> Main: Run program & Input commands
activate Main
Main -> Parser: parseCommand(input)
activate Parser
Parser -> Parser: prepareAdd(input)
activate Parser
Parser -> AddCommand **: new AddCommand(arguments)
deactivate Parser
activate AddCommand
AddCommand - -> Parser: new AddCommand
deactivate AddCommand
Parser - -> Main: new AddCommand
deactivate Parser

Main -> AddCommand: execute()
activate AddCommand
AddCommand -> Item **
activate Item
Item - -> AddCommand
deactivate Item
AddCommand -> ShelfList: getShelf(shelfName)
ShelfList - -> AddCommand: specifiedShelf
AddCommand -> Shelf: addItem(newItem)
activate Shelf
Shelf - -> AddCommand
deactivate Shelf
AddCommand - -> Main: finishedMessage
deactivate AddCommand
Main - -> user
deactivate Main


@enduml

@startuml
skinparam style strictuml
skinparam backgroundColor white
skinparam box white
skinparam classAttributeIconSize 0

actor user
participant "CLIverShelf" as Main
participant ":Parser" as Parser
participant "newCommand: \nAddCommand" as AddCommand
participant "newItem: \nItem" as Item
participant ShelfList
participant "specifiedShelf: \nShelf" as Shelf
user -> Main: Run program & Input commands
activate Main
Main -> Parser: parseCommand(input)
activate Parser
Parser -> Parser: prepareAdd(input)
activate Parser
Parser -> AddCommand **: new AddCommand(arguments)
deactivate Parser
activate AddCommand
AddCommand - -> Parser: new AddCommand
deactivate AddCommand
Parser - -> Main: new AddCommand
deactivate Parser

Main -> AddCommand: execute()
activate AddCommand
AddCommand -> Item **
activate Item
Item - -> AddCommand
deactivate Item
AddCommand -> ShelfList: getShelf(shelfName)
ShelfList - -> AddCommand: specifiedShelf
AddCommand -> Shelf: addItem(newItem)
activate Shelf
Shelf - -> AddCommand
deactivate Shelf
AddCommand - -> Main: finishedMessage
deactivate AddCommand
Main - -> user
deactivate Main


@enduml

PlantUML version 1.2021.11(Sat Oct 02 21:26:11 SGT 2021)
(GPL source distribution)
Java Runtime: OpenJDK Runtime Environment
JVM: OpenJDK 64-Bit Server VM
Default Encoding: GBK
Language: en
Country: SG
--></g></svg>