<?xml version="1.0" encoding="UTF-8" standalone="no"?><svg xmlns="http://www.w3.org/2000/svg" xmlns:xlink="http://www.w3.org/1999/xlink" contentScriptType="application/ecmascript" contentStyleType="text/css" height="574px" preserveAspectRatio="none" style="width:828px;height:574px;background:#FFFFFF;" version="1.1" viewBox="0 0 828 574" width="828px" zoomAndPan="magnify"><defs/><g><rect fill="#FFFFFF" height="481.0474" style="stroke:#A80036;stroke-width:1.0;" width="10" x="45.5" y="68.2402"/><rect fill="#FFFFFF" height="153.749" style="stroke:#A80036;stroke-width:1.0;" width="10" x="203.5" y="91.9946"/><rect fill="#FFFFFF" height="36.7544" style="stroke:#A80036;stroke-width:1.0;" width="10" x="208.5" y="131.749"/><rect fill="#FFFFFF" height="35.4858" style="stroke:#A80036;stroke-width:1.0;" width="10" x="491" y="178.5034"/><rect fill="#FFFFFF" height="271.7896" style="stroke:#A80036;stroke-width:1.0;" width="10" x="491" y="277.498"/><rect fill="#FFFFFF" height="35.4858" style="stroke:#A80036;stroke-width:1.0;" width="10" x="743.5" y="319.2524"/><rect fill="#FFFFFF" height="31.7544" style="stroke:#A80036;stroke-width:1.0;" width="10" x="743.5" y="413.27"/><rect fill="#FFFFFF" height="31.7544" style="stroke:#A80036;stroke-width:1.0;" width="10" x="743.5" y="478.7788"/><rect fill="#FFFFFF" height="148.7949" style="stroke:#000000;stroke-width:2.0;" width="395.5" x="425.5" y="369.7383"/><rect fill="#FFFFFF" height="65.5088" style="stroke:none;stroke-width:1.0;" width="395.5" x="425.5" y="453.0244"/><line style="stroke:#A80036;stroke-width:1.0;stroke-dasharray:5.0,5.0;" x1="50" x2="50" y1="58.2402" y2="567.2876"/><line style="stroke:#A80036;stroke-width:1.0;stroke-dasharray:5.0,5.0;" x1="208.5" x2="208.5" y1="58.2402" y2="567.2876"/><line style="stroke:#A80036;stroke-width:1.0;stroke-dasharray:5.0,5.0;" x1="495.5" x2="495.5" y1="186.3691" y2="567.2876"/><line style="stroke:#A80036;stroke-width:1.0;stroke-dasharray:5.0,5.0;" x1="748" x2="748" y1="327.1182" y2="567.2876"/><rect fill="#FEFECE" height="33.1201" style="stroke:#A80036;stroke-width:1.5;" width="91" x="5" y="24.1201"/><text fill="#000000" font-family="sans-serif" font-size="14" lengthAdjust="spacing" textLength="77" x="12" y="47.1641">:CLIverShelf</text><rect fill="#FEFECE" height="33.1201" style="stroke:#A80036;stroke-width:1.5;" width="60" x="178.5" y="24.1201"/><text fill="#000000" font-family="sans-serif" font-size="14" lengthAdjust="spacing" textLength="46" x="185.5" y="47.1641">:Parser</text><rect fill="#FFFFFF" height="481.0474" style="stroke:#A80036;stroke-width:1.0;" width="10" x="45.5" y="68.2402"/><rect fill="#FFFFFF" height="153.749" style="stroke:#A80036;stroke-width:1.0;" width="10" x="203.5" y="91.9946"/><rect fill="#FFFFFF" height="36.7544" style="stroke:#A80036;stroke-width:1.0;" width="10" x="208.5" y="131.749"/><rect fill="#FFFFFF" height="35.4858" style="stroke:#A80036;stroke-width:1.0;" width="10" x="491" y="178.5034"/><rect fill="#FFFFFF" height="271.7896" style="stroke:#A80036;stroke-width:1.0;" width="10" x="491" y="277.498"/><rect fill="#FFFFFF" height="35.4858" style="stroke:#A80036;stroke-width:1.0;" width="10" x="743.5" y="319.2524"/><rect fill="#FFFFFF" height="31.7544" style="stroke:#A80036;stroke-width:1.0;" width="10" x="743.5" y="413.27"/><rect fill="#FFFFFF" height="31.7544" style="stroke:#A80036;stroke-width:1.0;" width="10" x="743.5" y="478.7788"/><polygon fill="#A80036" points="191.5,87.9946,201.5,91.9946,191.5,95.9946" style="stroke:#A80036;stroke-width:1.0;"/><line style="stroke:#A80036;stroke-width:1.0;" x1="55.5" x2="197.5" y1="91.9946" y2="91.9946"/><text fill="#000000" font-family="sans-serif" font-size="13" lengthAdjust="spacing" textLength="127" x="62.5" y="87.1382">parseCommand(input)</text><line style="stroke:#A80036;stroke-width:1.0;" x1="213.5" x2="260.5" y1="118.749" y2="118.749"/><line style="stroke:#A80036;stroke-width:1.0;" x1="260.5" x2="260.5" y1="118.749" y2="131.749"/><line style="stroke:#A80036;stroke-width:1.0;" x1="219.5" x2="260.5" y1="131.749" y2="131.749"/><polygon fill="#A80036" points="229.5,127.749,219.5,131.749,229.5,135.749" style="stroke:#A80036;stroke-width:1.0;"/><text fill="#000000" font-family="sans-serif" font-size="13" lengthAdjust="spacing" textLength="176" x="225.5" y="113.8926">prepareReportCommand(input)</text><polygon fill="#A80036" points="423.5,164.5034,433.5,168.5034,423.5,172.5034" style="stroke:#A80036;stroke-width:1.0;"/><line style="stroke:#A80036;stroke-width:1.0;" x1="213.5" x2="429.5" y1="168.5034" y2="168.5034"/><text fill="#000000" font-family="sans-serif" font-size="13" lengthAdjust="spacing" textLength="193" x="220.5" y="163.647">new ReportCommand(arguments)</text><rect fill="#FEFECE" height="52.2402" style="stroke:#A80036;stroke-width:1.5;" width="121" x="435.5" y="144.749"/><text fill="#000000" font-family="sans-serif" font-size="14" lengthAdjust="spacing" textLength="93" x="447.5" y="167.793">newCommand:</text><text fill="#000000" font-family="sans-serif" font-size="14" lengthAdjust="spacing" textLength="107" x="442.5" y="186.9131">ReportCommand</text><polygon fill="#A80036" points="224.5,209.9893,214.5,213.9893,224.5,217.9893" style="stroke:#A80036;stroke-width:1.0;"/><line style="stroke:#A80036;stroke-width:1.0;stroke-dasharray:2.0,2.0;" x1="218.5" x2="495" y1="213.9893" y2="213.9893"/><polygon fill="#A80036" points="66.5,241.7437,56.5,245.7437,66.5,249.7437" style="stroke:#A80036;stroke-width:1.0;"/><line style="stroke:#A80036;stroke-width:1.0;stroke-dasharray:2.0,2.0;" x1="60.5" x2="207.5" y1="245.7437" y2="245.7437"/><text fill="#000000" font-family="sans-serif" font-size="13" lengthAdjust="spacing" textLength="124" x="72.5" y="240.8872">new ReportCommand</text><polygon fill="#A80036" points="479,273.498,489,277.498,479,281.498" style="stroke:#A80036;stroke-width:1.0;"/><line style="stroke:#A80036;stroke-width:1.0;" x1="55.5" x2="485" y1="277.498" y2="277.498"/><text fill="#000000" font-family="sans-serif" font-size="13" lengthAdjust="spacing" textLength="54" x="62.5" y="272.6416">execute()</text><polygon fill="#A80036" points="674,305.2524,684,309.2524,674,313.2524" style="stroke:#A80036;stroke-width:1.0;"/><line style="stroke:#A80036;stroke-width:1.0;" x1="501" x2="680" y1="309.2524" y2="309.2524"/><text fill="#000000" font-family="sans-serif" font-size="13" lengthAdjust="spacing" textLength="161" x="508" y="304.396">new SalesReport(timeSpan)</text><rect fill="#FEFECE" height="52.2402" style="stroke:#A80036;stroke-width:1.5;" width="125" x="686" y="285.498"/><text fill="#000000" font-family="sans-serif" font-size="14" lengthAdjust="spacing" textLength="107" x="693" y="308.542">newSalesReport:</text><text fill="#000000" font-family="sans-serif" font-size="14" lengthAdjust="spacing" textLength="78" x="709.5" y="327.6621">SalesReport</text><polygon fill="#A80036" points="512,350.7383,502,354.7383,512,358.7383" style="stroke:#A80036;stroke-width:1.0;"/><line style="stroke:#A80036;stroke-width:1.0;stroke-dasharray:2.0,2.0;" x1="506" x2="747.5" y1="354.7383" y2="354.7383"/><path d="M425.5,369.7383 L486.5,369.7383 L486.5,378.7383 L476.5,388.7383 L425.5,388.7383 L425.5,369.7383 " fill="#EEEEEE" style="stroke:#000000;stroke-width:1.0;"/><rect fill="none" height="148.7949" style="stroke:#000000;stroke-width:2.0;" width="395.5" x="425.5" y="369.7383"/><text fill="#000000" font-family="sans-serif" font-size="13" font-weight="bold" lengthAdjust="spacing" textLength="16" x="440.5" y="385.6362">alt</text><text fill="#000000" font-family="sans-serif" font-size="11" font-weight="bold" lengthAdjust="spacing" textLength="118" x="501.5" y="384.3442">[type.equals("stats")]</text><polygon fill="#A80036" points="731.5,409.27,741.5,413.27,731.5,417.27" style="stroke:#A80036;stroke-width:1.0;"/><line style="stroke:#A80036;stroke-width:1.0;" x1="501" x2="737.5" y1="413.27" y2="413.27"/><text fill="#000000" font-family="sans-serif" font-size="13" lengthAdjust="spacing" textLength="140" x="508" y="408.4136">generateSoldItemStats()</text><polygon fill="#A80036" points="512,441.0244,502,445.0244,512,449.0244" style="stroke:#A80036;stroke-width:1.0;"/><line style="stroke:#A80036;stroke-width:1.0;stroke-dasharray:2.0,2.0;" x1="506" x2="747.5" y1="445.0244" y2="445.0244"/><text fill="#000000" font-family="sans-serif" font-size="13" lengthAdjust="spacing" textLength="67" x="518" y="440.168">statsReport</text><line style="stroke:#000000;stroke-width:1.0;stroke-dasharray:2.0,2.0;" x1="425.5" x2="821" y1="454.0244" y2="454.0244"/><polygon fill="#A80036" points="731.5,474.7788,741.5,478.7788,731.5,482.7788" style="stroke:#A80036;stroke-width:1.0;"/><line style="stroke:#A80036;stroke-width:1.0;" x1="501" x2="737.5" y1="478.7788" y2="478.7788"/><text fill="#000000" font-family="sans-serif" font-size="13" lengthAdjust="spacing" textLength="149" x="508" y="473.9224">generateSoldItemDetails()</text><polygon fill="#A80036" points="512,506.5332,502,510.5332,512,514.5332" style="stroke:#A80036;stroke-width:1.0;"/><line style="stroke:#A80036;stroke-width:1.0;stroke-dasharray:2.0,2.0;" x1="506" x2="747.5" y1="510.5332" y2="510.5332"/><text fill="#000000" font-family="sans-serif" font-size="13" lengthAdjust="spacing" textLength="76" x="518" y="505.6768">detailsReport</text><polygon fill="#A80036" points="61.5,545.2876,51.5,549.2876,61.5,553.2876" style="stroke:#A80036;stroke-width:1.0;"/><line style="stroke:#A80036;stroke-width:1.0;stroke-dasharray:2.0,2.0;" x1="55.5" x2="495" y1="549.2876" y2="549.2876"/><text fill="#000000" font-family="sans-serif" font-size="13" lengthAdjust="spacing" textLength="33" x="67.5" y="544.4312">report</text><line style="stroke:#A80036;stroke-width:2.0;" x1="739.5" x2="757.5" y1="540.2876" y2="558.2876"/><line style="stroke:#A80036;stroke-width:2.0;" x1="739.5" x2="757.5" y1="558.2876" y2="540.2876"/><line style="stroke:#A80036;stroke-width:2.0;" x1="487" x2="505" y1="540.2876" y2="558.2876"/><line style="stroke:#A80036;stroke-width:2.0;" x1="487" x2="505" y1="558.2876" y2="540.2876"/><!--MD5=[1187fc101e2314070b6f31b1de1c6810]
@startuml
'https://plantuml.com/sequence-diagram
!include Style.puml

participant ":CLIverShelf" as Main
participant ":Parser" as Parser
participant "newCommand: \nReportCommand" as Command
participant "newSalesReport: \nSalesReport" as SalesReport

activate Main
Main -> Parser: parseCommand(input)
activate Parser
Parser -> Parser: prepareReportCommand(input)
activate Parser
Parser -> Command **: new ReportCommand(arguments)
deactivate Parser
activate Command
Command - -> Parser
deactivate Command
Parser - -> Main: new ReportCommand
deactivate Parser

Main -> Command: execute()
activate Command
Command -> SalesReport **: new SalesReport(timeSpan)
activate SalesReport
SalesReport - -> Command
deactivate SalesReport
alt type.equals("stats")
    Command -> SalesReport: generateSoldItemStats()
    activate SalesReport
    SalesReport - -> Command: statsReport
    deactivate SalesReport
else
    Command -> SalesReport: generateSoldItemDetails()
    activate SalesReport
    SalesReport - -> Command: detailsReport
    deactivate SalesReport
end
Command - -> Main: report
deactivate Command
deactivate Main
destroy SalesReport
destroy Command


@enduml

@startuml
skinparam style strictuml
skinparam backgroundColor white
skinparam box white
skinparam classAttributeIconSize 0

participant ":CLIverShelf" as Main
participant ":Parser" as Parser
participant "newCommand: \nReportCommand" as Command
participant "newSalesReport: \nSalesReport" as SalesReport

activate Main
Main -> Parser: parseCommand(input)
activate Parser
Parser -> Parser: prepareReportCommand(input)
activate Parser
Parser -> Command **: new ReportCommand(arguments)
deactivate Parser
activate Command
Command - -> Parser
deactivate Command
Parser - -> Main: new ReportCommand
deactivate Parser

Main -> Command: execute()
activate Command
Command -> SalesReport **: new SalesReport(timeSpan)
activate SalesReport
SalesReport - -> Command
deactivate SalesReport
alt type.equals("stats")
    Command -> SalesReport: generateSoldItemStats()
    activate SalesReport
    SalesReport - -> Command: statsReport
    deactivate SalesReport
else
    Command -> SalesReport: generateSoldItemDetails()
    activate SalesReport
    SalesReport - -> Command: detailsReport
    deactivate SalesReport
end
Command - -> Main: report
deactivate Command
deactivate Main
destroy SalesReport
destroy Command


@enduml

PlantUML version 1.2021.11(Sat Oct 02 21:26:11 SGT 2021)
(GPL source distribution)
Java Runtime: OpenJDK Runtime Environment
JVM: OpenJDK 64-Bit Server VM
Default Encoding: GBK
Language: en
Country: SG
--></g></svg>