<?xml version="1.0" encoding="UTF-8" standalone="no"?><svg xmlns="http://www.w3.org/2000/svg" xmlns:xlink="http://www.w3.org/1999/xlink" contentScriptType="application/ecmascript" contentStyleType="text/css" height="581px" preserveAspectRatio="none" style="width:1031px;height:581px;background:#FFFFFF;" version="1.1" viewBox="0 0 1031 581" width="1031px" zoomAndPan="magnify"><defs/><g><rect fill="#FFFFFF" height="435.7842" style="stroke:#A80036;stroke-width:1.0;" width="10" x="228" y="120.8745"/><rect fill="#FFFFFF" height="153.749" style="stroke:#A80036;stroke-width:1.0;" width="10" x="384" y="152.6289"/><rect fill="#FFFFFF" height="36.7544" style="stroke:#A80036;stroke-width:1.0;" width="10" x="389" y="192.3833"/><rect fill="#FFFFFF" height="35.4858" style="stroke:#A80036;stroke-width:1.0;" width="10" x="651.5" y="239.1377"/><rect fill="#FFFFFF" height="204.5264" style="stroke:#A80036;stroke-width:1.0;" width="10" x="651.5" y="338.1323"/><rect fill="#FFFFFF" height="14" style="stroke:#A80036;stroke-width:1.0;" width="10" x="767.5" y="496.9043"/><rect fill="#FFFFFF" height="31.7544" style="stroke:#A80036;stroke-width:1.0;" width="10" x="864" y="369.8867"/><rect fill="#FFFFFF" height="31.7544" style="stroke:#A80036;stroke-width:1.0;" width="10" x="965" y="433.3955"/><line style="stroke:#A80036;stroke-width:1.0;stroke-dasharray:5.0,5.0;" x1="22" x2="22" y1="87.1201" y2="574.6587"/><line style="stroke:#A80036;stroke-width:1.0;stroke-dasharray:5.0,5.0;" x1="232.5" x2="232.5" y1="87.1201" y2="574.6587"/><line style="stroke:#A80036;stroke-width:1.0;stroke-dasharray:5.0,5.0;" x1="389" x2="389" y1="87.1201" y2="574.6587"/><line style="stroke:#A80036;stroke-width:1.0;stroke-dasharray:5.0,5.0;" x1="656" x2="656" y1="247.0034" y2="574.6587"/><line style="stroke:#A80036;stroke-width:1.0;stroke-dasharray:5.0,5.0;" x1="772" x2="772" y1="87.1201" y2="574.6587"/><line style="stroke:#A80036;stroke-width:1.0;stroke-dasharray:5.0,5.0;" x1="869" x2="869" y1="87.1201" y2="574.6587"/><line style="stroke:#A80036;stroke-width:1.0;stroke-dasharray:5.0,5.0;" x1="970" x2="970" y1="87.1201" y2="574.6587"/><text fill="#000000" font-family="sans-serif" font-size="14" lengthAdjust="spacing" textLength="28" x="5" y="84.0439">user</text><ellipse cx="22" cy="15" fill="#FEFECE" rx="8" ry="8" style="stroke:#A80036;stroke-width:2.0;"/><path d="M22,23 L22,50 M9,31 L35,31 M22,50 L9,65 M22,50 L35,65 " fill="none" style="stroke:#A80036;stroke-width:2.0;"/><rect fill="#FEFECE" height="33.1201" style="stroke:#A80036;stroke-width:1.5;" width="91" x="187.5" y="53"/><text fill="#000000" font-family="sans-serif" font-size="14" lengthAdjust="spacing" textLength="77" x="194.5" y="76.0439">:CLIverShelf</text><rect fill="#FEFECE" height="33.1201" style="stroke:#A80036;stroke-width:1.5;" width="60" x="359" y="53"/><text fill="#000000" font-family="sans-serif" font-size="14" lengthAdjust="spacing" textLength="46" x="366" y="76.0439">:Parser</text><rect fill="#FEFECE" height="52.2402" style="stroke:#A80036;stroke-width:1.5;" width="101" x="722" y="33.8799"/><text fill="#000000" font-family="sans-serif" font-size="14" lengthAdjust="spacing" textLength="83" x="729" y="56.9238">selectedItem:</text><text fill="#000000" font-family="sans-serif" font-size="14" lengthAdjust="spacing" textLength="26" x="759.5" y="76.0439">Item</text><rect fill="#FEFECE" height="33.1201" style="stroke:#A80036;stroke-width:1.5;" width="72" x="833" y="53"/><text fill="#000000" font-family="sans-serif" font-size="14" lengthAdjust="spacing" textLength="58" x="840" y="76.0439">:ShelfList</text><rect fill="#FEFECE" height="52.2402" style="stroke:#A80036;stroke-width:1.5;" width="110" x="915" y="33.8799"/><text fill="#000000" font-family="sans-serif" font-size="14" lengthAdjust="spacing" textLength="92" x="922" y="56.9238">specifiedShelf:</text><text fill="#000000" font-family="sans-serif" font-size="14" lengthAdjust="spacing" textLength="32" x="954" y="76.0439">Shelf</text><rect fill="#FFFFFF" height="435.7842" style="stroke:#A80036;stroke-width:1.0;" width="10" x="228" y="120.8745"/><rect fill="#FFFFFF" height="153.749" style="stroke:#A80036;stroke-width:1.0;" width="10" x="384" y="152.6289"/><rect fill="#FFFFFF" height="36.7544" style="stroke:#A80036;stroke-width:1.0;" width="10" x="389" y="192.3833"/><rect fill="#FFFFFF" height="35.4858" style="stroke:#A80036;stroke-width:1.0;" width="10" x="651.5" y="239.1377"/><rect fill="#FFFFFF" height="204.5264" style="stroke:#A80036;stroke-width:1.0;" width="10" x="651.5" y="338.1323"/><rect fill="#FFFFFF" height="14" style="stroke:#A80036;stroke-width:1.0;" width="10" x="767.5" y="496.9043"/><rect fill="#FFFFFF" height="31.7544" style="stroke:#A80036;stroke-width:1.0;" width="10" x="864" y="369.8867"/><rect fill="#FFFFFF" height="31.7544" style="stroke:#A80036;stroke-width:1.0;" width="10" x="965" y="433.3955"/><polygon fill="#A80036" points="216,116.8745,226,120.8745,216,124.8745" style="stroke:#A80036;stroke-width:1.0;"/><line style="stroke:#A80036;stroke-width:1.0;" x1="22" x2="222" y1="120.8745" y2="120.8745"/><text fill="#000000" font-family="sans-serif" font-size="13" lengthAdjust="spacing" textLength="187" x="29" y="116.0181">Run program &amp; Input commands</text><polygon fill="#A80036" points="372,148.6289,382,152.6289,372,156.6289" style="stroke:#A80036;stroke-width:1.0;"/><line style="stroke:#A80036;stroke-width:1.0;" x1="238" x2="378" y1="152.6289" y2="152.6289"/><text fill="#000000" font-family="sans-serif" font-size="13" lengthAdjust="spacing" textLength="127" x="245" y="147.7725">parseCommand(input)</text><line style="stroke:#A80036;stroke-width:1.0;" x1="394" x2="441" y1="179.3833" y2="179.3833"/><line style="stroke:#A80036;stroke-width:1.0;" x1="441" x2="441" y1="179.3833" y2="192.3833"/><line style="stroke:#A80036;stroke-width:1.0;" x1="400" x2="441" y1="192.3833" y2="192.3833"/><polygon fill="#A80036" points="410,188.3833,400,192.3833,410,196.3833" style="stroke:#A80036;stroke-width:1.0;"/><text fill="#000000" font-family="sans-serif" font-size="13" lengthAdjust="spacing" textLength="102" x="406" y="174.5269">prepareEdit(input)</text><polygon fill="#A80036" points="589,225.1377,599,229.1377,589,233.1377" style="stroke:#A80036;stroke-width:1.0;"/><line style="stroke:#A80036;stroke-width:1.0;" x1="394" x2="595" y1="229.1377" y2="229.1377"/><text fill="#000000" font-family="sans-serif" font-size="13" lengthAdjust="spacing" textLength="178" x="401" y="224.2813">new EditCommand(arguments)</text><rect fill="#FEFECE" height="52.2402" style="stroke:#A80036;stroke-width:1.5;" width="111" x="601" y="205.3833"/><text fill="#000000" font-family="sans-serif" font-size="14" lengthAdjust="spacing" textLength="93" x="608" y="228.4272">newCommand:</text><text fill="#000000" font-family="sans-serif" font-size="14" lengthAdjust="spacing" textLength="88" x="612.5" y="247.5474">EditCommand</text><polygon fill="#A80036" points="405,270.6235,395,274.6235,405,278.6235" style="stroke:#A80036;stroke-width:1.0;"/><line style="stroke:#A80036;stroke-width:1.0;stroke-dasharray:2.0,2.0;" x1="399" x2="655.5" y1="274.6235" y2="274.6235"/><polygon fill="#A80036" points="249,302.3779,239,306.3779,249,310.3779" style="stroke:#A80036;stroke-width:1.0;"/><line style="stroke:#A80036;stroke-width:1.0;stroke-dasharray:2.0,2.0;" x1="243" x2="388" y1="306.3779" y2="306.3779"/><text fill="#000000" font-family="sans-serif" font-size="13" lengthAdjust="spacing" textLength="109" x="255" y="301.5215">new EditCommand</text><polygon fill="#A80036" points="639.5,334.1323,649.5,338.1323,639.5,342.1323" style="stroke:#A80036;stroke-width:1.0;"/><line style="stroke:#A80036;stroke-width:1.0;" x1="238" x2="645.5" y1="338.1323" y2="338.1323"/><text fill="#000000" font-family="sans-serif" font-size="13" lengthAdjust="spacing" textLength="54" x="245" y="333.2759">execute()</text><polygon fill="#A80036" points="852,365.8867,862,369.8867,852,373.8867" style="stroke:#A80036;stroke-width:1.0;"/><line style="stroke:#A80036;stroke-width:1.0;" x1="661.5" x2="858" y1="369.8867" y2="369.8867"/><text fill="#000000" font-family="sans-serif" font-size="13" lengthAdjust="spacing" textLength="116" x="668.5" y="365.0303">getShelf(shelfName)</text><polygon fill="#A80036" points="672.5,397.6411,662.5,401.6411,672.5,405.6411" style="stroke:#A80036;stroke-width:1.0;"/><line style="stroke:#A80036;stroke-width:1.0;stroke-dasharray:2.0,2.0;" x1="666.5" x2="868" y1="401.6411" y2="401.6411"/><text fill="#000000" font-family="sans-serif" font-size="13" lengthAdjust="spacing" textLength="80" x="678.5" y="396.7847">specifiedShelf</text><polygon fill="#A80036" points="953,429.3955,963,433.3955,953,437.3955" style="stroke:#A80036;stroke-width:1.0;"/><line style="stroke:#A80036;stroke-width:1.0;" x1="661.5" x2="959" y1="433.3955" y2="433.3955"/><text fill="#000000" font-family="sans-serif" font-size="13" lengthAdjust="spacing" textLength="82" x="668.5" y="428.5391">getItem(index)</text><polygon fill="#A80036" points="672.5,461.1499,662.5,465.1499,672.5,469.1499" style="stroke:#A80036;stroke-width:1.0;"/><line style="stroke:#A80036;stroke-width:1.0;stroke-dasharray:2.0,2.0;" x1="666.5" x2="969" y1="465.1499" y2="465.1499"/><text fill="#000000" font-family="sans-serif" font-size="13" lengthAdjust="spacing" textLength="74" x="678.5" y="460.2935">selectedItem</text><polygon fill="#A80036" points="755.5,492.9043,765.5,496.9043,755.5,500.9043" style="stroke:#A80036;stroke-width:1.0;"/><line style="stroke:#A80036;stroke-width:1.0;" x1="661.5" x2="761.5" y1="496.9043" y2="496.9043"/><text fill="#000000" font-family="sans-serif" font-size="13" lengthAdjust="spacing" textLength="75" x="668.5" y="492.0479">setProperty()</text><polygon fill="#A80036" points="672.5,506.9043,662.5,510.9043,672.5,514.9043" style="stroke:#A80036;stroke-width:1.0;"/><line style="stroke:#A80036;stroke-width:1.0;stroke-dasharray:2.0,2.0;" x1="666.5" x2="771.5" y1="510.9043" y2="510.9043"/><polygon fill="#A80036" points="249,538.6587,239,542.6587,249,546.6587" style="stroke:#A80036;stroke-width:1.0;"/><line style="stroke:#A80036;stroke-width:1.0;stroke-dasharray:2.0,2.0;" x1="243" x2="655.5" y1="542.6587" y2="542.6587"/><text fill="#000000" font-family="sans-serif" font-size="13" lengthAdjust="spacing" textLength="97" x="255" y="537.8022">finishedMessage</text><polygon fill="#A80036" points="33,552.6587,23,556.6587,33,560.6587" style="stroke:#A80036;stroke-width:1.0;"/><line style="stroke:#A80036;stroke-width:1.0;stroke-dasharray:2.0,2.0;" x1="27" x2="232" y1="556.6587" y2="556.6587"/><line style="stroke:#A80036;stroke-width:2.0;" x1="647.5" x2="665.5" y1="547.6587" y2="565.6587"/><line style="stroke:#A80036;stroke-width:2.0;" x1="647.5" x2="665.5" y1="565.6587" y2="547.6587"/><!--MD5=[5436ae02670d451c86dddc8cc8616963]
@startuml
'https://plantuml.com/sequence-diagram
!include Style.puml

actor user
participant ":CLIverShelf" as Main
participant ":Parser" as Parser
participant "newCommand: \nEditCommand" as Command
participant "selectedItem: \nItem" as Item
participant ":ShelfList" as ShelfList
participant "specifiedShelf: \nShelf" as Shelf
user -> Main: Run program & Input commands
activate Main
Main -> Parser: parseCommand(input)
activate Parser
Parser -> Parser: prepareEdit(input)
activate Parser
Parser -> Command **: new EditCommand(arguments)
deactivate Parser
activate Command
Command - -> Parser
deactivate Command
Parser - -> Main: new EditCommand
deactivate Parser

Main -> Command: execute()
activate Command

Command -> ShelfList: getShelf(shelfName)
activate ShelfList
ShelfList - -> Command: specifiedShelf
deactivate ShelfList
Command -> Shelf: getItem(index)
activate Shelf
Shelf - -> Command: selectedItem
deactivate Shelf
Command -> Item: setProperty()
activate Item
Item - -> Command
deactivate Item
Command - -> Main: finishedMessage
deactivate Command
Main - -> user
deactivate Main
destroy Command


@enduml

@startuml
skinparam style strictuml
skinparam backgroundColor white
skinparam box white
skinparam classAttributeIconSize 0

actor user
participant ":CLIverShelf" as Main
participant ":Parser" as Parser
participant "newCommand: \nEditCommand" as Command
participant "selectedItem: \nItem" as Item
participant ":ShelfList" as ShelfList
participant "specifiedShelf: \nShelf" as Shelf
user -> Main: Run program & Input commands
activate Main
Main -> Parser: parseCommand(input)
activate Parser
Parser -> Parser: prepareEdit(input)
activate Parser
Parser -> Command **: new EditCommand(arguments)
deactivate Parser
activate Command
Command - -> Parser
deactivate Command
Parser - -> Main: new EditCommand
deactivate Parser

Main -> Command: execute()
activate Command

Command -> ShelfList: getShelf(shelfName)
activate ShelfList
ShelfList - -> Command: specifiedShelf
deactivate ShelfList
Command -> Shelf: getItem(index)
activate Shelf
Shelf - -> Command: selectedItem
deactivate Shelf
Command -> Item: setProperty()
activate Item
Item - -> Command
deactivate Item
Command - -> Main: finishedMessage
deactivate Command
Main - -> user
deactivate Main
destroy Command


@enduml

PlantUML version 1.2021.11(Sat Oct 02 21:26:11 SGT 2021)
(GPL source distribution)
Java Runtime: OpenJDK Runtime Environment
JVM: OpenJDK 64-Bit Server VM
Default Encoding: GBK
Language: en
Country: SG
--></g></svg>