<?xml version="1.0" encoding="UTF-8" standalone="no"?><svg xmlns="http://www.w3.org/2000/svg" xmlns:xlink="http://www.w3.org/1999/xlink" contentScriptType="application/ecmascript" contentStyleType="text/css" height="396px" preserveAspectRatio="none" style="width:782px;height:396px;background:#FFFFFF;" version="1.1" viewBox="0 0 782 396" width="782px" zoomAndPan="magnify"><defs/><g><rect fill="#FFFFFF" height="250.2808" style="stroke:#A80036;stroke-width:1.0;" width="10" x="228" y="120.8745"/><rect fill="#FFFFFF" height="204.5264" style="stroke:#A80036;stroke-width:1.0;" width="10" x="359" y="152.6289"/><rect fill="#FFFFFF" height="31.7544" style="stroke:#A80036;stroke-width:1.0;" width="10" x="504" y="184.3833"/><rect fill="#FFFFFF" height="31.7544" style="stroke:#A80036;stroke-width:1.0;" width="10" x="605" y="247.8921"/><rect fill="#FFFFFF" height="14" style="stroke:#A80036;stroke-width:1.0;" width="10" x="720.5" y="311.4009"/><line style="stroke:#A80036;stroke-width:1.0;stroke-dasharray:5.0,5.0;" x1="22" x2="22" y1="87.1201" y2="389.1553"/><line style="stroke:#A80036;stroke-width:1.0;stroke-dasharray:5.0,5.0;" x1="232.5" x2="232.5" y1="87.1201" y2="389.1553"/><line style="stroke:#A80036;stroke-width:1.0;stroke-dasharray:5.0,5.0;" x1="363.5" x2="363.5" y1="87.1201" y2="389.1553"/><line style="stroke:#A80036;stroke-width:1.0;stroke-dasharray:5.0,5.0;" x1="509" x2="509" y1="87.1201" y2="389.1553"/><line style="stroke:#A80036;stroke-width:1.0;stroke-dasharray:5.0,5.0;" x1="610" x2="610" y1="87.1201" y2="389.1553"/><line style="stroke:#A80036;stroke-width:1.0;stroke-dasharray:5.0,5.0;" x1="725" x2="725" y1="87.1201" y2="389.1553"/><text fill="#000000" font-family="sans-serif" font-size="14" lengthAdjust="spacing" textLength="28" x="5" y="84.0439">user</text><ellipse cx="22" cy="15" fill="#FEFECE" rx="8" ry="8" style="stroke:#A80036;stroke-width:2.0;"/><path d="M22,23 L22,50 M9,31 L35,31 M22,50 L9,65 M22,50 L35,65 " fill="none" style="stroke:#A80036;stroke-width:2.0;"/><rect fill="#FEFECE" height="33.1201" style="stroke:#A80036;stroke-width:1.5;" width="91" x="187.5" y="53"/><text fill="#000000" font-family="sans-serif" font-size="14" lengthAdjust="spacing" textLength="77" x="194.5" y="76.0439">:CLIverShelf</text><rect fill="#FEFECE" height="52.2402" style="stroke:#A80036;stroke-width:1.5;" width="111" x="308.5" y="33.8799"/><text fill="#000000" font-family="sans-serif" font-size="14" lengthAdjust="spacing" textLength="93" x="315.5" y="56.9238">newCommand:</text><text fill="#000000" font-family="sans-serif" font-size="14" lengthAdjust="spacing" textLength="88" x="320" y="76.0439">EditCommand</text><rect fill="#FEFECE" height="33.1201" style="stroke:#A80036;stroke-width:1.5;" width="72" x="473" y="53"/><text fill="#000000" font-family="sans-serif" font-size="14" lengthAdjust="spacing" textLength="58" x="480" y="76.0439">:ShelfList</text><rect fill="#FEFECE" height="52.2402" style="stroke:#A80036;stroke-width:1.5;" width="110" x="555" y="33.8799"/><text fill="#000000" font-family="sans-serif" font-size="14" lengthAdjust="spacing" textLength="92" x="562" y="56.9238">specifiedShelf:</text><text fill="#000000" font-family="sans-serif" font-size="14" lengthAdjust="spacing" textLength="32" x="594" y="76.0439">Shelf</text><rect fill="#FEFECE" height="52.2402" style="stroke:#A80036;stroke-width:1.5;" width="101" x="675" y="33.8799"/><text fill="#000000" font-family="sans-serif" font-size="14" lengthAdjust="spacing" textLength="83" x="682" y="56.9238">selectedItem:</text><text fill="#000000" font-family="sans-serif" font-size="14" lengthAdjust="spacing" textLength="26" x="712.5" y="76.0439">Item</text><rect fill="#FFFFFF" height="250.2808" style="stroke:#A80036;stroke-width:1.0;" width="10" x="228" y="120.8745"/><rect fill="#FFFFFF" height="204.5264" style="stroke:#A80036;stroke-width:1.0;" width="10" x="359" y="152.6289"/><rect fill="#FFFFFF" height="31.7544" style="stroke:#A80036;stroke-width:1.0;" width="10" x="504" y="184.3833"/><rect fill="#FFFFFF" height="31.7544" style="stroke:#A80036;stroke-width:1.0;" width="10" x="605" y="247.8921"/><rect fill="#FFFFFF" height="14" style="stroke:#A80036;stroke-width:1.0;" width="10" x="720.5" y="311.4009"/><polygon fill="#A80036" points="216,116.8745,226,120.8745,216,124.8745" style="stroke:#A80036;stroke-width:1.0;"/><line style="stroke:#A80036;stroke-width:1.0;" x1="22" x2="222" y1="120.8745" y2="120.8745"/><text fill="#000000" font-family="sans-serif" font-size="13" lengthAdjust="spacing" textLength="187" x="29" y="116.0181">Run program &amp; Input commands</text><polygon fill="#A80036" points="347,148.6289,357,152.6289,347,156.6289" style="stroke:#A80036;stroke-width:1.0;"/><line style="stroke:#A80036;stroke-width:1.0;" x1="238" x2="353" y1="152.6289" y2="152.6289"/><text fill="#000000" font-family="sans-serif" font-size="13" lengthAdjust="spacing" textLength="54" x="245" y="147.7725">execute()</text><polygon fill="#A80036" points="492,180.3833,502,184.3833,492,188.3833" style="stroke:#A80036;stroke-width:1.0;"/><line style="stroke:#A80036;stroke-width:1.0;" x1="369" x2="498" y1="184.3833" y2="184.3833"/><text fill="#000000" font-family="sans-serif" font-size="13" lengthAdjust="spacing" textLength="116" x="376" y="179.5269">getShelf(shelfName)</text><polygon fill="#A80036" points="380,212.1377,370,216.1377,380,220.1377" style="stroke:#A80036;stroke-width:1.0;"/><line style="stroke:#A80036;stroke-width:1.0;stroke-dasharray:2.0,2.0;" x1="374" x2="508" y1="216.1377" y2="216.1377"/><text fill="#000000" font-family="sans-serif" font-size="13" lengthAdjust="spacing" textLength="80" x="386" y="211.2813">specifiedShelf</text><polygon fill="#A80036" points="593,243.8921,603,247.8921,593,251.8921" style="stroke:#A80036;stroke-width:1.0;"/><line style="stroke:#A80036;stroke-width:1.0;" x1="369" x2="599" y1="247.8921" y2="247.8921"/><text fill="#000000" font-family="sans-serif" font-size="13" lengthAdjust="spacing" textLength="82" x="376" y="243.0356">getItem(index)</text><polygon fill="#A80036" points="380,275.6465,370,279.6465,380,283.6465" style="stroke:#A80036;stroke-width:1.0;"/><line style="stroke:#A80036;stroke-width:1.0;stroke-dasharray:2.0,2.0;" x1="374" x2="609" y1="279.6465" y2="279.6465"/><text fill="#000000" font-family="sans-serif" font-size="13" lengthAdjust="spacing" textLength="74" x="386" y="274.79">selectedItem</text><polygon fill="#A80036" points="708.5,307.4009,718.5,311.4009,708.5,315.4009" style="stroke:#A80036;stroke-width:1.0;"/><line style="stroke:#A80036;stroke-width:1.0;" x1="369" x2="714.5" y1="311.4009" y2="311.4009"/><text fill="#000000" font-family="sans-serif" font-size="13" lengthAdjust="spacing" textLength="75" x="376" y="306.5444">setProperty()</text><polygon fill="#A80036" points="380,321.4009,370,325.4009,380,329.4009" style="stroke:#A80036;stroke-width:1.0;"/><line style="stroke:#A80036;stroke-width:1.0;stroke-dasharray:2.0,2.0;" x1="374" x2="724.5" y1="325.4009" y2="325.4009"/><polygon fill="#A80036" points="249,353.1553,239,357.1553,249,361.1553" style="stroke:#A80036;stroke-width:1.0;"/><line style="stroke:#A80036;stroke-width:1.0;stroke-dasharray:2.0,2.0;" x1="243" x2="363" y1="357.1553" y2="357.1553"/><text fill="#000000" font-family="sans-serif" font-size="13" lengthAdjust="spacing" textLength="97" x="255" y="352.2988">finishedMessage</text><polygon fill="#A80036" points="33,367.1553,23,371.1553,33,375.1553" style="stroke:#A80036;stroke-width:1.0;"/><line style="stroke:#A80036;stroke-width:1.0;stroke-dasharray:2.0,2.0;" x1="27" x2="232" y1="371.1553" y2="371.1553"/><line style="stroke:#A80036;stroke-width:2.0;" x1="355" x2="373" y1="362.1553" y2="380.1553"/><line style="stroke:#A80036;stroke-width:2.0;" x1="355" x2="373" y1="380.1553" y2="362.1553"/><!--MD5=[2287ce6b590689f5af547ed2f75aea81]
@startuml
'https://plantuml.com/sequence-diagram
!include Style.puml

actor user
participant ":CLIverShelf" as Main

participant "newCommand: \nEditCommand" as Command
participant ":ShelfList" as ShelfList
participant "specifiedShelf: \nShelf" as Shelf
participant "selectedItem: \nItem" as Item
user -> Main: Run program & Input commands
activate Main


Main -> Command: execute()
activate Command

Command -> ShelfList: getShelf(shelfName)
activate ShelfList
ShelfList - -> Command: specifiedShelf
deactivate ShelfList
Command -> Shelf: getItem(index)
activate Shelf
Shelf - -> Command: selectedItem
deactivate Shelf
Command -> Item: setProperty()
activate Item
Item - -> Command
deactivate Item
Command - -> Main: finishedMessage
deactivate Command
Main - -> user
deactivate Main
destroy Command


@enduml

@startuml
skinparam style strictuml
skinparam backgroundColor white
skinparam box white
skinparam classAttributeIconSize 0

actor user
participant ":CLIverShelf" as Main

participant "newCommand: \nEditCommand" as Command
participant ":ShelfList" as ShelfList
participant "specifiedShelf: \nShelf" as Shelf
participant "selectedItem: \nItem" as Item
user -> Main: Run program & Input commands
activate Main


Main -> Command: execute()
activate Command

Command -> ShelfList: getShelf(shelfName)
activate ShelfList
ShelfList - -> Command: specifiedShelf
deactivate ShelfList
Command -> Shelf: getItem(index)
activate Shelf
Shelf - -> Command: selectedItem
deactivate Shelf
Command -> Item: setProperty()
activate Item
Item - -> Command
deactivate Item
Command - -> Main: finishedMessage
deactivate Command
Main - -> user
deactivate Main
destroy Command


@enduml

PlantUML version 1.2021.11(Sat Oct 02 21:26:11 SGT 2021)
(GPL source distribution)
Java Runtime: OpenJDK Runtime Environment
JVM: OpenJDK 64-Bit Server VM
Default Encoding: GBK
Language: en
Country: SG
--></g></svg>