<?xml version="1.0" encoding="UTF-8" standalone="no"?><svg xmlns="http://www.w3.org/2000/svg" xmlns:xlink="http://www.w3.org/1999/xlink" contentScriptType="application/ecmascript" contentStyleType="text/css" height="443px" preserveAspectRatio="none" style="width:539px;height:443px;background:#FFFFFF;" version="1.1" viewBox="0 0 539 443" width="539px" zoomAndPan="magnify"><defs/><g><rect fill="#FFFFFF" height="300.4609" style="stroke:#A80036;stroke-width:1.0;" width="10" x="89.5" y="117.9609"/><rect fill="#FFFFFF" height="256.1094" style="stroke:#A80036;stroke-width:1.0;" width="10" x="268.5" y="148.3125"/><rect fill="#FFFFFF" height="35.3516" style="stroke:#A80036;stroke-width:1.0;" width="10" x="273.5" y="212.0156"/><rect fill="#FFFFFF" height="49.3516" style="stroke:#A80036;stroke-width:1.0;" width="10" x="273.5" y="327.0703"/><rect fill="#FFFFFF" height="14" style="stroke:#A80036;stroke-width:1.0;" width="10" x="454.5" y="247.3672"/><rect fill="#FFFFFF" height="14" style="stroke:#A80036;stroke-width:1.0;" width="10" x="454.5" y="362.4219"/><rect fill="#FFFFFF" height="228.1094" style="stroke:#000000;stroke-width:2.0;" width="332.5" x="200" y="163.3125"/><rect fill="#FFFFFF" height="122.0547" style="stroke:none;stroke-width:1.0;" width="332.5" x="200" y="269.3672"/><rect fill="#FFFFFF" height="106.0547" style="stroke:#000000;stroke-width:2.0;" width="312.5" x="210" y="278.3672"/><line style="stroke:#A80036;stroke-width:1.0;stroke-dasharray:5.0,5.0;" x1="22" x2="22" y1="85.6094" y2="436.4219"/><line style="stroke:#A80036;stroke-width:1.0;stroke-dasharray:5.0,5.0;" x1="94" x2="94" y1="85.6094" y2="436.4219"/><line style="stroke:#A80036;stroke-width:1.0;stroke-dasharray:5.0,5.0;" x1="180" x2="180" y1="85.6094" y2="436.4219"/><line style="stroke:#A80036;stroke-width:1.0;stroke-dasharray:5.0,5.0;" x1="273" x2="273" y1="85.6094" y2="436.4219"/><line style="stroke:#A80036;stroke-width:1.0;stroke-dasharray:5.0,5.0;" x1="459.5" x2="459.5" y1="85.6094" y2="436.4219"/><text fill="#000000" font-family="sans-serif" font-size="14" lengthAdjust="spacing" textLength="28" x="5" y="82.5332">user</text><ellipse cx="22" cy="15" fill="#FEFECE" rx="8" ry="8" style="stroke:#A80036;stroke-width:2.0;"/><path d="M22,23 L22,50 M9,31 L35,31 M22,50 L9,65 M22,50 L35,65 " fill="none" style="stroke:#A80036;stroke-width:2.0;"/><rect fill="#FFBF00" height="31.6094" style="stroke:#A80036;stroke-width:1.5;" width="91" x="49" y="53"/><text fill="#000000" font-family="sans-serif" font-size="14" lengthAdjust="spacing" textLength="77" x="56" y="74.5332">:CLIverShelf</text><rect fill="#FFFF00" height="31.6094" style="stroke:#A80036;stroke-width:1.5;" width="60" x="150" y="53"/><text fill="#000000" font-family="sans-serif" font-size="14" lengthAdjust="spacing" textLength="46" x="157" y="74.5332">:Parser</text><rect fill="#BFFF00" height="49.2188" style="stroke:#A80036;stroke-width:1.5;" width="107" x="220" y="35.3906"/><text fill="#000000" font-family="sans-serif" font-size="14" lengthAdjust="spacing" textLength="93" x="227" y="56.9238">newCommand:</text><text fill="#000000" font-family="sans-serif" font-size="14" lengthAdjust="spacing" textLength="86" x="230.5" y="74.5332">ListCommand</text><rect fill="#FEFECE" height="49.2188" style="stroke:#A80036;stroke-width:1.5;" width="106" x="406.5" y="35.3906"/><text fill="#000000" font-family="sans-serif" font-size="14" lengthAdjust="spacing" textLength="92" x="413.5" y="56.9238">specifiedShelf:</text><text fill="#000000" font-family="sans-serif" font-size="14" lengthAdjust="spacing" textLength="32" x="443.5" y="74.5332">Shelf</text><rect fill="#FFFFFF" height="300.4609" style="stroke:#A80036;stroke-width:1.0;" width="10" x="89.5" y="117.9609"/><rect fill="#FFFFFF" height="256.1094" style="stroke:#A80036;stroke-width:1.0;" width="10" x="268.5" y="148.3125"/><rect fill="#FFFFFF" height="35.3516" style="stroke:#A80036;stroke-width:1.0;" width="10" x="273.5" y="212.0156"/><rect fill="#FFFFFF" height="49.3516" style="stroke:#A80036;stroke-width:1.0;" width="10" x="273.5" y="327.0703"/><rect fill="#FFFFFF" height="14" style="stroke:#A80036;stroke-width:1.0;" width="10" x="454.5" y="247.3672"/><rect fill="#FFFFFF" height="14" style="stroke:#A80036;stroke-width:1.0;" width="10" x="454.5" y="362.4219"/><polygon fill="#A80036" points="77.5,113.9609,87.5,117.9609,77.5,121.9609" style="stroke:#A80036;stroke-width:1.0;"/><line style="stroke:#A80036;stroke-width:1.0;" x1="22" x2="83.5" y1="117.9609" y2="117.9609"/><text fill="#000000" font-family="sans-serif" font-size="13" lengthAdjust="spacing" textLength="28" x="29" y="113.1045">input</text><polygon fill="#A80036" points="256.5,144.3125,266.5,148.3125,256.5,152.3125" style="stroke:#A80036;stroke-width:1.0;"/><line style="stroke:#A80036;stroke-width:1.0;" x1="99.5" x2="262.5" y1="148.3125" y2="148.3125"/><text fill="#000000" font-family="sans-serif" font-size="13" lengthAdjust="spacing" textLength="54" x="106.5" y="143.4561">execute()</text><path d="M200,163.3125 L261,163.3125 L261,171.3125 L251,181.3125 L200,181.3125 L200,163.3125 " fill="#EEEEEE" style="stroke:#000000;stroke-width:1.0;"/><rect fill="none" height="228.1094" style="stroke:#000000;stroke-width:2.0;" width="332.5" x="200" y="163.3125"/><text fill="#000000" font-family="sans-serif" font-size="13" font-weight="bold" lengthAdjust="spacing" textLength="16" x="215" y="177.8076">alt</text><text fill="#000000" font-family="sans-serif" font-size="11" font-weight="bold" lengthAdjust="spacing" textLength="51" x="276" y="176.7314">[!printAll]</text><line style="stroke:#A80036;stroke-width:1.0;" x1="278.5" x2="325.5" y1="199.0156" y2="199.0156"/><line style="stroke:#A80036;stroke-width:1.0;" x1="325.5" x2="325.5" y1="199.0156" y2="212.0156"/><line style="stroke:#A80036;stroke-width:1.0;" x1="284.5" x2="325.5" y1="212.0156" y2="212.0156"/><polygon fill="#A80036" points="294.5,208.0156,284.5,212.0156,294.5,216.0156" style="stroke:#A80036;stroke-width:1.0;"/><text fill="#000000" font-family="sans-serif" font-size="13" lengthAdjust="spacing" textLength="132" x="290.5" y="194.1592">getOneList(shelfName)</text><polygon fill="#A80036" points="442.5,243.3672,452.5,247.3672,442.5,251.3672" style="stroke:#A80036;stroke-width:1.0;"/><line style="stroke:#A80036;stroke-width:1.0;" x1="278.5" x2="448.5" y1="247.3672" y2="247.3672"/><text fill="#000000" font-family="sans-serif" font-size="13" lengthAdjust="spacing" textLength="83" x="285.5" y="242.5107">createOutput()</text><polygon fill="#A80036" points="289.5,257.3672,279.5,261.3672,289.5,265.3672" style="stroke:#A80036;stroke-width:1.0;"/><line style="stroke:#A80036;stroke-width:1.0;stroke-dasharray:2.0,2.0;" x1="283.5" x2="458.5" y1="261.3672" y2="261.3672"/><line style="stroke:#000000;stroke-width:1.0;stroke-dasharray:2.0,2.0;" x1="200" x2="532.5" y1="270.3672" y2="270.3672"/><path d="M210,278.3672 L283,278.3672 L283,286.3672 L273,296.3672 L210,296.3672 L210,278.3672 " fill="#EEEEEE" style="stroke:#000000;stroke-width:1.0;"/><rect fill="none" height="106.0547" style="stroke:#000000;stroke-width:2.0;" width="312.5" x="210" y="278.3672"/><text fill="#000000" font-family="sans-serif" font-size="13" font-weight="bold" lengthAdjust="spacing" textLength="28" x="225" y="292.8623">loop</text><text fill="#000000" font-family="sans-serif" font-size="11" font-weight="bold" lengthAdjust="spacing" textLength="149" x="298" y="291.7861">[for every shelf in shelves]</text><line style="stroke:#A80036;stroke-width:1.0;" x1="278.5" x2="325.5" y1="314.0703" y2="314.0703"/><line style="stroke:#A80036;stroke-width:1.0;" x1="325.5" x2="325.5" y1="314.0703" y2="327.0703"/><line style="stroke:#A80036;stroke-width:1.0;" x1="284.5" x2="325.5" y1="327.0703" y2="327.0703"/><polygon fill="#A80036" points="294.5,323.0703,284.5,327.0703,294.5,331.0703" style="stroke:#A80036;stroke-width:1.0;"/><text fill="#000000" font-family="sans-serif" font-size="13" lengthAdjust="spacing" textLength="162" x="290.5" y="309.2139">getOneList(shelf.getName())</text><polygon fill="#A80036" points="442.5,358.4219,452.5,362.4219,442.5,366.4219" style="stroke:#A80036;stroke-width:1.0;"/><line style="stroke:#A80036;stroke-width:1.0;" x1="283.5" x2="448.5" y1="362.4219" y2="362.4219"/><text fill="#000000" font-family="sans-serif" font-size="13" lengthAdjust="spacing" textLength="83" x="290.5" y="357.5654">createOutput()</text><polygon fill="#A80036" points="289.5,372.4219,279.5,376.4219,289.5,380.4219" style="stroke:#A80036;stroke-width:1.0;"/><line style="stroke:#A80036;stroke-width:1.0;stroke-dasharray:2.0,2.0;" x1="283.5" x2="458.5" y1="376.4219" y2="376.4219"/><polygon fill="#A80036" points="110.5,400.4219,100.5,404.4219,110.5,408.4219" style="stroke:#A80036;stroke-width:1.0;"/><line style="stroke:#A80036;stroke-width:1.0;stroke-dasharray:2.0,2.0;" x1="104.5" x2="272.5" y1="404.4219" y2="404.4219"/><line style="stroke:#A80036;stroke-width:2.0;" x1="264.5" x2="282.5" y1="395.4219" y2="413.4219"/><line style="stroke:#A80036;stroke-width:2.0;" x1="264.5" x2="282.5" y1="413.4219" y2="395.4219"/><polygon fill="#A80036" points="33,414.4219,23,418.4219,33,422.4219" style="stroke:#A80036;stroke-width:1.0;"/><line style="stroke:#A80036;stroke-width:1.0;stroke-dasharray:2.0,2.0;" x1="27" x2="93.5" y1="418.4219" y2="418.4219"/><!--MD5=[8eaf870e8b05e7e24a4bb69abc245125]
@startuml
'https://plantuml.com/sequence-diagram
!include Style.puml

actor user
participant ":CLIverShelf" as app LOGIC_COLOR
participant ":Parser" as parser LOGIC_COLOR_T1
participant "newCommand:\nListCommand" as listCommand LOGIC_COLOR_T2
participant "specifiedShelf:\nShelf" as Shelf
user -> app: input
activate app


app -> listCommand: execute()


activate listCommand
alt !printAll
    listCommand -> listCommand : getOneList(shelfName)
    activate listCommand
    listCommand -> Shelf : createOutput()

    deactivate listCommand
    activate Shelf
    Shelf - -> listCommand
    deactivate Shelf


else
    loop for every shelf in shelves
        listCommand -> listCommand : getOneList(shelf.getName())
        activate listCommand
        listCommand -> Shelf : createOutput()
        activate Shelf
        Shelf - -> listCommand
        deactivate Shelf
        deactivate listCommand

    end

end

listCommand - -> app
deactivate listCommand
destroy listCommand
app - -> user
deactivate app

hide footbox
@enduml

@startuml
skinparam style strictuml
skinparam backgroundColor white
skinparam box white
skinparam classAttributeIconSize 0

actor user
participant ":CLIverShelf" as app #ffbf00
participant ":Parser" as parser #ffff00
participant "newCommand:\nListCommand" as listCommand #bfff00
participant "specifiedShelf:\nShelf" as Shelf
user -> app: input
activate app


app -> listCommand: execute()


activate listCommand
alt !printAll
    listCommand -> listCommand : getOneList(shelfName)
    activate listCommand
    listCommand -> Shelf : createOutput()

    deactivate listCommand
    activate Shelf
    Shelf - -> listCommand
    deactivate Shelf


else
    loop for every shelf in shelves
        listCommand -> listCommand : getOneList(shelf.getName())
        activate listCommand
        listCommand -> Shelf : createOutput()
        activate Shelf
        Shelf - -> listCommand
        deactivate Shelf
        deactivate listCommand

    end

end

listCommand - -> app
deactivate listCommand
destroy listCommand
app - -> user
deactivate app

hide footbox
@enduml

PlantUML version 1.2021.11(Sat Oct 02 21:26:11 SGT 2021)
(GPL source distribution)
Java Runtime: OpenJDK Runtime Environment
JVM: OpenJDK 64-Bit Server VM
Default Encoding: Cp1252
Language: en
Country: US
--></g></svg>