<?xml version="1.0" encoding="UTF-8" standalone="no"?><svg xmlns="http://www.w3.org/2000/svg" xmlns:xlink="http://www.w3.org/1999/xlink" contentScriptType="application/ecmascript" contentStyleType="text/css" height="573px" preserveAspectRatio="none" style="width:647px;height:573px;background:#FFFFFF;" version="1.1" viewBox="0 0 647 573" width="647px" zoomAndPan="magnify"><defs/><g><rect fill="#FFFFFF" height="432.2832" style="stroke:#A80036;stroke-width:1.0;" width="10" x="91" y="115.7988"/><rect fill="#FFFFFF" height="111.7988" style="stroke:#A80036;stroke-width:1.0;" width="10" x="259" y="145.1094"/><rect fill="#FFFFFF" height="19" style="stroke:#A80036;stroke-width:1.0;" width="10" x="264" y="182.4199"/><rect fill="#FFFFFF" height="31.4883" style="stroke:#A80036;stroke-width:1.0;" width="10" x="421" y="211.4199"/><rect fill="#FFFFFF" height="247.8633" style="stroke:#A80036;stroke-width:1.0;" width="10" x="421" y="286.2188"/><rect fill="#FFFFFF" height="40.3105" style="stroke:#A80036;stroke-width:1.0;" width="10" x="426" y="347.8398"/><rect fill="#FFFFFF" height="40.3105" style="stroke:#A80036;stroke-width:1.0;" width="10" x="426" y="458.7715"/><rect fill="#FFFFFF" height="219.8633" style="stroke:#000000;stroke-width:2.0;" width="343.5" x="296.5" y="301.2188"/><rect fill="#FFFFFF" height="117.9316" style="stroke:none;stroke-width:1.0;" width="343.5" x="296.5" y="403.1504"/><rect fill="#FFFFFF" height="101.9316" style="stroke:#000000;stroke-width:2.0;" width="323.5" x="306.5" y="412.1504"/><line style="stroke:#A80036;stroke-width:1.0;stroke-dasharray:5.0,5.0;" x1="23" x2="23" y1="84.4883" y2="566.082"/><line style="stroke:#A80036;stroke-width:1.0;stroke-dasharray:5.0,5.0;" x1="96" x2="96" y1="84.4883" y2="566.082"/><line style="stroke:#A80036;stroke-width:1.0;stroke-dasharray:5.0,5.0;" x1="263.5" x2="263.5" y1="84.4883" y2="566.082"/><line style="stroke:#A80036;stroke-width:1.0;stroke-dasharray:5.0,5.0;" x1="425.5" x2="425.5" y1="226.1641" y2="566.082"/><text fill="#000000" font-family="sans-serif" font-size="14" lengthAdjust="spacing" textLength="30" x="5" y="81.5352">user</text><ellipse cx="23" cy="15" fill="#FEFECE" rx="8" ry="8" style="stroke:#A80036;stroke-width:2.0;"/><path d="M23,23 L23,50 M10,31 L36,31 M23,50 L10,65 M23,50 L36,65 " fill="none" style="stroke:#A80036;stroke-width:2.0;"/><rect fill="#FFBF00" height="30.4883" style="stroke:#A80036;stroke-width:1.5;" width="90" x="51" y="53"/><text fill="#000000" font-family="sans-serif" font-size="14" lengthAdjust="spacing" textLength="76" x="58" y="73.5352">CLIverShelf</text><rect fill="#FFFF00" height="30.4883" style="stroke:#A80036;stroke-width:1.5;" width="61" x="233.5" y="53"/><text fill="#000000" font-family="sans-serif" font-size="14" lengthAdjust="spacing" textLength="47" x="240.5" y="73.5352">:Parser</text><rect fill="#FFFFFF" height="432.2832" style="stroke:#A80036;stroke-width:1.0;" width="10" x="91" y="115.7988"/><rect fill="#FFFFFF" height="111.7988" style="stroke:#A80036;stroke-width:1.0;" width="10" x="259" y="145.1094"/><rect fill="#FFFFFF" height="19" style="stroke:#A80036;stroke-width:1.0;" width="10" x="264" y="182.4199"/><rect fill="#FFFFFF" height="31.4883" style="stroke:#A80036;stroke-width:1.0;" width="10" x="421" y="211.4199"/><rect fill="#FFFFFF" height="247.8633" style="stroke:#A80036;stroke-width:1.0;" width="10" x="421" y="286.2188"/><rect fill="#FFFFFF" height="40.3105" style="stroke:#A80036;stroke-width:1.0;" width="10" x="426" y="347.8398"/><rect fill="#FFFFFF" height="40.3105" style="stroke:#A80036;stroke-width:1.0;" width="10" x="426" y="458.7715"/><polygon fill="#A80036" points="79,111.7988,89,115.7988,79,119.7988" style="stroke:#A80036;stroke-width:1.0;"/><line style="stroke:#A80036;stroke-width:1.0;" x1="23" x2="85" y1="115.7988" y2="115.7988"/><text fill="#000000" font-family="sans-serif" font-size="13" lengthAdjust="spacing" textLength="33" x="30" y="111.0566">input</text><polygon fill="#A80036" points="247,141.1094,257,145.1094,247,149.1094" style="stroke:#A80036;stroke-width:1.0;"/><line style="stroke:#A80036;stroke-width:1.0;" x1="101" x2="253" y1="145.1094" y2="145.1094"/><text fill="#000000" font-family="sans-serif" font-size="13" lengthAdjust="spacing" textLength="139" x="108" y="140.3672">parseCommand(input)</text><line style="stroke:#A80036;stroke-width:1.0;" x1="269" x2="316" y1="169.4199" y2="169.4199"/><line style="stroke:#A80036;stroke-width:1.0;" x1="316" x2="316" y1="169.4199" y2="182.4199"/><line style="stroke:#A80036;stroke-width:1.0;" x1="275" x2="316" y1="182.4199" y2="182.4199"/><polygon fill="#A80036" points="285,178.4199,275,182.4199,285,186.4199" style="stroke:#A80036;stroke-width:1.0;"/><text fill="#000000" font-family="sans-serif" font-size="13" lengthAdjust="spacing" textLength="138" x="281" y="164.6777">prepareList(argument)</text><polygon fill="#A80036" points="304.5,197.4199,314.5,201.4199,304.5,205.4199" style="stroke:#A80036;stroke-width:1.0;"/><line style="stroke:#A80036;stroke-width:1.0;" x1="269" x2="310.5" y1="201.4199" y2="201.4199"/><rect fill="#BFFF00" height="30.4883" style="stroke:#A80036;stroke-width:1.5;" width="219" x="316.5" y="195.4199"/><text fill="#000000" font-family="sans-serif" font-size="14" lengthAdjust="spacing" textLength="205" x="323.5" y="215.9551">:newCommand: ListCommand</text><polygon fill="#A80036" points="280,238.9082,270,242.9082,280,246.9082" style="stroke:#A80036;stroke-width:1.0;"/><line style="stroke:#A80036;stroke-width:1.0;stroke-dasharray:2.0,2.0;" x1="274" x2="425" y1="242.9082" y2="242.9082"/><polygon fill="#A80036" points="112,252.9082,102,256.9082,112,260.9082" style="stroke:#A80036;stroke-width:1.0;"/><line style="stroke:#A80036;stroke-width:1.0;stroke-dasharray:2.0,2.0;" x1="106" x2="263" y1="256.9082" y2="256.9082"/><polygon fill="#A80036" points="409,282.2188,419,286.2188,409,290.2188" style="stroke:#A80036;stroke-width:1.0;"/><line style="stroke:#A80036;stroke-width:1.0;" x1="101" x2="415" y1="286.2188" y2="286.2188"/><text fill="#000000" font-family="sans-serif" font-size="13" lengthAdjust="spacing" textLength="57" x="108" y="281.4766">execute()</text><path d="M296.5,301.2188 L358.5,301.2188 L358.5,308.2188 L348.5,318.2188 L296.5,318.2188 L296.5,301.2188 " fill="#EEEEEE" style="stroke:#000000;stroke-width:1.0;"/><rect fill="none" height="219.8633" style="stroke:#000000;stroke-width:2.0;" width="343.5" x="296.5" y="301.2188"/><text fill="#000000" font-family="sans-serif" font-size="13" font-weight="bold" lengthAdjust="spacing" textLength="17" x="311.5" y="314.7871">alt</text><text fill="#000000" font-family="sans-serif" font-size="11" font-weight="bold" lengthAdjust="spacing" textLength="54" x="373.5" y="313.8535">[!printAll]</text><line style="stroke:#A80036;stroke-width:1.0;" x1="431" x2="478" y1="334.8398" y2="334.8398"/><line style="stroke:#A80036;stroke-width:1.0;" x1="478" x2="478" y1="334.8398" y2="347.8398"/><line style="stroke:#A80036;stroke-width:1.0;" x1="437" x2="478" y1="347.8398" y2="347.8398"/><polygon fill="#A80036" points="447,343.8398,437,347.8398,447,351.8398" style="stroke:#A80036;stroke-width:1.0;"/><text fill="#000000" font-family="sans-serif" font-size="13" lengthAdjust="spacing" textLength="143" x="443" y="330.0977">getOneList(shelfName)</text><line style="stroke:#A80036;stroke-width:1.0;stroke-dasharray:2.0,2.0;" x1="436" x2="478" y1="387.1504" y2="387.1504"/><line style="stroke:#A80036;stroke-width:1.0;stroke-dasharray:2.0,2.0;" x1="478" x2="478" y1="387.1504" y2="400.1504"/><line style="stroke:#A80036;stroke-width:1.0;stroke-dasharray:2.0,2.0;" x1="431" x2="478" y1="400.1504" y2="400.1504"/><polygon fill="#A80036" points="441,396.1504,431,400.1504,441,404.1504" style="stroke:#A80036;stroke-width:1.0;"/><text fill="#000000" font-family="sans-serif" font-size="13" lengthAdjust="spacing" textLength="42" x="443" y="382.4082">output</text><line style="stroke:#000000;stroke-width:1.0;stroke-dasharray:2.0,2.0;" x1="296.5" x2="640" y1="404.1504" y2="404.1504"/><path d="M306.5,412.1504 L380.5,412.1504 L380.5,419.1504 L370.5,429.1504 L306.5,429.1504 L306.5,412.1504 " fill="#EEEEEE" style="stroke:#000000;stroke-width:1.0;"/><rect fill="none" height="101.9316" style="stroke:#000000;stroke-width:2.0;" width="323.5" x="306.5" y="412.1504"/><text fill="#000000" font-family="sans-serif" font-size="13" font-weight="bold" lengthAdjust="spacing" textLength="29" x="321.5" y="425.7188">loop</text><text fill="#000000" font-family="sans-serif" font-size="11" font-weight="bold" lengthAdjust="spacing" textLength="152" x="395.5" y="424.7852">[for every shelf in shelves]</text><line style="stroke:#A80036;stroke-width:1.0;" x1="431" x2="478" y1="445.7715" y2="445.7715"/><line style="stroke:#A80036;stroke-width:1.0;" x1="478" x2="478" y1="445.7715" y2="458.7715"/><line style="stroke:#A80036;stroke-width:1.0;" x1="437" x2="478" y1="458.7715" y2="458.7715"/><polygon fill="#A80036" points="447,454.7715,437,458.7715,447,462.7715" style="stroke:#A80036;stroke-width:1.0;"/><text fill="#000000" font-family="sans-serif" font-size="13" lengthAdjust="spacing" textLength="175" x="443" y="441.0293">getOneList(shelf.getName())</text><line style="stroke:#A80036;stroke-width:1.0;stroke-dasharray:2.0,2.0;" x1="436" x2="478" y1="498.082" y2="498.082"/><line style="stroke:#A80036;stroke-width:1.0;stroke-dasharray:2.0,2.0;" x1="478" x2="478" y1="498.082" y2="511.082"/><line style="stroke:#A80036;stroke-width:1.0;stroke-dasharray:2.0,2.0;" x1="431" x2="478" y1="511.082" y2="511.082"/><polygon fill="#A80036" points="441,507.082,431,511.082,441,515.082" style="stroke:#A80036;stroke-width:1.0;"/><text fill="#000000" font-family="sans-serif" font-size="13" lengthAdjust="spacing" textLength="42" x="443" y="493.3398">output</text><polygon fill="#A80036" points="112,530.082,102,534.082,112,538.082" style="stroke:#A80036;stroke-width:1.0;"/><line style="stroke:#A80036;stroke-width:1.0;stroke-dasharray:2.0,2.0;" x1="106" x2="425" y1="534.082" y2="534.082"/><line style="stroke:#A80036;stroke-width:2.0;" x1="417" x2="435" y1="525.082" y2="543.082"/><line style="stroke:#A80036;stroke-width:2.0;" x1="417" x2="435" y1="543.082" y2="525.082"/><polygon fill="#A80036" points="34,544.082,24,548.082,34,552.082" style="stroke:#A80036;stroke-width:1.0;"/><line style="stroke:#A80036;stroke-width:1.0;stroke-dasharray:2.0,2.0;" x1="28" x2="95" y1="548.082" y2="548.082"/><!--MD5=[6541759ebb57528dcb8309209ee71ebe]
@startuml
'https://plantuml.com/sequence-diagram
!include Style.puml

actor user
participant CLIverShelf as app LOGIC_COLOR
participant ":Parser" as parser LOGIC_COLOR_T1
participant ":newCommand: ListCommand" as listCommand LOGIC_COLOR_T2

user -> app: input
activate app
app -> parser: parseCommand(input)
activate parser
parser -> parser : prepareList(argument)
activate parser
parser -> listCommand **
deactivate parser
activate listCommand
listCommand - -> parser

deactivate listCommand
parser - -> app
deactivate parser

app -> listCommand: execute()


activate listCommand
alt !printAll
    listCommand -> listCommand : getOneList(shelfName)
    activate listCommand
    listCommand - -> listCommand : output
    deactivate listCommand
else
    loop for every shelf in shelves
        listCommand -> listCommand : getOneList(shelf.getName())
        activate listCommand
        listCommand - -> listCommand : output
        deactivate listCommand

    end

end

listCommand - -> app
deactivate listCommand
destroy listCommand
app - -> user
deactivate app

hide footbox
@enduml

@startuml
skinparam style strictuml
skinparam backgroundColor white
skinparam box white

actor user
participant CLIverShelf as app #ffbf00
participant ":Parser" as parser #ffff00
participant ":newCommand: ListCommand" as listCommand #bfff00

user -> app: input
activate app
app -> parser: parseCommand(input)
activate parser
parser -> parser : prepareList(argument)
activate parser
parser -> listCommand **
deactivate parser
activate listCommand
listCommand - -> parser

deactivate listCommand
parser - -> app
deactivate parser

app -> listCommand: execute()


activate listCommand
alt !printAll
    listCommand -> listCommand : getOneList(shelfName)
    activate listCommand
    listCommand - -> listCommand : output
    deactivate listCommand
else
    loop for every shelf in shelves
        listCommand -> listCommand : getOneList(shelf.getName())
        activate listCommand
        listCommand - -> listCommand : output
        deactivate listCommand

    end

end

listCommand - -> app
deactivate listCommand
destroy listCommand
app - -> user
deactivate app

hide footbox
@enduml

PlantUML version 1.2021.11(Sat Oct 02 21:26:11 SGT 2021)
(GPL source distribution)
Java Runtime: OpenJDK Runtime Environment
JVM: OpenJDK 64-Bit Server VM
Default Encoding: UTF-8
Language: en
Country: SG
--></g></svg>