<?xml version="1.0" encoding="UTF-8" standalone="no"?><svg xmlns="http://www.w3.org/2000/svg" xmlns:xlink="http://www.w3.org/1999/xlink" contentScriptType="application/ecmascript" contentStyleType="text/css" height="576px" preserveAspectRatio="none" style="width:469px;height:576px;background:#FFFFFF;" version="1.1" viewBox="0 0 469 576" width="469px" zoomAndPan="magnify"><defs/><g><rect fill="#FFFFFF" height="433.7031" style="stroke:#A80036;stroke-width:1.0;" width="10" x="89.5" y="117.9609"/><rect fill="#FFFFFF" height="389.3516" style="stroke:#A80036;stroke-width:1.0;" width="10" x="198.5" y="148.3125"/><rect fill="#FFFFFF" height="102.0547" style="stroke:#A80036;stroke-width:1.0;" width="10" x="203.5" y="212.0156"/><rect fill="#FFFFFF" height="102.0547" style="stroke:#A80036;stroke-width:1.0;" width="10" x="203.5" y="400.6094"/><rect fill="#FFFFFF" height="30.3516" style="stroke:#A80036;stroke-width:1.0;" width="10" x="384.5" y="247.3672"/><rect fill="#FFFFFF" height="30.3516" style="stroke:#A80036;stroke-width:1.0;" width="10" x="384.5" y="435.9609"/><rect fill="#FFFFFF" height="361.3516" style="stroke:#000000;stroke-width:2.0;" width="332.5" x="130" y="163.3125"/><rect fill="#FFFFFF" height="195.5938" style="stroke:none;stroke-width:1.0;" width="332.5" x="130" y="329.0703"/><rect fill="#FFFFFF" height="165.7578" style="stroke:#000000;stroke-width:2.0;" width="312.5" x="140" y="351.9063"/><line style="stroke:#A80036;stroke-width:1.0;stroke-dasharray:5.0,5.0;" x1="22" x2="22" y1="85.6094" y2="569.6641"/><line style="stroke:#A80036;stroke-width:1.0;stroke-dasharray:5.0,5.0;" x1="94" x2="94" y1="85.6094" y2="569.6641"/><line style="stroke:#A80036;stroke-width:1.0;stroke-dasharray:5.0,5.0;" x1="203" x2="203" y1="85.6094" y2="569.6641"/><line style="stroke:#A80036;stroke-width:1.0;stroke-dasharray:5.0,5.0;" x1="389.5" x2="389.5" y1="85.6094" y2="569.6641"/><text fill="#000000" font-family="sans-serif" font-size="14" lengthAdjust="spacing" textLength="28" x="5" y="82.5332">user</text><ellipse cx="22" cy="15" fill="#FEFECE" rx="8" ry="8" style="stroke:#A80036;stroke-width:2.0;"/><path d="M22,23 L22,50 M9,31 L35,31 M22,50 L9,65 M22,50 L35,65 " fill="none" style="stroke:#A80036;stroke-width:2.0;"/><rect fill="#FFBF00" height="31.6094" style="stroke:#A80036;stroke-width:1.5;" width="91" x="49" y="53"/><text fill="#000000" font-family="sans-serif" font-size="14" lengthAdjust="spacing" textLength="77" x="56" y="74.5332">:CLIverShelf</text><rect fill="#BFFF00" height="49.2188" style="stroke:#A80036;stroke-width:1.5;" width="107" x="150" y="35.3906"/><text fill="#000000" font-family="sans-serif" font-size="14" lengthAdjust="spacing" textLength="93" x="157" y="56.9238">newCommand:</text><text fill="#000000" font-family="sans-serif" font-size="14" lengthAdjust="spacing" textLength="86" x="160.5" y="74.5332">ListCommand</text><rect fill="#FEFECE" height="49.2188" style="stroke:#A80036;stroke-width:1.5;" width="106" x="336.5" y="35.3906"/><text fill="#000000" font-family="sans-serif" font-size="14" lengthAdjust="spacing" textLength="92" x="343.5" y="56.9238">specifiedShelf:</text><text fill="#000000" font-family="sans-serif" font-size="14" lengthAdjust="spacing" textLength="32" x="373.5" y="74.5332">Shelf</text><rect fill="#FFFFFF" height="433.7031" style="stroke:#A80036;stroke-width:1.0;" width="10" x="89.5" y="117.9609"/><rect fill="#FFFFFF" height="389.3516" style="stroke:#A80036;stroke-width:1.0;" width="10" x="198.5" y="148.3125"/><rect fill="#FFFFFF" height="102.0547" style="stroke:#A80036;stroke-width:1.0;" width="10" x="203.5" y="212.0156"/><rect fill="#FFFFFF" height="102.0547" style="stroke:#A80036;stroke-width:1.0;" width="10" x="203.5" y="400.6094"/><rect fill="#FFFFFF" height="30.3516" style="stroke:#A80036;stroke-width:1.0;" width="10" x="384.5" y="247.3672"/><rect fill="#FFFFFF" height="30.3516" style="stroke:#A80036;stroke-width:1.0;" width="10" x="384.5" y="435.9609"/><polygon fill="#A80036" points="77.5,113.9609,87.5,117.9609,77.5,121.9609" style="stroke:#A80036;stroke-width:1.0;"/><line style="stroke:#A80036;stroke-width:1.0;" x1="22" x2="83.5" y1="117.9609" y2="117.9609"/><text fill="#000000" font-family="sans-serif" font-size="13" lengthAdjust="spacing" textLength="28" x="29" y="113.1045">input</text><polygon fill="#A80036" points="186.5,144.3125,196.5,148.3125,186.5,152.3125" style="stroke:#A80036;stroke-width:1.0;"/><line style="stroke:#A80036;stroke-width:1.0;" x1="99.5" x2="192.5" y1="148.3125" y2="148.3125"/><text fill="#000000" font-family="sans-serif" font-size="13" lengthAdjust="spacing" textLength="54" x="106.5" y="143.4561">execute()</text><path d="M130,163.3125 L191,163.3125 L191,171.3125 L181,181.3125 L130,181.3125 L130,163.3125 " fill="#EEEEEE" style="stroke:#000000;stroke-width:1.0;"/><rect fill="none" height="361.3516" style="stroke:#000000;stroke-width:2.0;" width="332.5" x="130" y="163.3125"/><text fill="#000000" font-family="sans-serif" font-size="13" font-weight="bold" lengthAdjust="spacing" textLength="16" x="145" y="177.8076">alt</text><text fill="#000000" font-family="sans-serif" font-size="11" font-weight="bold" lengthAdjust="spacing" textLength="51" x="206" y="176.7314">[!printAll]</text><line style="stroke:#A80036;stroke-width:1.0;" x1="208.5" x2="255.5" y1="199.0156" y2="199.0156"/><line style="stroke:#A80036;stroke-width:1.0;" x1="255.5" x2="255.5" y1="199.0156" y2="212.0156"/><line style="stroke:#A80036;stroke-width:1.0;" x1="214.5" x2="255.5" y1="212.0156" y2="212.0156"/><polygon fill="#A80036" points="224.5,208.0156,214.5,212.0156,224.5,216.0156" style="stroke:#A80036;stroke-width:1.0;"/><text fill="#000000" font-family="sans-serif" font-size="13" lengthAdjust="spacing" textLength="132" x="220.5" y="194.1592">getOneList(shelfName)</text><polygon fill="#A80036" points="372.5,243.3672,382.5,247.3672,372.5,251.3672" style="stroke:#A80036;stroke-width:1.0;"/><line style="stroke:#A80036;stroke-width:1.0;" x1="213.5" x2="378.5" y1="247.3672" y2="247.3672"/><text fill="#000000" font-family="sans-serif" font-size="13" lengthAdjust="spacing" textLength="83" x="220.5" y="242.5107">createOutput()</text><polygon fill="#A80036" points="224.5,273.7188,214.5,277.7188,224.5,281.7188" style="stroke:#A80036;stroke-width:1.0;"/><line style="stroke:#A80036;stroke-width:1.0;stroke-dasharray:2.0,2.0;" x1="218.5" x2="388.5" y1="277.7188" y2="277.7188"/><text fill="#000000" font-family="sans-serif" font-size="13" lengthAdjust="spacing" textLength="47" x="230.5" y="272.8623">shelfInfo</text><line style="stroke:#A80036;stroke-width:1.0;stroke-dasharray:2.0,2.0;" x1="213.5" x2="255.5" y1="313.0703" y2="313.0703"/><line style="stroke:#A80036;stroke-width:1.0;stroke-dasharray:2.0,2.0;" x1="255.5" x2="255.5" y1="313.0703" y2="326.0703"/><line style="stroke:#A80036;stroke-width:1.0;stroke-dasharray:2.0,2.0;" x1="208.5" x2="255.5" y1="326.0703" y2="326.0703"/><polygon fill="#A80036" points="218.5,322.0703,208.5,326.0703,218.5,330.0703" style="stroke:#A80036;stroke-width:1.0;"/><text fill="#000000" font-family="sans-serif" font-size="13" lengthAdjust="spacing" textLength="36" x="220.5" y="308.2139">output</text><line style="stroke:#000000;stroke-width:1.0;stroke-dasharray:2.0,2.0;" x1="130" x2="462.5" y1="330.0703" y2="330.0703"/><text fill="#000000" font-family="sans-serif" font-size="11" font-weight="bold" lengthAdjust="spacing" textLength="48" x="135" y="341.4893">[printAll]</text><path d="M140,351.9063 L213,351.9063 L213,359.9063 L203,369.9063 L140,369.9063 L140,351.9063 " fill="#EEEEEE" style="stroke:#000000;stroke-width:1.0;"/><rect fill="none" height="165.7578" style="stroke:#000000;stroke-width:2.0;" width="312.5" x="140" y="351.9063"/><text fill="#000000" font-family="sans-serif" font-size="13" font-weight="bold" lengthAdjust="spacing" textLength="28" x="155" y="366.4014">loop</text><text fill="#000000" font-family="sans-serif" font-size="11" font-weight="bold" lengthAdjust="spacing" textLength="149" x="228" y="365.3252">[for every shelf in shelves]</text><line style="stroke:#A80036;stroke-width:1.0;" x1="208.5" x2="255.5" y1="387.6094" y2="387.6094"/><line style="stroke:#A80036;stroke-width:1.0;" x1="255.5" x2="255.5" y1="387.6094" y2="400.6094"/><line style="stroke:#A80036;stroke-width:1.0;" x1="214.5" x2="255.5" y1="400.6094" y2="400.6094"/><polygon fill="#A80036" points="224.5,396.6094,214.5,400.6094,224.5,404.6094" style="stroke:#A80036;stroke-width:1.0;"/><text fill="#000000" font-family="sans-serif" font-size="13" lengthAdjust="spacing" textLength="162" x="220.5" y="382.7529">getOneList(shelf.getName())</text><polygon fill="#A80036" points="372.5,431.9609,382.5,435.9609,372.5,439.9609" style="stroke:#A80036;stroke-width:1.0;"/><line style="stroke:#A80036;stroke-width:1.0;" x1="213.5" x2="378.5" y1="435.9609" y2="435.9609"/><text fill="#000000" font-family="sans-serif" font-size="13" lengthAdjust="spacing" textLength="83" x="220.5" y="431.1045">createOutput()</text><polygon fill="#A80036" points="224.5,462.3125,214.5,466.3125,224.5,470.3125" style="stroke:#A80036;stroke-width:1.0;"/><line style="stroke:#A80036;stroke-width:1.0;stroke-dasharray:2.0,2.0;" x1="218.5" x2="388.5" y1="466.3125" y2="466.3125"/><text fill="#000000" font-family="sans-serif" font-size="13" lengthAdjust="spacing" textLength="47" x="230.5" y="461.4561">shelfInfo</text><line style="stroke:#A80036;stroke-width:1.0;stroke-dasharray:2.0,2.0;" x1="213.5" x2="255.5" y1="501.6641" y2="501.6641"/><line style="stroke:#A80036;stroke-width:1.0;stroke-dasharray:2.0,2.0;" x1="255.5" x2="255.5" y1="501.6641" y2="514.6641"/><line style="stroke:#A80036;stroke-width:1.0;stroke-dasharray:2.0,2.0;" x1="208.5" x2="255.5" y1="514.6641" y2="514.6641"/><polygon fill="#A80036" points="218.5,510.6641,208.5,514.6641,218.5,518.6641" style="stroke:#A80036;stroke-width:1.0;"/><text fill="#000000" font-family="sans-serif" font-size="13" lengthAdjust="spacing" textLength="36" x="220.5" y="496.8076">output</text><polygon fill="#A80036" points="110.5,533.6641,100.5,537.6641,110.5,541.6641" style="stroke:#A80036;stroke-width:1.0;"/><line style="stroke:#A80036;stroke-width:1.0;stroke-dasharray:2.0,2.0;" x1="104.5" x2="202.5" y1="537.6641" y2="537.6641"/><line style="stroke:#A80036;stroke-width:2.0;" x1="194.5" x2="212.5" y1="528.6641" y2="546.6641"/><line style="stroke:#A80036;stroke-width:2.0;" x1="194.5" x2="212.5" y1="546.6641" y2="528.6641"/><polygon fill="#A80036" points="33,547.6641,23,551.6641,33,555.6641" style="stroke:#A80036;stroke-width:1.0;"/><line style="stroke:#A80036;stroke-width:1.0;stroke-dasharray:2.0,2.0;" x1="27" x2="93.5" y1="551.6641" y2="551.6641"/><!--MD5=[583b222f8baf33d1f56c47e8d3387ca8]
@startuml
'https://plantuml.com/sequence-diagram
!include Style.puml

actor user
participant ":CLIverShelf" as app LOGIC_COLOR
participant "newCommand:\nListCommand" as listCommand LOGIC_COLOR_T2
participant "specifiedShelf:\nShelf" as Shelf
user -> app: input
activate app


app -> listCommand: execute()


activate listCommand
alt !printAll
    listCommand -> listCommand : getOneList(shelfName)
    activate listCommand
    listCommand -> Shelf : createOutput()
    activate Shelf
    Shelf - -> listCommand : shelfInfo
    deactivate Shelf
    listCommand - -> listCommand :output
    deactivate listCommand


else printAll
    loop for every shelf in shelves
        listCommand -> listCommand : getOneList(shelf.getName())
        activate listCommand
        listCommand -> Shelf : createOutput()
        activate Shelf
        Shelf - -> listCommand : shelfInfo
        deactivate Shelf
        listCommand - -> listCommand : output
        deactivate listCommand
    end

end

listCommand - -> app
deactivate listCommand
destroy listCommand
app - -> user
deactivate app

hide footbox
@enduml

@startuml
skinparam style strictuml
skinparam backgroundColor white
skinparam box white
skinparam classAttributeIconSize 0

actor user
participant ":CLIverShelf" as app #ffbf00
participant "newCommand:\nListCommand" as listCommand #bfff00
participant "specifiedShelf:\nShelf" as Shelf
user -> app: input
activate app


app -> listCommand: execute()


activate listCommand
alt !printAll
    listCommand -> listCommand : getOneList(shelfName)
    activate listCommand
    listCommand -> Shelf : createOutput()
    activate Shelf
    Shelf - -> listCommand : shelfInfo
    deactivate Shelf
    listCommand - -> listCommand :output
    deactivate listCommand


else printAll
    loop for every shelf in shelves
        listCommand -> listCommand : getOneList(shelf.getName())
        activate listCommand
        listCommand -> Shelf : createOutput()
        activate Shelf
        Shelf - -> listCommand : shelfInfo
        deactivate Shelf
        listCommand - -> listCommand : output
        deactivate listCommand
    end

end

listCommand - -> app
deactivate listCommand
destroy listCommand
app - -> user
deactivate app

hide footbox
@enduml

PlantUML version 1.2021.11(Sat Oct 02 21:26:11 SGT 2021)
(GPL source distribution)
Java Runtime: OpenJDK Runtime Environment
JVM: OpenJDK 64-Bit Server VM
Default Encoding: Cp1252
Language: en
Country: US
--></g></svg>