<?xml version="1.0" encoding="UTF-8" standalone="no"?><svg xmlns="http://www.w3.org/2000/svg" xmlns:xlink="http://www.w3.org/1999/xlink" contentScriptType="application/ecmascript" contentStyleType="text/css" height="336px" preserveAspectRatio="none" style="width:1709px;height:336px;background:#FFFFFF;" version="1.1" viewBox="0 0 1709 336" width="1709px" zoomAndPan="magnify"><defs><filter height="300%" id="f4anf1lwjt9ii" width="300%" x="-1" y="-1"><feGaussianBlur result="blurOut" stdDeviation="2.0"/><feColorMatrix in="blurOut" result="blurOut2" type="matrix" values="0 0 0 0 0 0 0 0 0 0 0 0 0 0 0 0 0 0 .4 0"/><feOffset dx="4.0" dy="4.0" in="blurOut2" result="blurOut3"/><feBlend in="SourceGraphic" in2="blurOut3" mode="normal"/></filter></defs><g><!--MD5=[6ddbcb130bda8649a0495094cf420d43]
cluster Logic Component--><rect fill="#FFFFFF" filter="url(#f4anf1lwjt9ii)" height="269" style="stroke:#000000;stroke-width:1.5;" width="1690" x="7" y="55"/><text fill="#000000" font-family="sans-serif" font-size="14" font-weight="bold" lengthAdjust="spacing" textLength="123" x="790.5" y="73.0439">Logic Component</text><!--MD5=[a5c4d62ad43347332154fab560b1b84a]
cluster Non-sales related Commands--><rect fill="#FFFFFF" filter="url(#f4anf1lwjt9ii)" height="80" style="stroke:#000000;stroke-width:1.0;stroke-dasharray:7.0,7.0;" width="1222" x="31" y="141"/><text fill="#000000" font-family="sans-serif" font-size="14" font-weight="bold" lengthAdjust="spacing" textLength="205" x="539.5" y="159.0439">Non-sales related Commands</text><!--MD5=[4944dd12d465d5e969754a779036bbe2]
cluster Sales related Commands--><rect fill="#FFFFFF" filter="url(#f4anf1lwjt9ii)" height="80" style="stroke:#000000;stroke-width:1.0;stroke-dasharray:7.0,7.0;" width="396" x="1277" y="141"/><text fill="#000000" font-family="sans-serif" font-size="14" font-weight="bold" lengthAdjust="spacing" textLength="173" x="1388.5" y="159.0439">Sales related Commands</text><!--MD5=[628cc5a2753cca06eb1ffef55c386535]
class Parser--><rect codeLine="20" fill="#FEFECE" filter="url(#f4anf1lwjt9ii)" height="26.3887" id="Parser" style="stroke:#A80036;stroke-width:1.5;" width="43" x="795.5" y="93"/><text fill="#000000" font-family="sans-serif" font-size="12" lengthAdjust="spacing" textLength="37" x="798.5" y="111.752">Parser</text><!--MD5=[b6587b47cb08bf742060086bd1cd0b7e]
class Sales--><rect codeLine="28" fill="#FEFECE" filter="url(#f4anf1lwjt9ii)" height="26.3887" id="Sales" style="stroke:#A80036;stroke-width:1.5;" width="38" x="1454" y="273.5"/><text fill="#000000" font-family="sans-serif" font-size="12" lengthAdjust="spacing" textLength="32" x="1457" y="292.252">Sales</text><!--MD5=[e6280f8904688f60355da485760ab5a6]
class command--><rect codeLine="29" fill="#FEFECE" filter="url(#f4anf1lwjt9ii)" height="42.7773" id="command" style="stroke:#A80036;stroke-width:1.5;" width="68" x="903" y="265"/><text fill="#000000" font-family="sans-serif" font-size="12" font-style="italic" lengthAdjust="spacing" textLength="52" x="911" y="283.752">{abstract}</text><text fill="#000000" font-family="sans-serif" font-size="12" font-style="italic" lengthAdjust="spacing" textLength="59" x="909" y="300.1406">Command</text><!--MD5=[01ba6f98b685d1fe2cc392b52f140ec2]
class CreateShelfCommand--><rect codeLine="10" fill="#FEFECE" filter="url(#f4anf1lwjt9ii)" height="26.3887" id="CreateShelfCommand" style="stroke:#A80036;stroke-width:1.5;" width="130" x="343" y="179"/><text fill="#000000" font-family="sans-serif" font-size="12" lengthAdjust="spacing" textLength="124" x="346" y="197.752">CreateShelfCommand</text><!--MD5=[6e351dde7d50f569bee352123d192af3]
class RemoveShelfCommand--><rect codeLine="11" fill="#FEFECE" filter="url(#f4anf1lwjt9ii)" height="26.3887" id="RemoveShelfCommand" style="stroke:#A80036;stroke-width:1.5;" width="139" x="168.5" y="179"/><text fill="#000000" font-family="sans-serif" font-size="12" lengthAdjust="spacing" textLength="133" x="171.5" y="197.752">RemoveShelfCommand</text><!--MD5=[74ffcafef969057a048a931ccc96bb27]
class AddCommand--><rect codeLine="12" fill="#FEFECE" filter="url(#f4anf1lwjt9ii)" height="26.3887" id="AddCommand" style="stroke:#A80036;stroke-width:1.5;" width="86" x="47" y="179"/><text fill="#000000" font-family="sans-serif" font-size="12" lengthAdjust="spacing" textLength="80" x="50" y="197.752">AddCommand</text><!--MD5=[522bcce41d81f20cd1f9638a73c3e08a]
class DeleteCommand--><rect codeLine="13" fill="#FEFECE" filter="url(#f4anf1lwjt9ii)" height="26.3887" id="DeleteCommand" style="stroke:#A80036;stroke-width:1.5;" width="101" x="1135.5" y="179"/><text fill="#000000" font-family="sans-serif" font-size="12" lengthAdjust="spacing" textLength="95" x="1138.5" y="197.752">DeleteCommand</text><!--MD5=[babc7e0b8c8ea36d42dbd33de1315af9]
class EditCommand--><rect codeLine="14" fill="#FEFECE" filter="url(#f4anf1lwjt9ii)" height="26.3887" id="EditCommand" style="stroke:#A80036;stroke-width:1.5;" width="86" x="1014" y="179"/><text fill="#000000" font-family="sans-serif" font-size="12" lengthAdjust="spacing" textLength="80" x="1017" y="197.752">EditCommand</text><!--MD5=[01a293c3a0e3b6775450a54cdca956c5]
class GetCommand--><rect codeLine="15" fill="#FEFECE" filter="url(#f4anf1lwjt9ii)" height="26.3887" id="GetCommand" style="stroke:#A80036;stroke-width:1.5;" width="84" x="895" y="179"/><text fill="#000000" font-family="sans-serif" font-size="12" lengthAdjust="spacing" textLength="78" x="898" y="197.752">GetCommand</text><!--MD5=[93d215428fe434de70eb2509d954b1e5]
class ListCommand--><rect codeLine="16" fill="#FEFECE" filter="url(#f4anf1lwjt9ii)" height="26.3887" id="ListCommand" style="stroke:#A80036;stroke-width:1.5;" width="85" x="774.5" y="179"/><text fill="#000000" font-family="sans-serif" font-size="12" lengthAdjust="spacing" textLength="79" x="777.5" y="197.752">ListCommand</text><!--MD5=[6af536f0137110c462023bd8f7f1c95d]
class SearchCommand--><rect codeLine="17" fill="#FEFECE" filter="url(#f4anf1lwjt9ii)" height="26.3887" id="SearchCommand" style="stroke:#A80036;stroke-width:1.5;" width="104" x="635" y="179"/><text fill="#000000" font-family="sans-serif" font-size="12" lengthAdjust="spacing" textLength="98" x="638" y="197.752">SearchCommand</text><!--MD5=[2da30295f32c4049cb863910634fa3f4]
class HelpCommand--><rect codeLine="18" fill="#FEFECE" filter="url(#f4anf1lwjt9ii)" height="26.3887" id="HelpCommand" style="stroke:#A80036;stroke-width:1.5;" width="91" x="508.5" y="179"/><text fill="#000000" font-family="sans-serif" font-size="12" lengthAdjust="spacing" textLength="85" x="511.5" y="197.752">HelpCommand</text><!--MD5=[114918039f41c3fe658f8cf1cba4717d]
class SellCommand--><rect codeLine="23" fill="#FEFECE" filter="url(#f4anf1lwjt9ii)" height="26.3887" id="SellCommand" style="stroke:#A80036;stroke-width:1.5;" width="86" x="1430" y="179"/><text fill="#000000" font-family="sans-serif" font-size="12" lengthAdjust="spacing" textLength="80" x="1433" y="197.752">SellCommand</text><!--MD5=[f97d9cdbbad848d6467e4cf8becab05b]
class ReportCommand--><rect codeLine="24" fill="#FEFECE" filter="url(#f4anf1lwjt9ii)" height="26.3887" id="ReportCommand" style="stroke:#A80036;stroke-width:1.5;" width="102" x="1293" y="179"/><text fill="#000000" font-family="sans-serif" font-size="12" lengthAdjust="spacing" textLength="96" x="1296" y="197.752">ReportCommand</text><!--MD5=[bc26ea9ee85864750347985f4057cbbc]
class MarkupCommand--><rect codeLine="25" fill="#FEFECE" filter="url(#f4anf1lwjt9ii)" height="26.3887" id="MarkupCommand" style="stroke:#A80036;stroke-width:1.5;" width="105" x="1551.5" y="179"/><text fill="#000000" font-family="sans-serif" font-size="12" lengthAdjust="spacing" textLength="99" x="1554.5" y="197.752">MarkupCommand</text><!--MD5=[cbbc2731b9f44e58649810226c96c33b]
class CliverShelf--><rect codeLine="6" fill="#FEFECE" filter="url(#f4anf1lwjt9ii)" height="26.3887" id="CliverShelf" style="stroke:#A80036;stroke-width:1.5;" width="65" x="784.5" y="7"/><text fill="#000000" font-family="sans-serif" font-size="12" lengthAdjust="spacing" textLength="59" x="787.5" y="25.752">CliverShelf</text><!--MD5=[17c2f23369cb68ba72dd4fbf93dc9785]
link CliverShelf to Parser--><path codeLine="33" d="M817,33.04 C817,47.38 817,71.46 817,87.78 " fill="none" id="CliverShelf-to-Parser" style="stroke:#A80036;stroke-width:1.0;"/><polygon fill="#A80036" points="817,92.99,821,83.99,817,87.99,813,83.99,817,92.99" style="stroke:#A80036;stroke-width:1.0;"/><text fill="#000000" font-family="sans-serif" font-size="13" lengthAdjust="spacing" textLength="43" x="765.8031" y="56.2198">creates</text><text fill="#000000" font-family="sans-serif" font-size="13" lengthAdjust="spacing" textLength="7" x="808.5563" y="82.0905">1</text><!--MD5=[fc43850550c96713f63d53a7e63d8f5c]
link Parser to CreateShelfCommand--><path codeLine="35" d="M795.1,107.26 C731.41,108.24 547.24,112.8 491,133 C465.22,142.26 440.08,161.73 424.35,175.55 " fill="none" id="Parser-to-CreateShelfCommand" style="stroke:#A80036;stroke-width:1.0;"/><polygon fill="#A80036" points="420.55,178.94,429.9277,175.9303,424.2799,175.6102,424.6001,169.9624,420.55,178.94" style="stroke:#A80036;stroke-width:1.0;"/><!--MD5=[a74fc5ac21347153332445763b0f7259]
link Parser to RemoveShelfCommand--><path codeLine="36" d="M795.33,106.65 C712.35,105.54 414.99,103.72 326,133 C298.92,141.91 272.21,161.46 255.45,175.39 " fill="none" id="Parser-to-RemoveShelfCommand" style="stroke:#A80036;stroke-width:1.0;"/><polygon fill="#A80036" points="251.4,178.81,260.8648,176.0866,255.2294,175.595,255.7209,169.9596,251.4,178.81" style="stroke:#A80036;stroke-width:1.0;"/><!--MD5=[c799bb39aa916aa4ae33e0b444948701]
link Parser to AddCommand--><path codeLine="37" d="M795.27,106.94 C687.31,106.77 211.43,107.48 151,133 C130.5,141.66 112.81,160.53 101.84,174.41 " fill="none" id="Parser-to-AddCommand" style="stroke:#A80036;stroke-width:1.0;"/><polygon fill="#A80036" points="98.65,178.54,107.3177,173.8633,101.7068,174.5833,100.9869,168.9724,98.65,178.54" style="stroke:#A80036;stroke-width:1.0;"/><!--MD5=[077ca4136064215266ad179e6d58930e]
link Parser to DeleteCommand--><path codeLine="38" d="M838.6,107.17 C898.81,107.9 1067.43,111.85 1118,133 C1139.98,142.2 1160.06,161.23 1172.61,174.99 " fill="none" id="Parser-to-DeleteCommand" style="stroke:#A80036;stroke-width:1.0;"/><polygon fill="#A80036" points="1175.94,178.72,1172.8925,169.3545,1172.5952,175.0035,1166.9461,174.7062,1175.94,178.72" style="stroke:#A80036;stroke-width:1.0;"/><!--MD5=[a36a19772482d2b9c7a226847958bb2e]
link Parser to EditCommand--><path codeLine="39" d="M838.72,108.46 C880.31,111.54 969.5,119.51 997,133 C1016.8,142.71 1034.27,161.39 1045.18,174.93 " fill="none" id="Parser-to-EditCommand" style="stroke:#A80036;stroke-width:1.0;"/><polygon fill="#A80036" points="1048.35,178.95,1045.915,169.4069,1045.2527,175.0249,1039.6348,174.3626,1048.35,178.95" style="stroke:#A80036;stroke-width:1.0;"/><!--MD5=[2e03998de0ba66ef7fad0b2e4251d2c6]
link Parser to GetCommand--><path codeLine="40" d="M838.78,114.27 C850.62,118.74 865.2,125.12 877,133 C894.69,144.81 911.82,162.15 923.22,174.79 " fill="none" id="Parser-to-GetCommand" style="stroke:#A80036;stroke-width:1.0;"/><polygon fill="#A80036" points="926.57,178.55,923.5804,169.1659,923.2482,174.813,917.6011,174.4808,926.57,178.55" style="stroke:#A80036;stroke-width:1.0;"/><!--MD5=[2d1d1703c4b1347121f3cbe4e55afb78]
link Parser to ListCommand--><path codeLine="41" d="M817,119.04 C817,133.38 817,157.46 817,173.78 " fill="none" id="Parser-to-ListCommand" style="stroke:#A80036;stroke-width:1.0;"/><polygon fill="#A80036" points="817,178.99,821,169.99,817,173.99,813,169.99,817,178.99" style="stroke:#A80036;stroke-width:1.0;"/><!--MD5=[37c79abc24979a5d4d85dd92a3ed1e62]
link Parser to SearchCommand--><path codeLine="42" d="M795.45,114.63 C783.68,119.2 769.09,125.58 757,133 C737.25,145.12 717.13,162.41 703.56,174.96 " fill="none" id="Parser-to-SearchCommand" style="stroke:#A80036;stroke-width:1.0;"/><polygon fill="#A80036" points="699.57,178.69,708.8783,175.4721,703.2248,175.2779,703.419,169.6244,699.57,178.69" style="stroke:#A80036;stroke-width:1.0;"/><!--MD5=[4c2ddd603862042ae5724dfca22df36f]
link Parser to ReportCommand--><path codeLine="44" d="M838.56,106.86 C915.28,106.59 1174.65,107.6 1253,133 C1280.77,142 1308.44,161.53 1325.85,175.44 " fill="none" id="Parser-to-ReportCommand" style="stroke:#A80036;stroke-width:1.0;"/><polygon fill="#A80036" points="1330.05,178.84,1325.5873,170.0602,1326.1694,175.687,1320.5426,176.2691,1330.05,178.84" style="stroke:#A80036;stroke-width:1.0;"/><!--MD5=[0d89c02a364a21586ed50b2f7b7044f1]
link Parser to MarkupCommand--><path codeLine="45" d="M838.85,106.96 C951.89,106.85 1467.73,107.75 1534,133 C1556.92,141.73 1577.8,161.23 1590.68,175.21 " fill="none" id="Parser-to-MarkupCommand" style="stroke:#A80036;stroke-width:1.0;"/><polygon fill="#A80036" points="1594.1,179,1591.0326,169.641,1590.7473,175.2906,1585.0976,175.0053,1594.1,179" style="stroke:#A80036;stroke-width:1.0;"/><!--MD5=[ea1e015a8ea8a13a697a051d384f9491]
link Parser to HelpCommand--><path codeLine="46" d="M795.47,108.19 C750.72,110.93 649.23,118.56 618,133 C597.28,142.58 578.57,161.28 566.8,174.86 " fill="none" id="Parser-to-HelpCommand" style="stroke:#A80036;stroke-width:1.0;"/><polygon fill="#A80036" points="563.38,178.9,572.2571,174.6341,566.6187,175.0907,566.1621,169.4523,563.38,178.9" style="stroke:#A80036;stroke-width:1.0;"/><!--MD5=[a5ee4330a899a9afdd857a1175418802]
link CreateShelfCommand to command--><path codeLine="50" d="M430.97,205.07 C447.28,213.11 469.94,223.23 491,229 C628.79,266.78 797.58,279.42 882.58,283.56 " fill="none" id="CreateShelfCommand-to-command" style="stroke:#A80036;stroke-width:1.0;"/><polygon fill="none" points="883.12,276.57,902.79,284.45,882.5,290.56,883.12,276.57" style="stroke:#A80036;stroke-width:1.0;"/><!--MD5=[5e2e6d35dda1758436c202e138248e0c]
link RemoveShelfCommand to command--><path codeLine="51" d="M262,205.09 C279.34,213.25 303.55,223.5 326,229 C527.1,278.27 775.03,285.29 882.77,285.82 " fill="none" id="RemoveShelfCommand-to-command" style="stroke:#A80036;stroke-width:1.0;"/><polygon fill="none" points="882.98,278.82,902.98,285.85,882.97,292.82,882.98,278.82" style="stroke:#A80036;stroke-width:1.0;"/><!--MD5=[b0b35b96af89c01bb45a93421b25474c]
link AddCommand to command--><path codeLine="52" d="M105.85,205.14 C117.62,213.44 134.45,223.84 151,229 C287.91,271.72 727.78,282.36 882.53,284.82 " fill="none" id="AddCommand-to-command" style="stroke:#A80036;stroke-width:1.0;"/><polygon fill="none" points="882.92,277.82,902.81,285.12,882.71,291.82,882.92,277.82" style="stroke:#A80036;stroke-width:1.0;"/><!--MD5=[7a2a3c56016e4d389fb2716a87b4c6c7]
link DeleteCommand to command--><path codeLine="53" d="M1165.65,205.05 C1152.38,212.58 1134.52,222.12 1118,229 C1076.15,246.44 1026.93,261.47 990.4,271.63 " fill="none" id="DeleteCommand-to-command" style="stroke:#A80036;stroke-width:1.0;"/><polygon fill="none" points="992.15,278.41,971.02,276.9,988.48,264.9,992.15,278.41" style="stroke:#A80036;stroke-width:1.0;"/><!--MD5=[0804c3fc7bd4d0c06bc806ea812366e2]
link EditCommand to command--><path codeLine="54" d="M1041.31,205.09 C1025.7,217.13 1001.03,236.14 979.6,252.66 " fill="none" id="EditCommand-to-command" style="stroke:#A80036;stroke-width:1.0;"/><polygon fill="none" points="983.82,258.25,963.7,264.92,975.27,247.16,983.82,258.25" style="stroke:#A80036;stroke-width:1.0;"/><!--MD5=[673534671d750ac83530bdc28ce5d2a9]
link GetCommand to command--><path codeLine="55" d="M937,205.09 C937,215.23 937,230.32 937,244.7 " fill="none" id="GetCommand-to-command" style="stroke:#A80036;stroke-width:1.0;"/><polygon fill="none" points="944,244.92,937,264.92,930,244.92,944,244.92" style="stroke:#A80036;stroke-width:1.0;"/><!--MD5=[e1499f449148cd63176eca2ca22439b2]
link ListCommand to command--><path codeLine="56" d="M832.69,205.09 C848.3,217.13 872.97,236.14 894.4,252.66 " fill="none" id="ListCommand-to-command" style="stroke:#A80036;stroke-width:1.0;"/><polygon fill="none" points="898.73,247.16,910.3,264.92,890.18,258.25,898.73,247.16" style="stroke:#A80036;stroke-width:1.0;"/><!--MD5=[3c83c3e9e563e0ddfaf56f39836e41a6]
link SearchCommand to command--><path codeLine="57" d="M708.31,205.17 C721.95,212.65 740.19,222.1 757,229 C798.51,246.04 847.14,261.02 883.38,271.27 " fill="none" id="SearchCommand-to-command" style="stroke:#A80036;stroke-width:1.0;"/><polygon fill="none" points="885.48,264.59,902.88,276.67,881.74,278.08,885.48,264.59" style="stroke:#A80036;stroke-width:1.0;"/><!--MD5=[50f1b8d3c6ea24b41c7f614478e3e217]
link SellCommand to command--><path codeLine="59" d="M1457.12,205.09 C1445.53,213.25 1429.09,223.5 1413,229 C1266.44,279.08 1081.39,286.21 991.28,286.36 " fill="none" id="SellCommand-to-command" style="stroke:#A80036;stroke-width:1.0;"/><polygon fill="none" points="991.23,293.36,971.26,286.28,991.28,279.36,991.23,293.36" style="stroke:#A80036;stroke-width:1.0;"/><!--MD5=[3bf96aba2d2b2665118dab567b263e8c]
link SellCommand to Sales--><path codeLine="60" d="M1473,205.09 C1473,221.16 1473,249.65 1473,268.04 " fill="none" id="SellCommand-to-Sales" style="stroke:#A80036;stroke-width:1.0;"/><polygon fill="#A80036" points="1473,273.4,1477,264.4,1473,268.4,1469,264.4,1473,273.4" style="stroke:#A80036;stroke-width:1.0;"/><!--MD5=[3c83a777bd4e0773c3f99fa981d72d61]
link ReportCommand to command--><path codeLine="61" d="M1317.41,205.15 C1299.52,212.92 1275.23,222.69 1253,229 C1162.89,254.6 1054.87,270.94 991.32,279.15 " fill="none" id="ReportCommand-to-command" style="stroke:#A80036;stroke-width:1.0;"/><polygon fill="none" points="991.89,286.13,971.18,281.66,990.15,272.24,991.89,286.13" style="stroke:#A80036;stroke-width:1.0;"/><!--MD5=[084e6c117ab0d05395e002e6961250c2]
link ReportCommand to Sales--><path codeLine="62" d="M1360.86,205.09 C1384.24,221.85 1426.46,252.13 1451.89,270.36 " fill="none" id="ReportCommand-to-Sales" style="stroke:#A80036;stroke-width:1.0;"/><polygon fill="#A80036" points="1456.13,273.4,1451.1539,264.9007,1452.0691,270.483,1446.4867,271.3981,1456.13,273.4" style="stroke:#A80036;stroke-width:1.0;"/><!--MD5=[c229ad9f7b476dc3d512b72d8fdecacf]
link MarkupCommand to command--><path codeLine="63" d="M1585.22,205.17 C1571.58,213.36 1552.36,223.63 1534,229 C1432.93,258.58 1118.8,276.69 991.45,282.99 " fill="none" id="MarkupCommand-to-command" style="stroke:#A80036;stroke-width:1.0;"/><polygon fill="none" points="991.62,289.99,971.3,283.96,990.94,276,991.62,289.99" style="stroke:#A80036;stroke-width:1.0;"/><!--MD5=[947e493598ba90b0a43369ceeadc0555]
link MarkupCommand to Sales--><path codeLine="64" d="M1586.87,205.09 C1563.14,221.85 1520.26,252.13 1494.43,270.36 " fill="none" id="MarkupCommand-to-Sales" style="stroke:#A80036;stroke-width:1.0;"/><polygon fill="#A80036" points="1490.13,273.4,1499.7934,271.4976,1494.2208,270.525,1495.1934,264.9524,1490.13,273.4" style="stroke:#A80036;stroke-width:1.0;"/><!--MD5=[9fc45c4dd96eb7ef3ac4894d448470ce]
@startuml
'https://plantuml.com/class-diagram
hide circle
skinparam classAttributeIconSize 0
hide empty members

class CliverShelf

package "Logic Component" <<Rectangle>> {
    package "Non-sales related Commands" <<Rectangle>> #line.dashed{
        class CreateShelfCommand
        class RemoveShelfCommand
        class AddCommand
        class DeleteCommand
        class EditCommand
        class GetCommand
        class ListCommand
        class SearchCommand
        class HelpCommand
    }
    class Parser

    package "Sales related Commands" <<Rectangle>> #line.dashed{
        class SellCommand
        class ReportCommand
        class MarkupCommand
    }

    class Sales
    abstract class "{abstract}\n Command" as command

}

CliverShelf "creates"- -> "1" Parser

Parser - -> CreateShelfCommand
Parser - -> RemoveShelfCommand
Parser - -> AddCommand
Parser - -> DeleteCommand
Parser - -> EditCommand
Parser - -> GetCommand
Parser - -> ListCommand
Parser - -> SearchCommand

Parser - -> ReportCommand
Parser - -> MarkupCommand
Parser - -> HelpCommand



CreateShelfCommand - -|> command
RemoveShelfCommand - -|> command
AddCommand - -|> command
DeleteCommand - -|> command
EditCommand - -|> command
GetCommand - -|> command
ListCommand - -|> command
SearchCommand - -|> command

SellCommand - -|> command
SellCommand - -> Sales
ReportCommand - -|> command
ReportCommand - -> Sales
MarkupCommand - -|> command
MarkupCommand - -> Sales
@enduml

@startuml
hide circle
skinparam classAttributeIconSize 0
hide empty members

class CliverShelf

package "Logic Component" <<Rectangle>> {
    package "Non-sales related Commands" <<Rectangle>> #line.dashed{
        class CreateShelfCommand
        class RemoveShelfCommand
        class AddCommand
        class DeleteCommand
        class EditCommand
        class GetCommand
        class ListCommand
        class SearchCommand
        class HelpCommand
    }
    class Parser

    package "Sales related Commands" <<Rectangle>> #line.dashed{
        class SellCommand
        class ReportCommand
        class MarkupCommand
    }

    class Sales
    abstract class "{abstract}\n Command" as command

}

CliverShelf "creates"- -> "1" Parser

Parser - -> CreateShelfCommand
Parser - -> RemoveShelfCommand
Parser - -> AddCommand
Parser - -> DeleteCommand
Parser - -> EditCommand
Parser - -> GetCommand
Parser - -> ListCommand
Parser - -> SearchCommand

Parser - -> ReportCommand
Parser - -> MarkupCommand
Parser - -> HelpCommand



CreateShelfCommand - -|> command
RemoveShelfCommand - -|> command
AddCommand - -|> command
DeleteCommand - -|> command
EditCommand - -|> command
GetCommand - -|> command
ListCommand - -|> command
SearchCommand - -|> command

SellCommand - -|> command
SellCommand - -> Sales
ReportCommand - -|> command
ReportCommand - -> Sales
MarkupCommand - -|> command
MarkupCommand - -> Sales
@enduml

PlantUML version 1.2021.11(Sat Oct 02 21:26:11 CST 2021)
(GPL source distribution)
Java Runtime: OpenJDK Runtime Environment
JVM: OpenJDK 64-Bit Server VM
Default Encoding: GBK
Language: zh
Country: CN
--></g></svg>