<?xml version="1.0" encoding="UTF-8" standalone="no"?><svg xmlns="http://www.w3.org/2000/svg" xmlns:xlink="http://www.w3.org/1999/xlink" contentScriptType="application/ecmascript" contentStyleType="text/css" height="336px" preserveAspectRatio="none" style="width:1828px;height:336px;background:#FFFFFF;" version="1.1" viewBox="0 0 1828 336" width="1828px" zoomAndPan="magnify"><defs><filter height="300%" id="fa41963uaq0v" width="300%" x="-1" y="-1"><feGaussianBlur result="blurOut" stdDeviation="2.0"/><feColorMatrix in="blurOut" result="blurOut2" type="matrix" values="0 0 0 0 0 0 0 0 0 0 0 0 0 0 0 0 0 0 .4 0"/><feOffset dx="4.0" dy="4.0" in="blurOut2" result="blurOut3"/><feBlend in="SourceGraphic" in2="blurOut3" mode="normal"/></filter></defs><g><!--MD5=[6ddbcb130bda8649a0495094cf420d43]
cluster Logic Component--><rect fill="#FFFFFF" filter="url(#fa41963uaq0v)" height="269" style="stroke:#000000;stroke-width:1.5;" width="1809" x="7" y="55"/><text fill="#000000" font-family="sans-serif" font-size="14" font-weight="bold" lengthAdjust="spacing" textLength="123" x="850" y="73.0439">Logic Component</text><!--MD5=[a5c4d62ad43347332154fab560b1b84a]
cluster Non-sales related Commands--><rect fill="#FFFFFF" filter="url(#fa41963uaq0v)" height="80" style="stroke:#000000;stroke-width:1.0;stroke-dasharray:7.0,7.0;" width="1341" x="31" y="141"/><text fill="#000000" font-family="sans-serif" font-size="14" font-weight="bold" lengthAdjust="spacing" textLength="205" x="599" y="159.0439">Non-sales related Commands</text><!--MD5=[4944dd12d465d5e969754a779036bbe2]
cluster Sales related Commands--><rect fill="#FFFFFF" filter="url(#fa41963uaq0v)" height="80" style="stroke:#000000;stroke-width:1.0;stroke-dasharray:7.0,7.0;" width="396" x="1396" y="141"/><text fill="#000000" font-family="sans-serif" font-size="14" font-weight="bold" lengthAdjust="spacing" textLength="173" x="1507.5" y="159.0439">Sales related Commands</text><!--MD5=[628cc5a2753cca06eb1ffef55c386535]
class Parser--><rect codeLine="21" fill="#FEFECE" filter="url(#fa41963uaq0v)" height="26.3887" id="Parser" style="stroke:#A80036;stroke-width:1.5;" width="43" x="812.5" y="93"/><text fill="#000000" font-family="sans-serif" font-size="12" lengthAdjust="spacing" textLength="37" x="815.5" y="111.752">Parser</text><!--MD5=[b6587b47cb08bf742060086bd1cd0b7e]
class Sales--><rect codeLine="29" fill="#FEFECE" filter="url(#fa41963uaq0v)" height="26.3887" id="Sales" style="stroke:#A80036;stroke-width:1.5;" width="38" x="1573" y="273.5"/><text fill="#000000" font-family="sans-serif" font-size="12" lengthAdjust="spacing" textLength="32" x="1576" y="292.252">Sales</text><!--MD5=[e6280f8904688f60355da485760ab5a6]
class command--><rect codeLine="31" fill="#FEFECE" filter="url(#fa41963uaq0v)" height="42.7773" id="command" style="stroke:#A80036;stroke-width:1.5;" width="68" x="941" y="265"/><text fill="#000000" font-family="sans-serif" font-size="12" font-style="italic" lengthAdjust="spacing" textLength="52" x="949" y="283.752">{abstract}</text><text fill="#000000" font-family="sans-serif" font-size="12" font-style="italic" lengthAdjust="spacing" textLength="59" x="947" y="300.1406">Command</text><!--MD5=[01ba6f98b685d1fe2cc392b52f140ec2]
class CreateShelfCommand--><rect codeLine="10" fill="#FEFECE" filter="url(#fa41963uaq0v)" height="26.3887" id="CreateShelfCommand" style="stroke:#A80036;stroke-width:1.5;" width="130" x="986" y="179"/><text fill="#000000" font-family="sans-serif" font-size="12" lengthAdjust="spacing" textLength="124" x="989" y="197.752">CreateShelfCommand</text><!--MD5=[6e351dde7d50f569bee352123d192af3]
class RemoveShelfCommand--><rect codeLine="11" fill="#FEFECE" filter="url(#fa41963uaq0v)" height="26.3887" id="RemoveShelfCommand" style="stroke:#A80036;stroke-width:1.5;" width="139" x="305.5" y="179"/><text fill="#000000" font-family="sans-serif" font-size="12" lengthAdjust="spacing" textLength="133" x="308.5" y="197.752">RemoveShelfCommand</text><!--MD5=[74ffcafef969057a048a931ccc96bb27]
class AddCommand--><rect codeLine="12" fill="#FEFECE" filter="url(#fa41963uaq0v)" height="26.3887" id="AddCommand" style="stroke:#A80036;stroke-width:1.5;" width="86" x="184" y="179"/><text fill="#000000" font-family="sans-serif" font-size="12" lengthAdjust="spacing" textLength="80" x="187" y="197.752">AddCommand</text><!--MD5=[522bcce41d81f20cd1f9638a73c3e08a]
class DeleteCommand--><rect codeLine="13" fill="#FEFECE" filter="url(#fa41963uaq0v)" height="26.3887" id="DeleteCommand" style="stroke:#A80036;stroke-width:1.5;" width="101" x="47.5" y="179"/><text fill="#000000" font-family="sans-serif" font-size="12" lengthAdjust="spacing" textLength="95" x="50.5" y="197.752">DeleteCommand</text><!--MD5=[babc7e0b8c8ea36d42dbd33de1315af9]
class EditCommand--><rect codeLine="14" fill="#FEFECE" filter="url(#fa41963uaq0v)" height="26.3887" id="EditCommand" style="stroke:#A80036;stroke-width:1.5;" width="86" x="480" y="179"/><text fill="#000000" font-family="sans-serif" font-size="12" lengthAdjust="spacing" textLength="80" x="483" y="197.752">EditCommand</text><!--MD5=[01a293c3a0e3b6775450a54cdca956c5]
class GetCommand--><rect codeLine="15" fill="#FEFECE" filter="url(#fa41963uaq0v)" height="26.3887" id="GetCommand" style="stroke:#A80036;stroke-width:1.5;" width="84" x="1272" y="179"/><text fill="#000000" font-family="sans-serif" font-size="12" lengthAdjust="spacing" textLength="78" x="1275" y="197.752">GetCommand</text><!--MD5=[93d215428fe434de70eb2509d954b1e5]
class ListCommand--><rect codeLine="16" fill="#FEFECE" filter="url(#fa41963uaq0v)" height="26.3887" id="ListCommand" style="stroke:#A80036;stroke-width:1.5;" width="85" x="1151.5" y="179"/><text fill="#000000" font-family="sans-serif" font-size="12" lengthAdjust="spacing" textLength="79" x="1154.5" y="197.752">ListCommand</text><!--MD5=[6af536f0137110c462023bd8f7f1c95d]
class SearchCommand--><rect codeLine="17" fill="#FEFECE" filter="url(#fa41963uaq0v)" height="26.3887" id="SearchCommand" style="stroke:#A80036;stroke-width:1.5;" width="104" x="847" y="179"/><text fill="#000000" font-family="sans-serif" font-size="12" lengthAdjust="spacing" textLength="98" x="850" y="197.752">SearchCommand</text><!--MD5=[e40388dd56f3eba72af3e3cbb6f3c87a]
class ExitCommand--><rect codeLine="18" fill="#FEFECE" filter="url(#fa41963uaq0v)" height="26.3887" id="ExitCommand" style="stroke:#A80036;stroke-width:1.5;" width="84" x="728" y="179"/><text fill="#000000" font-family="sans-serif" font-size="12" lengthAdjust="spacing" textLength="78" x="731" y="197.752">ExitCommand</text><!--MD5=[2da30295f32c4049cb863910634fa3f4]
class HelpCommand--><rect codeLine="19" fill="#FEFECE" filter="url(#fa41963uaq0v)" height="26.3887" id="HelpCommand" style="stroke:#A80036;stroke-width:1.5;" width="91" x="601.5" y="179"/><text fill="#000000" font-family="sans-serif" font-size="12" lengthAdjust="spacing" textLength="85" x="604.5" y="197.752">HelpCommand</text><!--MD5=[114918039f41c3fe658f8cf1cba4717d]
class SellCommand--><rect codeLine="24" fill="#FEFECE" filter="url(#fa41963uaq0v)" height="26.3887" id="SellCommand" style="stroke:#A80036;stroke-width:1.5;" width="86" x="1549" y="179"/><text fill="#000000" font-family="sans-serif" font-size="12" lengthAdjust="spacing" textLength="80" x="1552" y="197.752">SellCommand</text><!--MD5=[f97d9cdbbad848d6467e4cf8becab05b]
class ReportCommand--><rect codeLine="25" fill="#FEFECE" filter="url(#fa41963uaq0v)" height="26.3887" id="ReportCommand" style="stroke:#A80036;stroke-width:1.5;" width="102" x="1412" y="179"/><text fill="#000000" font-family="sans-serif" font-size="12" lengthAdjust="spacing" textLength="96" x="1415" y="197.752">ReportCommand</text><!--MD5=[bc26ea9ee85864750347985f4057cbbc]
class MarkupCommand--><rect codeLine="26" fill="#FEFECE" filter="url(#fa41963uaq0v)" height="26.3887" id="MarkupCommand" style="stroke:#A80036;stroke-width:1.5;" width="105" x="1670.5" y="179"/><text fill="#000000" font-family="sans-serif" font-size="12" lengthAdjust="spacing" textLength="99" x="1673.5" y="197.752">MarkupCommand</text><!--MD5=[cbbc2731b9f44e58649810226c96c33b]
class CLIverShelf--><rect codeLine="6" fill="#FEFECE" filter="url(#fa41963uaq0v)" height="26.3887" id="CLIverShelf" style="stroke:#A80036;stroke-width:1.5;" width="65" x="801.5" y="7"/><text fill="#000000" font-family="sans-serif" font-size="12" lengthAdjust="spacing" textLength="59" x="804.5" y="25.752">CLIverShelf</text><!--MD5=[17c2f23369cb68ba72dd4fbf93dc9785]
link CLIverShelf to Parser--><path codeLine="35" d="M834,33.04 C834,47.38 834,71.46 834,87.78 " fill="none" id="CLIverShelf-to-Parser" style="stroke:#A80036;stroke-width:1.0;"/><polygon fill="#A80036" points="834,92.99,838,83.99,834,87.99,830,83.99,834,92.99" style="stroke:#A80036;stroke-width:1.0;"/><text fill="#000000" font-family="sans-serif" font-size="13" lengthAdjust="spacing" textLength="43" x="782.8031" y="56.2198">creates</text><text fill="#000000" font-family="sans-serif" font-size="13" lengthAdjust="spacing" textLength="7" x="825.5563" y="82.0905">1</text><!--MD5=[fc43850550c96713f63d53a7e63d8f5c]
link Parser to CreateShelfCommand--><path codeLine="37" d="M855.87,108.36 C883.28,110.7 931.23,116.9 969,133 C993.7,143.53 1018.34,162.37 1034.07,175.72 " fill="none" id="Parser-to-CreateShelfCommand" style="stroke:#A80036;stroke-width:1.0;"/><polygon fill="#A80036" points="1037.87,178.98,1033.6564,170.078,1034.0798,175.719,1028.4388,176.1423,1037.87,178.98" style="stroke:#A80036;stroke-width:1.0;"/><!--MD5=[a74fc5ac21347153332445763b0f7259]
link Parser to RemoveShelfCommand--><path codeLine="38" d="M812.12,107.08 C742.72,107.58 528.29,110.9 463,133 C436,142.14 409.27,161.64 392.48,175.5 " fill="none" id="Parser-to-RemoveShelfCommand" style="stroke:#A80036;stroke-width:1.0;"/><polygon fill="#A80036" points="388.43,178.89,397.8948,176.1666,392.2594,175.675,392.7509,170.0396,388.43,178.89" style="stroke:#A80036;stroke-width:1.0;"/><!--MD5=[c799bb39aa916aa4ae33e0b444948701]
link Parser to AddCommand--><path codeLine="39" d="M812.19,107.14 C716.55,107.89 336.76,112.16 288,133 C267.54,141.74 249.84,160.6 238.86,174.45 " fill="none" id="Parser-to-AddCommand" style="stroke:#A80036;stroke-width:1.0;"/><polygon fill="#A80036" points="235.67,178.57,244.3377,173.8933,238.7268,174.6133,238.0069,169.0024,235.67,178.57" style="stroke:#A80036;stroke-width:1.0;"/><!--MD5=[077ca4136064215266ad179e6d58930e]
link Parser to DeleteCommand--><path codeLine="40" d="M812.27,107.01 C704.29,107.19 228.27,109.31 167,133 C144.59,141.67 124.23,160.81 111.54,174.74 " fill="none" id="Parser-to-DeleteCommand" style="stroke:#A80036;stroke-width:1.0;"/><polygon fill="#A80036" points="108.16,178.51,117.1376,174.4599,111.4898,174.7801,111.1697,169.1323,108.16,178.51" style="stroke:#A80036;stroke-width:1.0;"/><!--MD5=[a36a19772482d2b9c7a226847958bb2e]
link Parser to EditCommand--><path codeLine="41" d="M812.25,107.48 C759.17,108.92 624.42,114.37 584,133 C563.79,142.31 546.05,161.06 534.98,174.73 " fill="none" id="Parser-to-EditCommand" style="stroke:#A80036;stroke-width:1.0;"/><polygon fill="#A80036" points="531.76,178.79,540.4834,174.218,534.8642,174.8704,534.2119,169.2512,531.76,178.79" style="stroke:#A80036;stroke-width:1.0;"/><!--MD5=[2e03998de0ba66ef7fad0b2e4251d2c6]
link Parser to GetCommand--><path codeLine="42" d="M855.77,107.47 C936.69,109.33 1217.44,116.89 1254,133 C1274.18,141.9 1291.58,160.73 1302.37,174.53 " fill="none" id="Parser-to-GetCommand" style="stroke:#A80036;stroke-width:1.0;"/><polygon fill="#A80036" points="1305.5,178.63,1303.2014,169.0531,1302.459,174.661,1296.8511,173.9187,1305.5,178.63" style="stroke:#A80036;stroke-width:1.0;"/><!--MD5=[2d1d1703c4b1347121f3cbe4e55afb78]
link Parser to ListCommand--><path codeLine="43" d="M855.6,107.02 C915.79,107.35 1084.28,110.35 1134,133 C1154.07,142.14 1171.49,160.93 1182.31,174.65 " fill="none" id="Parser-to-ListCommand" style="stroke:#A80036;stroke-width:1.0;"/><polygon fill="#A80036" points="1185.46,178.73,1183.1448,169.1571,1182.4121,174.7663,1176.8029,174.0337,1185.46,178.73" style="stroke:#A80036;stroke-width:1.0;"/><!--MD5=[37c79abc24979a5d4d85dd92a3ed1e62]
link Parser to SearchCommand--><path codeLine="44" d="M843.31,119.04 C854.61,133.63 873.7,158.3 886.33,174.62 " fill="none" id="Parser-to-SearchCommand" style="stroke:#A80036;stroke-width:1.0;"/><polygon fill="#A80036" points="889.7,178.99,887.3631,169.4224,886.6432,175.0333,881.0323,174.3133,889.7,178.99" style="stroke:#A80036;stroke-width:1.0;"/><!--MD5=[5cff93fbfae2c97893a3045b66a7d4c9]
link Parser to ExitCommand--><path codeLine="45" d="M824.83,119.04 C813.71,133.63 794.91,158.3 782.48,174.62 " fill="none" id="Parser-to-ExitCommand" style="stroke:#A80036;stroke-width:1.0;"/><polygon fill="#A80036" points="779.15,178.99,787.7882,174.259,782.1819,175.0142,781.4268,169.4079,779.15,178.99" style="stroke:#A80036;stroke-width:1.0;"/><!--MD5=[4c2ddd603862042ae5724dfca22df36f]
link Parser to ReportCommand--><path codeLine="46" d="M855.72,107.39 C950.12,109.18 1322.26,117.18 1372,133 C1399.82,141.84 1427.48,161.41 1444.87,175.36 " fill="none" id="Parser-to-ReportCommand" style="stroke:#A80036;stroke-width:1.0;"/><polygon fill="#A80036" points="1449.07,178.78,1444.6232,169.9922,1445.1951,175.62,1439.5673,176.192,1449.07,178.78" style="stroke:#A80036;stroke-width:1.0;"/><!--MD5=[0d89c02a364a21586ed50b2f7b7044f1]
link Parser to MarkupCommand--><path codeLine="47" d="M855.66,106.85 C977.68,106.13 1576.58,104.08 1653,133 C1675.94,141.68 1696.82,161.19 1709.69,175.19 " fill="none" id="Parser-to-MarkupCommand" style="stroke:#A80036;stroke-width:1.0;"/><polygon fill="#A80036" points="1713.1,178.98,1710.0525,169.6145,1709.7552,175.2635,1704.1061,174.9662,1713.1,178.98" style="stroke:#A80036;stroke-width:1.0;"/><!--MD5=[ea1e015a8ea8a13a697a051d384f9491]
link Parser to HelpCommand--><path codeLine="48" d="M812.42,108.15 C786.93,110.26 743.85,116.22 711,133 C690.91,143.26 672.33,161.49 660.42,174.78 " fill="none" id="Parser-to-HelpCommand" style="stroke:#A80036;stroke-width:1.0;"/><polygon fill="#A80036" points="656.95,178.73,665.8946,174.6076,660.2496,174.9733,659.8839,169.3283,656.95,178.73" style="stroke:#A80036;stroke-width:1.0;"/><!--MD5=[a5ee4330a899a9afdd857a1175418802]
link CreateShelfCommand to command--><path codeLine="50" d="M1041.06,205.09 C1031.81,216.36 1017.53,233.74 1004.61,249.46 " fill="none" id="CreateShelfCommand-to-command" style="stroke:#A80036;stroke-width:1.0;"/><polygon fill="none" points="1010.02,253.91,991.91,264.92,999.2,245.02,1010.02,253.91" style="stroke:#A80036;stroke-width:1.0;"/><!--MD5=[5e2e6d35dda1758436c202e138248e0c]
link RemoveShelfCommand to command--><path codeLine="51" d="M399.41,205.14 C416.73,213.22 440.76,223.34 463,229 C626.22,270.52 826.39,281.53 920.8,284.45 " fill="none" id="RemoveShelfCommand-to-command" style="stroke:#A80036;stroke-width:1.0;"/><polygon fill="none" points="921.07,277.45,940.87,284.99,920.69,291.45,921.07,277.45" style="stroke:#A80036;stroke-width:1.0;"/><!--MD5=[b0b35b96af89c01bb45a93421b25474c]
link AddCommand to command--><path codeLine="52" d="M242.87,205.09 C254.65,213.36 271.48,223.75 288,229 C405.59,266.36 779.43,280.19 920.46,284.16 " fill="none" id="AddCommand-to-command" style="stroke:#A80036;stroke-width:1.0;"/><polygon fill="none" points="920.84,277.17,940.64,284.7,920.46,291.16,920.84,277.17" style="stroke:#A80036;stroke-width:1.0;"/><!--MD5=[7a2a3c56016e4d389fb2716a87b4c6c7]
link DeleteCommand to command--><path codeLine="53" d="M116.16,205.13 C129.6,213.43 148.67,223.82 167,229 C309.33,269.21 763.31,281.49 920.67,284.59 " fill="none" id="DeleteCommand-to-command" style="stroke:#A80036;stroke-width:1.0;"/><polygon fill="none" points="920.98,277.59,940.85,284.97,920.72,291.59,920.98,277.59" style="stroke:#A80036;stroke-width:1.0;"/><!--MD5=[0804c3fc7bd4d0c06bc806ea812366e2]
link EditCommand to command--><path codeLine="54" d="M539.47,205.13 C551.28,213.2 567.88,223.33 584,229 C699.22,269.54 843.36,281.02 920.41,284.25 " fill="none" id="EditCommand-to-command" style="stroke:#A80036;stroke-width:1.0;"/><polygon fill="none" points="921,277.27,940.74,284.97,920.5,291.26,921,277.27" style="stroke:#A80036;stroke-width:1.0;"/><!--MD5=[673534671d750ac83530bdc28ce5d2a9]
link GetCommand to command--><path codeLine="55" d="M1297.47,205.03 C1285.84,212.95 1269.63,222.94 1254,229 C1179.03,258.09 1086.65,273.02 1029.28,280.05 " fill="none" id="GetCommand-to-command" style="stroke:#A80036;stroke-width:1.0;"/><polygon fill="none" points="1029.78,287.04,1009.11,282.36,1028.18,273.13,1029.78,287.04" style="stroke:#A80036;stroke-width:1.0;"/><!--MD5=[e1499f449148cd63176eca2ca22439b2]
link ListCommand to command--><path codeLine="56" d="M1176.14,205 C1164.47,212.52 1148.72,222.05 1134,229 C1099.88,245.1 1059.85,259.3 1028.49,269.44 " fill="none" id="ListCommand-to-command" style="stroke:#A80036;stroke-width:1.0;"/><polygon fill="none" points="1030.46,276.16,1009.28,275.49,1026.25,262.8,1030.46,276.16" style="stroke:#A80036;stroke-width:1.0;"/><!--MD5=[3c83c3e9e563e0ddfaf56f39836e41a6]
link SearchCommand to command--><path codeLine="57" d="M908.94,205.09 C918.19,216.36 932.47,233.74 945.39,249.46 " fill="none" id="SearchCommand-to-command" style="stroke:#A80036;stroke-width:1.0;"/><polygon fill="none" points="950.8,245.02,958.09,264.92,939.98,253.91,950.8,245.02" style="stroke:#A80036;stroke-width:1.0;"/><!--MD5=[99919c4691c1ab946808d5d1982f5c75]
link ExitCommand to command--><path codeLine="58" d="M788.2,205.02 C799.87,212.45 815.49,221.89 830,229 C859.67,243.55 894.09,257.1 921.94,267.27 " fill="none" id="ExitCommand-to-command" style="stroke:#A80036;stroke-width:1.0;"/><polygon fill="none" points="924.43,260.73,940.91,274.06,919.72,273.91,924.43,260.73" style="stroke:#A80036;stroke-width:1.0;"/><!--MD5=[50f1b8d3c6ea24b41c7f614478e3e217]
link SellCommand to command--><path codeLine="59" d="M1576.15,205.17 C1564.57,213.37 1548.14,223.64 1532,229 C1439.64,259.68 1150.94,276.94 1029.59,282.99 " fill="none" id="SellCommand-to-command" style="stroke:#A80036;stroke-width:1.0;"/><polygon fill="none" points="1029.61,290,1009.29,283.98,1028.93,276.02,1029.61,290" style="stroke:#A80036;stroke-width:1.0;"/><!--MD5=[3bf96aba2d2b2665118dab567b263e8c]
link SellCommand to Sales--><path codeLine="60" d="M1592,205.09 C1592,221.16 1592,249.65 1592,268.04 " fill="none" id="SellCommand-to-Sales" style="stroke:#A80036;stroke-width:1.0;"/><polygon fill="#A80036" points="1592,273.4,1596,264.4,1592,268.4,1588,264.4,1592,273.4" style="stroke:#A80036;stroke-width:1.0;"/><!--MD5=[3c83a777bd4e0773c3f99fa981d72d61]
link ReportCommand to command--><path codeLine="61" d="M1437.27,205.07 C1419.34,213 1394.66,222.99 1372,229 C1252.15,260.76 1106.93,275.67 1029.63,281.81 " fill="none" id="ReportCommand-to-command" style="stroke:#A80036;stroke-width:1.0;"/><polygon fill="none" points="1029.73,288.82,1009.26,283.35,1028.68,274.86,1029.73,288.82" style="stroke:#A80036;stroke-width:1.0;"/><!--MD5=[084e6c117ab0d05395e002e6961250c2]
link ReportCommand to Sales--><path codeLine="62" d="M1479.86,205.09 C1503.24,221.85 1545.46,252.13 1570.89,270.36 " fill="none" id="ReportCommand-to-Sales" style="stroke:#A80036;stroke-width:1.0;"/><polygon fill="#A80036" points="1575.13,273.4,1570.1539,264.9007,1571.0691,270.483,1565.4867,271.3981,1575.13,273.4" style="stroke:#A80036;stroke-width:1.0;"/><!--MD5=[c229ad9f7b476dc3d512b72d8fdecacf]
link MarkupCommand to command--><path codeLine="63" d="M1704.53,205.05 C1690.88,213.31 1671.52,223.69 1653,229 C1536.19,262.47 1169.21,278.64 1029.63,283.69 " fill="none" id="MarkupCommand-to-command" style="stroke:#A80036;stroke-width:1.0;"/><polygon fill="none" points="1029.48,290.7,1009.25,284.41,1028.99,276.71,1029.48,290.7" style="stroke:#A80036;stroke-width:1.0;"/><!--MD5=[947e493598ba90b0a43369ceeadc0555]
link MarkupCommand to Sales--><path codeLine="64" d="M1705.87,205.09 C1682.14,221.85 1639.26,252.13 1613.43,270.36 " fill="none" id="MarkupCommand-to-Sales" style="stroke:#A80036;stroke-width:1.0;"/><polygon fill="#A80036" points="1609.13,273.4,1618.7934,271.4976,1613.2208,270.525,1614.1934,264.9524,1609.13,273.4" style="stroke:#A80036;stroke-width:1.0;"/><!--MD5=[dc23faa07d5910ff3297e0a8666ce7bf]
@startuml
'https://plantuml.com/class-diagram
hide circle
skinparam classAttributeIconSize 0
hide empty members

class CliverShelf

package "Logic Component" <<Rectangle>> {
    package "Non-sales related Commands" <<Rectangle>> #line.dashed{
        class CreateShelfCommand
        class RemoveShelfCommand
        class AddCommand
        class DeleteCommand
        class EditCommand
        class GetCommand
        class ListCommand
        class SearchCommand
        class ExitCommand
        class HelpCommand
    }
    class Parser

    package "Sales related Commands" <<Rectangle>> #line.dashed{
        class SellCommand
        class ReportCommand
        class MarkupCommand
    }

    class Sales

    abstract class "{abstract}\n Command" as command

}

CliverShelf "creates"- -> "1" Parser

Parser - -> CreateShelfCommand
Parser - -> RemoveShelfCommand
Parser - -> AddCommand
Parser - -> DeleteCommand
Parser - -> EditCommand
Parser - -> GetCommand
Parser - -> ListCommand
Parser - -> SearchCommand
Parser - -> ExitCommand
Parser - -> ReportCommand
Parser - -> MarkupCommand
Parser - -> HelpCommand

CreateShelfCommand - -|> command
RemoveShelfCommand - -|> command
AddCommand - -|> command
DeleteCommand - -|> command
EditCommand - -|> command
GetCommand - -|> command
ListCommand - -|> command
SearchCommand - -|> command
ExitCommand - -|> command
SellCommand - -|> command
SellCommand - -> Sales
ReportCommand - -|> command
ReportCommand - -> Sales
MarkupCommand - -|> command
MarkupCommand - -> Sales
@enduml

@startuml
hide circle
skinparam classAttributeIconSize 0
hide empty members

class CliverShelf

package "Logic Component" <<Rectangle>> {
    package "Non-sales related Commands" <<Rectangle>> #line.dashed{
        class CreateShelfCommand
        class RemoveShelfCommand
        class AddCommand
        class DeleteCommand
        class EditCommand
        class GetCommand
        class ListCommand
        class SearchCommand
        class ExitCommand
        class HelpCommand
    }
    class Parser

    package "Sales related Commands" <<Rectangle>> #line.dashed{
        class SellCommand
        class ReportCommand
        class MarkupCommand
    }

    class Sales

    abstract class "{abstract}\n Command" as command

}

CliverShelf "creates"- -> "1" Parser

Parser - -> CreateShelfCommand
Parser - -> RemoveShelfCommand
Parser - -> AddCommand
Parser - -> DeleteCommand
Parser - -> EditCommand
Parser - -> GetCommand
Parser - -> ListCommand
Parser - -> SearchCommand
Parser - -> ExitCommand
Parser - -> ReportCommand
Parser - -> MarkupCommand
Parser - -> HelpCommand

CreateShelfCommand - -|> command
RemoveShelfCommand - -|> command
AddCommand - -|> command
DeleteCommand - -|> command
EditCommand - -|> command
GetCommand - -|> command
ListCommand - -|> command
SearchCommand - -|> command
ExitCommand - -|> command
SellCommand - -|> command
SellCommand - -> Sales
ReportCommand - -|> command
ReportCommand - -> Sales
MarkupCommand - -|> command
MarkupCommand - -> Sales
@enduml

PlantUML version 1.2021.11(Sat Oct 02 21:26:11 CST 2021)
(GPL source distribution)
Java Runtime: OpenJDK Runtime Environment
JVM: OpenJDK 64-Bit Server VM
Default Encoding: GBK
Language: zh
Country: CN
--></g></svg>