<?xml version="1.0" encoding="UTF-8" standalone="no"?><svg xmlns="http://www.w3.org/2000/svg" xmlns:xlink="http://www.w3.org/1999/xlink" contentScriptType="application/ecmascript" contentStyleType="text/css" height="594px" preserveAspectRatio="none" style="width:481px;height:594px;background:#FFFFFF;" version="1.1" viewBox="0 0 481 594" width="481px" zoomAndPan="magnify"><defs/><g><rect fill="#FFFFFF" height="496.853" style="stroke:#A80036;stroke-width:1.0;" width="10" x="197.5" y="72.8745"/><rect fill="#FFFFFF" height="151.0176" style="stroke:#A80036;stroke-width:1.0;" width="10" x="202.5" y="139.4063"/><rect fill="#FFFFFF" height="119.2632" style="stroke:#A80036;stroke-width:1.0;" width="10" x="202.5" y="397.71"/><rect fill="#FFFFFF" height="451.0986" style="stroke:#000000;stroke-width:2.0;" width="388.5" x="86" y="87.8745"/><rect fill="#FFFFFF" height="233.5493" style="stroke:none;stroke-width:1.0;" width="388.5" x="86" y="305.4238"/><rect fill="#FFFFFF" height="185.7949" style="stroke:#000000;stroke-width:2.0;" width="368.5" x="96" y="346.1782"/><line style="stroke:#A80036;stroke-width:1.0;stroke-dasharray:5.0,5.0;" x1="50" x2="50" y1="39.1201" y2="587.7275"/><line style="stroke:#A80036;stroke-width:1.0;stroke-dasharray:5.0,5.0;" x1="202" x2="202" y1="39.1201" y2="587.7275"/><line style="stroke:#A80036;stroke-width:1.0;stroke-dasharray:5.0,5.0;" x1="358.5" x2="358.5" y1="39.1201" y2="587.7275"/><line style="stroke:#A80036;stroke-width:1.0;stroke-dasharray:5.0,5.0;" x1="429.5" x2="429.5" y1="39.1201" y2="587.7275"/><rect fill="#FEFECE" height="33.1201" style="stroke:#A80036;stroke-width:1.5;" width="91" x="5" y="5"/><text fill="#000000" font-family="sans-serif" font-size="14" lengthAdjust="spacing" textLength="77" x="12" y="28.0439">:CLIverShelf</text><rect fill="#FEFECE" height="33.1201" style="stroke:#A80036;stroke-width:1.5;" width="193" x="106" y="5"/><text fill="#000000" font-family="sans-serif" font-size="14" lengthAdjust="spacing" textLength="179" x="113" y="28.0439">newCommand:ListCommand</text><rect fill="#FEFECE" height="33.1201" style="stroke:#A80036;stroke-width:1.5;" width="72" x="322.5" y="5"/><text fill="#000000" font-family="sans-serif" font-size="14" lengthAdjust="spacing" textLength="58" x="329.5" y="28.0439">:ShelfList</text><rect fill="#FEFECE" height="33.1201" style="stroke:#A80036;stroke-width:1.5;" width="50" x="404.5" y="5"/><text fill="#000000" font-family="sans-serif" font-size="14" lengthAdjust="spacing" textLength="36" x="411.5" y="28.0439">:Shelf</text><rect fill="#FFFFFF" height="496.853" style="stroke:#A80036;stroke-width:1.0;" width="10" x="197.5" y="72.8745"/><rect fill="#FFFFFF" height="151.0176" style="stroke:#A80036;stroke-width:1.0;" width="10" x="202.5" y="139.4063"/><rect fill="#FFFFFF" height="119.2632" style="stroke:#A80036;stroke-width:1.0;" width="10" x="202.5" y="397.71"/><polygon fill="#A80036" points="185.5,68.8745,195.5,72.8745,185.5,76.8745" style="stroke:#A80036;stroke-width:1.0;"/><line style="stroke:#A80036;stroke-width:1.0;" x1="50.5" x2="191.5" y1="72.8745" y2="72.8745"/><text fill="#000000" font-family="sans-serif" font-size="13" lengthAdjust="spacing" textLength="54" x="57.5" y="68.0181">execute()</text><path d="M86,87.8745 L147,87.8745 L147,96.8745 L137,106.8745 L86,106.8745 L86,87.8745 " fill="#EEEEEE" style="stroke:#000000;stroke-width:1.0;"/><rect fill="none" height="451.0986" style="stroke:#000000;stroke-width:2.0;" width="388.5" x="86" y="87.8745"/><text fill="#000000" font-family="sans-serif" font-size="13" font-weight="bold" lengthAdjust="spacing" textLength="16" x="101" y="103.7725">alt</text><text fill="#000000" font-family="sans-serif" font-size="11" font-weight="bold" lengthAdjust="spacing" textLength="103" x="162" y="102.4805">[shelf is specified]</text><line style="stroke:#A80036;stroke-width:1.0;" x1="207.5" x2="254.5" y1="126.4063" y2="126.4063"/><line style="stroke:#A80036;stroke-width:1.0;" x1="254.5" x2="254.5" y1="126.4063" y2="139.4063"/><line style="stroke:#A80036;stroke-width:1.0;" x1="213.5" x2="254.5" y1="139.4063" y2="139.4063"/><polygon fill="#A80036" points="223.5,135.4063,213.5,139.4063,223.5,143.4063" style="stroke:#A80036;stroke-width:1.0;"/><text fill="#000000" font-family="sans-serif" font-size="13" lengthAdjust="spacing" textLength="132" x="219.5" y="121.5498">getOneList(shelfName)</text><polygon fill="#A80036" points="346.5,172.1606,356.5,176.1606,346.5,180.1606" style="stroke:#A80036;stroke-width:1.0;"/><line style="stroke:#A80036;stroke-width:1.0;" x1="212.5" x2="352.5" y1="176.1606" y2="176.1606"/><text fill="#000000" font-family="sans-serif" font-size="13" lengthAdjust="spacing" textLength="116" x="219.5" y="171.3042">getShelf(shelfName)</text><polygon fill="#A80036" points="417.5,203.915,427.5,207.915,417.5,211.915" style="stroke:#A80036;stroke-width:1.0;"/><line style="stroke:#A80036;stroke-width:1.0;" x1="212.5" x2="423.5" y1="207.915" y2="207.915"/><text fill="#000000" font-family="sans-serif" font-size="13" lengthAdjust="spacing" textLength="58" x="219.5" y="203.0586">getItems()</text><line style="stroke:#A80036;stroke-width:1.0;" x1="212.5" x2="254.5" y1="239.6694" y2="239.6694"/><line style="stroke:#A80036;stroke-width:1.0;" x1="254.5" x2="254.5" y1="239.6694" y2="252.6694"/><line style="stroke:#A80036;stroke-width:1.0;" x1="213.5" x2="254.5" y1="252.6694" y2="252.6694"/><polygon fill="#A80036" points="223.5,248.6694,213.5,252.6694,223.5,256.6694" style="stroke:#A80036;stroke-width:1.0;"/><text fill="#000000" font-family="sans-serif" font-size="13" lengthAdjust="spacing" textLength="94" x="219.5" y="234.813">compileQuantity</text><line style="stroke:#A80036;stroke-width:1.0;stroke-dasharray:2.0,2.0;" x1="212.5" x2="254.5" y1="289.4238" y2="289.4238"/><line style="stroke:#A80036;stroke-width:1.0;stroke-dasharray:2.0,2.0;" x1="254.5" x2="254.5" y1="289.4238" y2="302.4238"/><line style="stroke:#A80036;stroke-width:1.0;stroke-dasharray:2.0,2.0;" x1="207.5" x2="254.5" y1="302.4238" y2="302.4238"/><polygon fill="#A80036" points="217.5,298.4238,207.5,302.4238,217.5,306.4238" style="stroke:#A80036;stroke-width:1.0;"/><text fill="#000000" font-family="sans-serif" font-size="13" lengthAdjust="spacing" textLength="36" x="219.5" y="284.5674">output</text><line style="stroke:#000000;stroke-width:1.0;stroke-dasharray:2.0,2.0;" x1="86" x2="474.5" y1="306.4238" y2="306.4238"/><polygon fill="#A80036" points="346.5,327.1782,356.5,331.1782,346.5,335.1782" style="stroke:#A80036;stroke-width:1.0;"/><line style="stroke:#A80036;stroke-width:1.0;" x1="207.5" x2="352.5" y1="331.1782" y2="331.1782"/><text fill="#000000" font-family="sans-serif" font-size="13" lengthAdjust="spacing" textLength="71" x="214.5" y="326.3218">getShelves()</text><path d="M96,346.1782 L169,346.1782 L169,355.1782 L159,365.1782 L96,365.1782 L96,346.1782 " fill="#EEEEEE" style="stroke:#000000;stroke-width:1.0;"/><rect fill="none" height="185.7949" style="stroke:#000000;stroke-width:2.0;" width="368.5" x="96" y="346.1782"/><text fill="#000000" font-family="sans-serif" font-size="13" font-weight="bold" lengthAdjust="spacing" textLength="28" x="111" y="362.0762">loop</text><text fill="#000000" font-family="sans-serif" font-size="11" font-weight="bold" lengthAdjust="spacing" textLength="149" x="184" y="360.7842">[for every shelf in shelves]</text><line style="stroke:#A80036;stroke-width:1.0;" x1="207.5" x2="254.5" y1="384.71" y2="384.71"/><line style="stroke:#A80036;stroke-width:1.0;" x1="254.5" x2="254.5" y1="384.71" y2="397.71"/><line style="stroke:#A80036;stroke-width:1.0;" x1="213.5" x2="254.5" y1="397.71" y2="397.71"/><polygon fill="#A80036" points="223.5,393.71,213.5,397.71,223.5,401.71" style="stroke:#A80036;stroke-width:1.0;"/><text fill="#000000" font-family="sans-serif" font-size="13" lengthAdjust="spacing" textLength="79" x="219.5" y="379.8535">getEveryList()</text><polygon fill="#A80036" points="417.5,430.4644,427.5,434.4644,417.5,438.4644" style="stroke:#A80036;stroke-width:1.0;"/><line style="stroke:#A80036;stroke-width:1.0;" x1="212.5" x2="423.5" y1="434.4644" y2="434.4644"/><text fill="#000000" font-family="sans-serif" font-size="13" lengthAdjust="spacing" textLength="58" x="219.5" y="429.6079">getItems()</text><line style="stroke:#A80036;stroke-width:1.0;" x1="212.5" x2="254.5" y1="466.2188" y2="466.2188"/><line style="stroke:#A80036;stroke-width:1.0;" x1="254.5" x2="254.5" y1="466.2188" y2="479.2188"/><line style="stroke:#A80036;stroke-width:1.0;" x1="213.5" x2="254.5" y1="479.2188" y2="479.2188"/><polygon fill="#A80036" points="223.5,475.2188,213.5,479.2188,223.5,483.2188" style="stroke:#A80036;stroke-width:1.0;"/><text fill="#000000" font-family="sans-serif" font-size="13" lengthAdjust="spacing" textLength="94" x="219.5" y="461.3623">compileQuantity</text><line style="stroke:#A80036;stroke-width:1.0;stroke-dasharray:2.0,2.0;" x1="212.5" x2="254.5" y1="515.9731" y2="515.9731"/><line style="stroke:#A80036;stroke-width:1.0;stroke-dasharray:2.0,2.0;" x1="254.5" x2="254.5" y1="515.9731" y2="528.9731"/><line style="stroke:#A80036;stroke-width:1.0;stroke-dasharray:2.0,2.0;" x1="207.5" x2="254.5" y1="528.9731" y2="528.9731"/><polygon fill="#A80036" points="217.5,524.9731,207.5,528.9731,217.5,532.9731" style="stroke:#A80036;stroke-width:1.0;"/><text fill="#000000" font-family="sans-serif" font-size="13" lengthAdjust="spacing" textLength="76" x="219.5" y="511.1167">add to output</text><polygon fill="#A80036" points="61.5,565.7275,51.5,569.7275,61.5,573.7275" style="stroke:#A80036;stroke-width:1.0;"/><line style="stroke:#A80036;stroke-width:1.0;stroke-dasharray:2.0,2.0;" x1="55.5" x2="201.5" y1="569.7275" y2="569.7275"/><text fill="#000000" font-family="sans-serif" font-size="13" lengthAdjust="spacing" textLength="36" x="67.5" y="564.8711">output</text><line style="stroke:#A80036;stroke-width:2.0;" x1="193.5" x2="211.5" y1="560.7275" y2="578.7275"/><line style="stroke:#A80036;stroke-width:2.0;" x1="193.5" x2="211.5" y1="578.7275" y2="560.7275"/><!--MD5=[e583ed6c487302361cf62bcc1ca51b36]
@startuml
'https://plantuml.com/sequence-diagram
!include Style.puml

participant ":CLIverShelf" as app
participant "newCommand:ListCommand" as listCommand
participant ":ShelfList" as shelflist
participant ":Shelf" as shelf


app -> listCommand: execute()


activate listCommand
alt shelf is specified
    listCommand -> listCommand : getOneList(shelfName)
    activate listCommand
    listCommand -> shelflist:getShelf(shelfName)
    listCommand -> shelf :getItems()
    listCommand -> listCommand: compileQuantity
    listCommand - -> listCommand:output

    deactivate listCommand


else
    listCommand -> shelflist:getShelves()
    loop for every shelf in shelves
        listCommand -> listCommand : getEveryList()
        activate listCommand
        listCommand -> shelf:getItems()
        listCommand -> listCommand: compileQuantity
        listCommand - -> listCommand :add to output
        deactivate listCommand
    end

end

listCommand - -> app:output
deactivate listCommand
destroy listCommand

hide footbox
@enduml

@startuml
skinparam style strictuml
skinparam backgroundColor white
skinparam box white
skinparam classAttributeIconSize 0

participant ":CLIverShelf" as app
participant "newCommand:ListCommand" as listCommand
participant ":ShelfList" as shelflist
participant ":Shelf" as shelf


app -> listCommand: execute()


activate listCommand
alt shelf is specified
    listCommand -> listCommand : getOneList(shelfName)
    activate listCommand
    listCommand -> shelflist:getShelf(shelfName)
    listCommand -> shelf :getItems()
    listCommand -> listCommand: compileQuantity
    listCommand - -> listCommand:output

    deactivate listCommand


else
    listCommand -> shelflist:getShelves()
    loop for every shelf in shelves
        listCommand -> listCommand : getEveryList()
        activate listCommand
        listCommand -> shelf:getItems()
        listCommand -> listCommand: compileQuantity
        listCommand - -> listCommand :add to output
        deactivate listCommand
    end

end

listCommand - -> app:output
deactivate listCommand
destroy listCommand

hide footbox
@enduml

PlantUML version 1.2021.11(Sat Oct 02 21:26:11 CST 2021)
(GPL source distribution)
Java Runtime: OpenJDK Runtime Environment
JVM: OpenJDK 64-Bit Server VM
Default Encoding: GBK
Language: zh
Country: CN
--></g></svg>