<?xml version="1.0" encoding="UTF-8" standalone="no"?><svg xmlns="http://www.w3.org/2000/svg" xmlns:xlink="http://www.w3.org/1999/xlink" contentScriptType="application/ecmascript" contentStyleType="text/css" height="695px" preserveAspectRatio="none" style="width:906px;height:695px;background:#FFFFFF;" version="1.1" viewBox="0 0 906 695" width="906px" zoomAndPan="magnify"><defs/><g><rect fill="#FFFFFF" height="552.7891" style="stroke:#A80036;stroke-width:1.0;" width="10" x="87.5" y="117.9609"/><rect fill="#FFFFFF" height="113.9609" style="stroke:#A80036;stroke-width:1.0;" width="10" x="243.5" y="148.3125"/><rect fill="#FFFFFF" height="19" style="stroke:#A80036;stroke-width:1.0;" width="10" x="248.5" y="186.6641"/><rect fill="#FFFFFF" height="32.6094" style="stroke:#A80036;stroke-width:1.0;" width="10" x="415.5" y="215.6641"/><rect fill="#FFFFFF" height="364.125" style="stroke:#A80036;stroke-width:1.0;" width="10" x="415.5" y="292.625"/><rect fill="#FFFFFF" height="16.2578" style="stroke:#A80036;stroke-width:1.0;" width="10" x="834" y="332.9766"/><rect fill="#FFFFFF" height="30.3516" style="stroke:#A80036;stroke-width:1.0;" width="10" x="834" y="379.5859"/><rect fill="#FFFFFF" height="30.3516" style="stroke:#A80036;stroke-width:1.0;" width="10" x="834" y="440.2891"/><rect fill="#FFFFFF" height="30.3516" style="stroke:#A80036;stroke-width:1.0;" width="10" x="834" y="526.3438"/><rect fill="#FFFFFF" height="30.3516" style="stroke:#A80036;stroke-width:1.0;" width="10" x="834" y="589.0469"/><rect fill="#FFFFFF" height="141.7578" style="stroke:#000000;stroke-width:2.0;" width="602.5" x="297" y="485.6406"/><rect fill="#FFFFFF" height="62.7031" style="stroke:none;stroke-width:1.0;" width="602.5" x="297" y="564.6953"/><line style="stroke:#A80036;stroke-width:1.0;stroke-dasharray:5.0,5.0;" x1="22" x2="22" y1="85.6094" y2="688.75"/><line style="stroke:#A80036;stroke-width:1.0;stroke-dasharray:5.0,5.0;" x1="92" x2="92" y1="85.6094" y2="688.75"/><line style="stroke:#A80036;stroke-width:1.0;stroke-dasharray:5.0,5.0;" x1="248.5" x2="248.5" y1="85.6094" y2="688.75"/><line style="stroke:#A80036;stroke-width:1.0;stroke-dasharray:5.0,5.0;" x1="420" x2="420" y1="230.9688" y2="688.75"/><line style="stroke:#A80036;stroke-width:1.0;stroke-dasharray:5.0,5.0;" x1="838.5" x2="838.5" y1="331.9297" y2="688.75"/><text fill="#000000" font-family="sans-serif" font-size="14" lengthAdjust="spacing" textLength="28" x="5" y="82.5332">user</text><ellipse cx="22" cy="15" fill="#FEFECE" rx="8" ry="8" style="stroke:#A80036;stroke-width:2.0;"/><path d="M22,23 L22,50 M9,31 L35,31 M22,50 L9,65 M22,50 L35,65 " fill="none" style="stroke:#A80036;stroke-width:2.0;"/><rect fill="#FFBF00" height="31.6094" style="stroke:#A80036;stroke-width:1.5;" width="87" x="49" y="53"/><text fill="#000000" font-family="sans-serif" font-size="14" lengthAdjust="spacing" textLength="73" x="56" y="74.5332">CLIverShelf</text><rect fill="#FFFF00" height="31.6094" style="stroke:#A80036;stroke-width:1.5;" width="60" x="218.5" y="53"/><text fill="#000000" font-family="sans-serif" font-size="14" lengthAdjust="spacing" textLength="46" x="225.5" y="74.5332">:Parser</text><rect fill="#FFFFFF" height="552.7891" style="stroke:#A80036;stroke-width:1.0;" width="10" x="87.5" y="117.9609"/><rect fill="#FFFFFF" height="113.9609" style="stroke:#A80036;stroke-width:1.0;" width="10" x="243.5" y="148.3125"/><rect fill="#FFFFFF" height="19" style="stroke:#A80036;stroke-width:1.0;" width="10" x="248.5" y="186.6641"/><rect fill="#FFFFFF" height="32.6094" style="stroke:#A80036;stroke-width:1.0;" width="10" x="415.5" y="215.6641"/><rect fill="#FFFFFF" height="364.125" style="stroke:#A80036;stroke-width:1.0;" width="10" x="415.5" y="292.625"/><rect fill="#FFFFFF" height="16.2578" style="stroke:#A80036;stroke-width:1.0;" width="10" x="834" y="332.9766"/><rect fill="#FFFFFF" height="30.3516" style="stroke:#A80036;stroke-width:1.0;" width="10" x="834" y="379.5859"/><rect fill="#FFFFFF" height="30.3516" style="stroke:#A80036;stroke-width:1.0;" width="10" x="834" y="440.2891"/><rect fill="#FFFFFF" height="30.3516" style="stroke:#A80036;stroke-width:1.0;" width="10" x="834" y="526.3438"/><rect fill="#FFFFFF" height="30.3516" style="stroke:#A80036;stroke-width:1.0;" width="10" x="834" y="589.0469"/><polygon fill="#A80036" points="75.5,113.9609,85.5,117.9609,75.5,121.9609" style="stroke:#A80036;stroke-width:1.0;"/><line style="stroke:#A80036;stroke-width:1.0;" x1="22" x2="81.5" y1="117.9609" y2="117.9609"/><text fill="#000000" font-family="sans-serif" font-size="13" lengthAdjust="spacing" textLength="28" x="29" y="113.1045">input</text><polygon fill="#A80036" points="231.5,144.3125,241.5,148.3125,231.5,152.3125" style="stroke:#A80036;stroke-width:1.0;"/><line style="stroke:#A80036;stroke-width:1.0;" x1="97.5" x2="237.5" y1="148.3125" y2="148.3125"/><text fill="#000000" font-family="sans-serif" font-size="13" lengthAdjust="spacing" textLength="127" x="104.5" y="143.4561">parseCommand(input)</text><line style="stroke:#A80036;stroke-width:1.0;" x1="253.5" x2="300.5" y1="173.6641" y2="173.6641"/><line style="stroke:#A80036;stroke-width:1.0;" x1="300.5" x2="300.5" y1="173.6641" y2="186.6641"/><line style="stroke:#A80036;stroke-width:1.0;" x1="259.5" x2="300.5" y1="186.6641" y2="186.6641"/><polygon fill="#A80036" points="269.5,182.6641,259.5,186.6641,269.5,190.6641" style="stroke:#A80036;stroke-width:1.0;"/><text fill="#000000" font-family="sans-serif" font-size="13" lengthAdjust="spacing" textLength="148" x="265.5" y="168.8076">prepareMarkup(argument)</text><polygon fill="#A80036" points="295,201.6641,305,205.6641,295,209.6641" style="stroke:#A80036;stroke-width:1.0;"/><line style="stroke:#A80036;stroke-width:1.0;" x1="253.5" x2="301" y1="205.6641" y2="205.6641"/><rect fill="#FFAABB" height="31.6094" style="stroke:#A80036;stroke-width:1.5;" width="227" x="307" y="199.6641"/><text fill="#000000" font-family="sans-serif" font-size="14" lengthAdjust="spacing" textLength="213" x="314" y="221.1973">:newCommand: MarkUpCommand</text><polygon fill="#A80036" points="264.5,244.2734,254.5,248.2734,264.5,252.2734" style="stroke:#A80036;stroke-width:1.0;"/><line style="stroke:#A80036;stroke-width:1.0;stroke-dasharray:2.0,2.0;" x1="258.5" x2="419.5" y1="248.2734" y2="248.2734"/><polygon fill="#A80036" points="108.5,258.2734,98.5,262.2734,108.5,266.2734" style="stroke:#A80036;stroke-width:1.0;"/><line style="stroke:#A80036;stroke-width:1.0;stroke-dasharray:2.0,2.0;" x1="102.5" x2="247.5" y1="262.2734" y2="262.2734"/><polygon fill="#A80036" points="403.5,288.625,413.5,292.625,403.5,296.625" style="stroke:#A80036;stroke-width:1.0;"/><line style="stroke:#A80036;stroke-width:1.0;" x1="97.5" x2="409.5" y1="292.625" y2="292.625"/><text fill="#000000" font-family="sans-serif" font-size="13" lengthAdjust="spacing" textLength="54" x="104.5" y="287.7686">execute()</text><polygon fill="#A80036" points="776.5,318.9766,786.5,322.9766,776.5,326.9766" style="stroke:#A80036;stroke-width:1.0;"/><line style="stroke:#A80036;stroke-width:1.0;" x1="425.5" x2="782.5" y1="322.9766" y2="322.9766"/><text fill="#000000" font-family="sans-serif" font-size="13" lengthAdjust="spacing" textLength="339" x="432.5" y="318.1201">new SalesMarkUp(shelfName, index, userRequestPercent)</text><rect fill="#FAD6A5" height="31.6094" style="stroke:#A80036;stroke-width:1.5;" width="101" x="788.5" y="300.625"/><text fill="#000000" font-family="sans-serif" font-size="14" lengthAdjust="spacing" textLength="87" x="795.5" y="322.1582">:SalesMarkUp</text><polygon fill="#A80036" points="436.5,345.2344,426.5,349.2344,436.5,353.2344" style="stroke:#A80036;stroke-width:1.0;"/><line style="stroke:#A80036;stroke-width:1.0;stroke-dasharray:2.0,2.0;" x1="430.5" x2="838" y1="349.2344" y2="349.2344"/><polygon fill="#A80036" points="822,375.5859,832,379.5859,822,383.5859" style="stroke:#A80036;stroke-width:1.0;"/><line style="stroke:#A80036;stroke-width:1.0;" x1="425.5" x2="828" y1="379.5859" y2="379.5859"/><text fill="#000000" font-family="sans-serif" font-size="13" lengthAdjust="spacing" textLength="130" x="432.5" y="374.7295">getItemToMarkUpInfo()</text><polygon fill="#A80036" points="436.5,405.9375,426.5,409.9375,436.5,413.9375" style="stroke:#A80036;stroke-width:1.0;"/><line style="stroke:#A80036;stroke-width:1.0;stroke-dasharray:2.0,2.0;" x1="430.5" x2="838" y1="409.9375" y2="409.9375"/><text fill="#000000" font-family="sans-serif" font-size="13" lengthAdjust="spacing" textLength="124" x="442.5" y="405.0811">itemMarkUpInfoString</text><polygon fill="#A80036" points="822,436.2891,832,440.2891,822,444.2891" style="stroke:#A80036;stroke-width:1.0;"/><line style="stroke:#A80036;stroke-width:1.0;" x1="425.5" x2="828" y1="440.2891" y2="440.2891"/><text fill="#000000" font-family="sans-serif" font-size="13" lengthAdjust="spacing" textLength="167" x="432.5" y="435.4326">getSelectedItemMarkUpInfo()</text><polygon fill="#A80036" points="436.5,466.6406,426.5,470.6406,436.5,474.6406" style="stroke:#A80036;stroke-width:1.0;"/><line style="stroke:#A80036;stroke-width:1.0;stroke-dasharray:2.0,2.0;" x1="430.5" x2="838" y1="470.6406" y2="470.6406"/><text fill="#000000" font-family="sans-serif" font-size="13" lengthAdjust="spacing" textLength="173" x="442.5" y="465.7842">selectedItemMarkUpInfoString</text><path d="M297,485.6406 L358,485.6406 L358,493.6406 L348,503.6406 L297,503.6406 L297,485.6406 " fill="#EEEEEE" style="stroke:#000000;stroke-width:1.0;"/><rect fill="none" height="141.7578" style="stroke:#000000;stroke-width:2.0;" width="602.5" x="297" y="485.6406"/><text fill="#000000" font-family="sans-serif" font-size="13" font-weight="bold" lengthAdjust="spacing" textLength="16" x="312" y="500.1357">alt</text><text fill="#000000" font-family="sans-serif" font-size="11" font-weight="bold" lengthAdjust="spacing" textLength="151" x="373" y="499.0596">[userRequestPercent == ""]</text><polygon fill="#A80036" points="822,522.3438,832,526.3438,822,530.3438" style="stroke:#A80036;stroke-width:1.0;"/><line style="stroke:#A80036;stroke-width:1.0;" x1="425.5" x2="828" y1="526.3438" y2="526.3438"/><text fill="#000000" font-family="sans-serif" font-size="13" lengthAdjust="spacing" textLength="150" x="432.5" y="521.4873">getEstimatedMarkUpInfo()</text><polygon fill="#A80036" points="436.5,552.6953,426.5,556.6953,436.5,560.6953" style="stroke:#A80036;stroke-width:1.0;"/><line style="stroke:#A80036;stroke-width:1.0;stroke-dasharray:2.0,2.0;" x1="430.5" x2="838" y1="556.6953" y2="556.6953"/><text fill="#000000" font-family="sans-serif" font-size="13" lengthAdjust="spacing" textLength="156" x="442.5" y="551.8389">estimatedMarkUpInfoString</text><line style="stroke:#000000;stroke-width:1.0;stroke-dasharray:2.0,2.0;" x1="297" x2="899.5" y1="565.6953" y2="565.6953"/><polygon fill="#A80036" points="822,585.0469,832,589.0469,822,593.0469" style="stroke:#A80036;stroke-width:1.0;"/><line style="stroke:#A80036;stroke-width:1.0;" x1="425.5" x2="828" y1="589.0469" y2="589.0469"/><text fill="#000000" font-family="sans-serif" font-size="13" lengthAdjust="spacing" textLength="166" x="432.5" y="584.1904">getUserRequestMarkUpInfo()</text><polygon fill="#A80036" points="436.5,615.3984,426.5,619.3984,436.5,623.3984" style="stroke:#A80036;stroke-width:1.0;"/><line style="stroke:#A80036;stroke-width:1.0;stroke-dasharray:2.0,2.0;" x1="430.5" x2="838" y1="619.3984" y2="619.3984"/><text fill="#000000" font-family="sans-serif" font-size="13" lengthAdjust="spacing" textLength="172" x="442.5" y="614.542">userRequestMarkUpInfoString</text><polygon fill="#A80036" points="108.5,652.75,98.5,656.75,108.5,660.75" style="stroke:#A80036;stroke-width:1.0;"/><line style="stroke:#A80036;stroke-width:1.0;stroke-dasharray:2.0,2.0;" x1="102.5" x2="419.5" y1="656.75" y2="656.75"/><text fill="#000000" font-family="sans-serif" font-size="13" lengthAdjust="spacing" textLength="66" x="114.5" y="651.8936">resultString</text><polygon fill="#A80036" points="33,666.75,23,670.75,33,674.75" style="stroke:#A80036;stroke-width:1.0;"/><line style="stroke:#A80036;stroke-width:1.0;stroke-dasharray:2.0,2.0;" x1="27" x2="91.5" y1="670.75" y2="670.75"/><!--MD5=[0242905ec73f186d0d68e841beecf083]
@startuml
'https://plantuml.com/sequence-diagram
!include Style.puml

actor user

participant CLIverShelf as app LOGIC_COLOR
participant ":Parser" as parser LOGIC_COLOR_T1
participant ":newCommand: MarkUpCommand" as markupCommand MARKUP_COMMAND_COLOUR
participant ":SalesMarkUp" as SalesMarkUp SALES_MARKUP_COLOUR

user -> app: input
activate app
app -> parser: parseCommand(input)
activate parser
parser -> parser : prepareMarkup(argument)
activate parser
parser -> markupCommand **
deactivate parser
activate markupCommand
markupCommand - -> parser

deactivate markupCommand
parser - -> app
deactivate parser

app -> markupCommand: execute()

activate markupCommand

markupCommand -> SalesMarkUp ** : new SalesMarkUp(shelfName, index, userRequestPercent)
activate SalesMarkUp
SalesMarkUp - -> markupCommand
deactivate SalesMarkUp

markupCommand -> SalesMarkUp : getItemToMarkUpInfo()
activate SalesMarkUp
SalesMarkUp - -> markupCommand : itemMarkUpInfoString
deactivate SalesMarkUp

markupCommand -> SalesMarkUp : getSelectedItemMarkUpInfo()
activate SalesMarkUp
SalesMarkUp - -> markupCommand : selectedItemMarkUpInfoString
deactivate SalesMarkUp

alt userRequestPercent == ""
    markupCommand -> SalesMarkUp : getEstimatedMarkUpInfo()
    activate SalesMarkUp
    SalesMarkUp - -> markupCommand : estimatedMarkUpInfoString
    deactivate SalesMarkUp
else
   markupCommand -> SalesMarkUp : getUserRequestMarkUpInfo()
       activate SalesMarkUp
       SalesMarkUp - -> markupCommand : userRequestMarkUpInfoString
       deactivate SalesMarkUp
end

markupCommand - -> app : resultString
deactivate markupCommand
app - -> user

deactivate app



hide footbox

@enduml

@startuml
skinparam style strictuml
skinparam backgroundColor white
skinparam box white
skinparam classAttributeIconSize 0

actor user

participant CLIverShelf as app #ffbf00
participant ":Parser" as parser #ffff00
participant ":newCommand: MarkUpCommand" as markupCommand #ffaabb
participant ":SalesMarkUp" as SalesMarkUp #fad6a5

user -> app: input
activate app
app -> parser: parseCommand(input)
activate parser
parser -> parser : prepareMarkup(argument)
activate parser
parser -> markupCommand **
deactivate parser
activate markupCommand
markupCommand - -> parser

deactivate markupCommand
parser - -> app
deactivate parser

app -> markupCommand: execute()

activate markupCommand

markupCommand -> SalesMarkUp ** : new SalesMarkUp(shelfName, index, userRequestPercent)
activate SalesMarkUp
SalesMarkUp - -> markupCommand
deactivate SalesMarkUp

markupCommand -> SalesMarkUp : getItemToMarkUpInfo()
activate SalesMarkUp
SalesMarkUp - -> markupCommand : itemMarkUpInfoString
deactivate SalesMarkUp

markupCommand -> SalesMarkUp : getSelectedItemMarkUpInfo()
activate SalesMarkUp
SalesMarkUp - -> markupCommand : selectedItemMarkUpInfoString
deactivate SalesMarkUp

alt userRequestPercent == ""
    markupCommand -> SalesMarkUp : getEstimatedMarkUpInfo()
    activate SalesMarkUp
    SalesMarkUp - -> markupCommand : estimatedMarkUpInfoString
    deactivate SalesMarkUp
else
   markupCommand -> SalesMarkUp : getUserRequestMarkUpInfo()
       activate SalesMarkUp
       SalesMarkUp - -> markupCommand : userRequestMarkUpInfoString
       deactivate SalesMarkUp
end

markupCommand - -> app : resultString
deactivate markupCommand
app - -> user

deactivate app



hide footbox

@enduml

PlantUML version 1.2021.11(Sat Oct 02 21:26:11 SGT 2021)
(GPL source distribution)
Java Runtime: OpenJDK Runtime Environment
JVM: OpenJDK 64-Bit Server VM
Default Encoding: Cp1252
Language: en
Country: SG
--></g></svg>