<?xml version="1.0" encoding="UTF-8" standalone="no"?><svg xmlns="http://www.w3.org/2000/svg" xmlns:xlink="http://www.w3.org/1999/xlink" contentScriptType="application/ecmascript" contentStyleType="text/css" height="758px" preserveAspectRatio="none" style="width:961px;height:758px;background:#FFFFFF;" version="1.1" viewBox="0 0 961 758" width="961px" zoomAndPan="magnify"><defs/><g><rect fill="#FFFFFF" height="615.4922" style="stroke:#A80036;stroke-width:1.0;" width="10" x="87.5" y="117.9609"/><rect fill="#FFFFFF" height="113.9609" style="stroke:#A80036;stroke-width:1.0;" width="10" x="243.5" y="148.3125"/><rect fill="#FFFFFF" height="19" style="stroke:#A80036;stroke-width:1.0;" width="10" x="248.5" y="186.6641"/><rect fill="#FFFFFF" height="32.6094" style="stroke:#A80036;stroke-width:1.0;" width="10" x="470.5" y="215.6641"/><rect fill="#FFFFFF" height="426.8281" style="stroke:#A80036;stroke-width:1.0;" width="10" x="470.5" y="292.625"/><rect fill="#FFFFFF" height="16.2578" style="stroke:#A80036;stroke-width:1.0;" width="10" x="889" y="395.6797"/><rect fill="#FFFFFF" height="30.3516" style="stroke:#A80036;stroke-width:1.0;" width="10" x="889" y="442.2891"/><rect fill="#FFFFFF" height="30.3516" style="stroke:#A80036;stroke-width:1.0;" width="10" x="889" y="502.9922"/><rect fill="#FFFFFF" height="30.3516" style="stroke:#A80036;stroke-width:1.0;" width="10" x="889" y="589.0469"/><rect fill="#FFFFFF" height="30.3516" style="stroke:#A80036;stroke-width:1.0;" width="10" x="889" y="651.75"/><rect fill="#FFFFFF" height="48.7031" style="stroke:#000000;stroke-width:2.0;" width="560" x="39" y="307.625"/><rect fill="#FFFFFF" height="141.7578" style="stroke:#000000;stroke-width:2.0;" width="602.5" x="352" y="548.3438"/><rect fill="#FFFFFF" height="62.7031" style="stroke:none;stroke-width:1.0;" width="602.5" x="352" y="627.3984"/><line style="stroke:#A80036;stroke-width:1.0;stroke-dasharray:5.0,5.0;" x1="22" x2="22" y1="85.6094" y2="751.4531"/><line style="stroke:#A80036;stroke-width:1.0;stroke-dasharray:5.0,5.0;" x1="92" x2="92" y1="85.6094" y2="751.4531"/><line style="stroke:#A80036;stroke-width:1.0;stroke-dasharray:5.0,5.0;" x1="248.5" x2="248.5" y1="85.6094" y2="751.4531"/><line style="stroke:#A80036;stroke-width:1.0;stroke-dasharray:5.0,5.0;" x1="475" x2="475" y1="230.9688" y2="751.4531"/><line style="stroke:#A80036;stroke-width:1.0;stroke-dasharray:5.0,5.0;" x1="893.5" x2="893.5" y1="394.6328" y2="751.4531"/><text fill="#000000" font-family="sans-serif" font-size="14" lengthAdjust="spacing" textLength="28" x="5" y="82.5332">user</text><ellipse cx="22" cy="15" fill="#FEFECE" rx="8" ry="8" style="stroke:#A80036;stroke-width:2.0;"/><path d="M22,23 L22,50 M9,31 L35,31 M22,50 L9,65 M22,50 L35,65 " fill="none" style="stroke:#A80036;stroke-width:2.0;"/><rect fill="#FFBF00" height="31.6094" style="stroke:#A80036;stroke-width:1.5;" width="87" x="49" y="53"/><text fill="#000000" font-family="sans-serif" font-size="14" lengthAdjust="spacing" textLength="73" x="56" y="74.5332">CLIverShelf</text><rect fill="#FFFF00" height="31.6094" style="stroke:#A80036;stroke-width:1.5;" width="60" x="218.5" y="53"/><text fill="#000000" font-family="sans-serif" font-size="14" lengthAdjust="spacing" textLength="46" x="225.5" y="74.5332">:Parser</text><rect fill="#FFFFFF" height="615.4922" style="stroke:#A80036;stroke-width:1.0;" width="10" x="87.5" y="117.9609"/><rect fill="#FFFFFF" height="113.9609" style="stroke:#A80036;stroke-width:1.0;" width="10" x="243.5" y="148.3125"/><rect fill="#FFFFFF" height="19" style="stroke:#A80036;stroke-width:1.0;" width="10" x="248.5" y="186.6641"/><rect fill="#FFFFFF" height="32.6094" style="stroke:#A80036;stroke-width:1.0;" width="10" x="470.5" y="215.6641"/><rect fill="#FFFFFF" height="426.8281" style="stroke:#A80036;stroke-width:1.0;" width="10" x="470.5" y="292.625"/><rect fill="#FFFFFF" height="16.2578" style="stroke:#A80036;stroke-width:1.0;" width="10" x="889" y="395.6797"/><rect fill="#FFFFFF" height="30.3516" style="stroke:#A80036;stroke-width:1.0;" width="10" x="889" y="442.2891"/><rect fill="#FFFFFF" height="30.3516" style="stroke:#A80036;stroke-width:1.0;" width="10" x="889" y="502.9922"/><rect fill="#FFFFFF" height="30.3516" style="stroke:#A80036;stroke-width:1.0;" width="10" x="889" y="589.0469"/><rect fill="#FFFFFF" height="30.3516" style="stroke:#A80036;stroke-width:1.0;" width="10" x="889" y="651.75"/><polygon fill="#A80036" points="75.5,113.9609,85.5,117.9609,75.5,121.9609" style="stroke:#A80036;stroke-width:1.0;"/><line style="stroke:#A80036;stroke-width:1.0;" x1="22" x2="81.5" y1="117.9609" y2="117.9609"/><text fill="#000000" font-family="sans-serif" font-size="13" lengthAdjust="spacing" textLength="28" x="29" y="113.1045">input</text><polygon fill="#A80036" points="231.5,144.3125,241.5,148.3125,231.5,152.3125" style="stroke:#A80036;stroke-width:1.0;"/><line style="stroke:#A80036;stroke-width:1.0;" x1="97.5" x2="237.5" y1="148.3125" y2="148.3125"/><text fill="#000000" font-family="sans-serif" font-size="13" lengthAdjust="spacing" textLength="127" x="104.5" y="143.4561">parseCommand(input)</text><line style="stroke:#A80036;stroke-width:1.0;" x1="253.5" x2="300.5" y1="173.6641" y2="173.6641"/><line style="stroke:#A80036;stroke-width:1.0;" x1="300.5" x2="300.5" y1="173.6641" y2="186.6641"/><line style="stroke:#A80036;stroke-width:1.0;" x1="259.5" x2="300.5" y1="186.6641" y2="186.6641"/><polygon fill="#A80036" points="269.5,182.6641,259.5,186.6641,269.5,190.6641" style="stroke:#A80036;stroke-width:1.0;"/><text fill="#000000" font-family="sans-serif" font-size="13" lengthAdjust="spacing" textLength="148" x="265.5" y="168.8076">prepareMarkup(argument)</text><polygon fill="#A80036" points="350,201.6641,360,205.6641,350,209.6641" style="stroke:#A80036;stroke-width:1.0;"/><line style="stroke:#A80036;stroke-width:1.0;" x1="253.5" x2="356" y1="205.6641" y2="205.6641"/><rect fill="#FFAABB" height="31.6094" style="stroke:#A80036;stroke-width:1.5;" width="227" x="362" y="199.6641"/><text fill="#000000" font-family="sans-serif" font-size="14" lengthAdjust="spacing" textLength="213" x="369" y="221.1973">:newCommand: MarkUpCommand</text><polygon fill="#A80036" points="264.5,244.2734,254.5,248.2734,264.5,252.2734" style="stroke:#A80036;stroke-width:1.0;"/><line style="stroke:#A80036;stroke-width:1.0;stroke-dasharray:2.0,2.0;" x1="258.5" x2="474.5" y1="248.2734" y2="248.2734"/><polygon fill="#A80036" points="108.5,258.2734,98.5,262.2734,108.5,266.2734" style="stroke:#A80036;stroke-width:1.0;"/><line style="stroke:#A80036;stroke-width:1.0;stroke-dasharray:2.0,2.0;" x1="102.5" x2="247.5" y1="262.2734" y2="262.2734"/><polygon fill="#A80036" points="458.5,288.625,468.5,292.625,458.5,296.625" style="stroke:#A80036;stroke-width:1.0;"/><line style="stroke:#A80036;stroke-width:1.0;" x1="97.5" x2="464.5" y1="292.625" y2="292.625"/><text fill="#000000" font-family="sans-serif" font-size="13" lengthAdjust="spacing" textLength="54" x="104.5" y="287.7686">execute()</text><path d="M39,307.625 L100,307.625 L100,315.625 L90,325.625 L39,325.625 L39,307.625 " fill="#EEEEEE" style="stroke:#000000;stroke-width:1.0;"/><rect fill="none" height="48.7031" style="stroke:#000000;stroke-width:2.0;" width="560" x="39" y="307.625"/><text fill="#000000" font-family="sans-serif" font-size="13" font-weight="bold" lengthAdjust="spacing" textLength="16" x="54" y="322.1201">alt</text><text fill="#000000" font-family="sans-serif" font-size="11" font-weight="bold" lengthAdjust="spacing" textLength="141" x="115" y="321.0439">[shelfName == soldItems]</text><polygon fill="#A80036" points="108.5,344.3281,98.5,348.3281,108.5,352.3281" style="stroke:#A80036;stroke-width:1.0;"/><line style="stroke:#A80036;stroke-width:1.0;stroke-dasharray:2.0,2.0;" x1="102.5" x2="469.5" y1="348.3281" y2="348.3281"/><text fill="#000000" font-family="sans-serif" font-size="13" lengthAdjust="spacing" textLength="349" x="114.5" y="343.4717">MARKUP_ON_SOLDITEMS_NOT_PERMITTED_MESSAGE</text><polygon fill="#A80036" points="831.5,381.6797,841.5,385.6797,831.5,389.6797" style="stroke:#A80036;stroke-width:1.0;"/><line style="stroke:#A80036;stroke-width:1.0;" x1="480.5" x2="837.5" y1="385.6797" y2="385.6797"/><text fill="#000000" font-family="sans-serif" font-size="13" lengthAdjust="spacing" textLength="339" x="487.5" y="380.8232">new SalesMarkUp(shelfName, index, userRequestPercent)</text><rect fill="#FAD6A5" height="31.6094" style="stroke:#A80036;stroke-width:1.5;" width="101" x="843.5" y="363.3281"/><text fill="#000000" font-family="sans-serif" font-size="14" lengthAdjust="spacing" textLength="87" x="850.5" y="384.8613">:SalesMarkUp</text><polygon fill="#A80036" points="491.5,407.9375,481.5,411.9375,491.5,415.9375" style="stroke:#A80036;stroke-width:1.0;"/><line style="stroke:#A80036;stroke-width:1.0;stroke-dasharray:2.0,2.0;" x1="485.5" x2="893" y1="411.9375" y2="411.9375"/><polygon fill="#A80036" points="877,438.2891,887,442.2891,877,446.2891" style="stroke:#A80036;stroke-width:1.0;"/><line style="stroke:#A80036;stroke-width:1.0;" x1="480.5" x2="883" y1="442.2891" y2="442.2891"/><text fill="#000000" font-family="sans-serif" font-size="13" lengthAdjust="spacing" textLength="130" x="487.5" y="437.4326">getItemToMarkUpInfo()</text><polygon fill="#A80036" points="491.5,468.6406,481.5,472.6406,491.5,476.6406" style="stroke:#A80036;stroke-width:1.0;"/><line style="stroke:#A80036;stroke-width:1.0;stroke-dasharray:2.0,2.0;" x1="485.5" x2="893" y1="472.6406" y2="472.6406"/><text fill="#000000" font-family="sans-serif" font-size="13" lengthAdjust="spacing" textLength="124" x="497.5" y="467.7842">itemMarkUpInfoString</text><polygon fill="#A80036" points="877,498.9922,887,502.9922,877,506.9922" style="stroke:#A80036;stroke-width:1.0;"/><line style="stroke:#A80036;stroke-width:1.0;" x1="480.5" x2="883" y1="502.9922" y2="502.9922"/><text fill="#000000" font-family="sans-serif" font-size="13" lengthAdjust="spacing" textLength="167" x="487.5" y="498.1357">getSelectedItemMarkUpInfo()</text><polygon fill="#A80036" points="491.5,529.3438,481.5,533.3438,491.5,537.3438" style="stroke:#A80036;stroke-width:1.0;"/><line style="stroke:#A80036;stroke-width:1.0;stroke-dasharray:2.0,2.0;" x1="485.5" x2="893" y1="533.3438" y2="533.3438"/><text fill="#000000" font-family="sans-serif" font-size="13" lengthAdjust="spacing" textLength="173" x="497.5" y="528.4873">selectedItemMarkUpInfoString</text><path d="M352,548.3438 L413,548.3438 L413,556.3438 L403,566.3438 L352,566.3438 L352,548.3438 " fill="#EEEEEE" style="stroke:#000000;stroke-width:1.0;"/><rect fill="none" height="141.7578" style="stroke:#000000;stroke-width:2.0;" width="602.5" x="352" y="548.3438"/><text fill="#000000" font-family="sans-serif" font-size="13" font-weight="bold" lengthAdjust="spacing" textLength="16" x="367" y="562.8389">alt</text><text fill="#000000" font-family="sans-serif" font-size="11" font-weight="bold" lengthAdjust="spacing" textLength="151" x="428" y="561.7627">[userRequestPercent == ""]</text><polygon fill="#A80036" points="877,585.0469,887,589.0469,877,593.0469" style="stroke:#A80036;stroke-width:1.0;"/><line style="stroke:#A80036;stroke-width:1.0;" x1="480.5" x2="883" y1="589.0469" y2="589.0469"/><text fill="#000000" font-family="sans-serif" font-size="13" lengthAdjust="spacing" textLength="150" x="487.5" y="584.1904">getEstimatedMarkUpInfo()</text><polygon fill="#A80036" points="491.5,615.3984,481.5,619.3984,491.5,623.3984" style="stroke:#A80036;stroke-width:1.0;"/><line style="stroke:#A80036;stroke-width:1.0;stroke-dasharray:2.0,2.0;" x1="485.5" x2="893" y1="619.3984" y2="619.3984"/><text fill="#000000" font-family="sans-serif" font-size="13" lengthAdjust="spacing" textLength="156" x="497.5" y="614.542">estimatedMarkUpInfoString</text><line style="stroke:#000000;stroke-width:1.0;stroke-dasharray:2.0,2.0;" x1="352" x2="954.5" y1="628.3984" y2="628.3984"/><polygon fill="#A80036" points="877,647.75,887,651.75,877,655.75" style="stroke:#A80036;stroke-width:1.0;"/><line style="stroke:#A80036;stroke-width:1.0;" x1="480.5" x2="883" y1="651.75" y2="651.75"/><text fill="#000000" font-family="sans-serif" font-size="13" lengthAdjust="spacing" textLength="166" x="487.5" y="646.8936">getUserRequestMarkUpInfo()</text><polygon fill="#A80036" points="491.5,678.1016,481.5,682.1016,491.5,686.1016" style="stroke:#A80036;stroke-width:1.0;"/><line style="stroke:#A80036;stroke-width:1.0;stroke-dasharray:2.0,2.0;" x1="485.5" x2="893" y1="682.1016" y2="682.1016"/><text fill="#000000" font-family="sans-serif" font-size="13" lengthAdjust="spacing" textLength="172" x="497.5" y="677.2451">userRequestMarkUpInfoString</text><polygon fill="#A80036" points="108.5,715.4531,98.5,719.4531,108.5,723.4531" style="stroke:#A80036;stroke-width:1.0;"/><line style="stroke:#A80036;stroke-width:1.0;stroke-dasharray:2.0,2.0;" x1="102.5" x2="474.5" y1="719.4531" y2="719.4531"/><text fill="#000000" font-family="sans-serif" font-size="13" lengthAdjust="spacing" textLength="66" x="114.5" y="714.5967">resultString</text><polygon fill="#A80036" points="33,729.4531,23,733.4531,33,737.4531" style="stroke:#A80036;stroke-width:1.0;"/><line style="stroke:#A80036;stroke-width:1.0;stroke-dasharray:2.0,2.0;" x1="27" x2="91.5" y1="733.4531" y2="733.4531"/><!--MD5=[b65aaaee0c29e1c51482080b7aafcdf4]
@startuml
'https://plantuml.com/sequence-diagram
!include Style.puml

actor user

participant CLIverShelf as app LOGIC_COLOR
participant ":Parser" as parser LOGIC_COLOR_T1
participant ":newCommand: MarkUpCommand" as markupCommand MARKUP_COMMAND_COLOUR
participant ":SalesMarkUp" as SalesMarkUp SALES_MARKUP_COLOUR

user -> app: input
activate app
app -> parser: parseCommand(input)
activate parser
parser -> parser : prepareMarkup(argument)
activate parser
parser -> markupCommand **
deactivate parser
activate markupCommand
markupCommand - -> parser

deactivate markupCommand
parser - -> app
deactivate parser

app -> markupCommand: execute()

activate markupCommand
alt shelfName == soldItems
    markupCommand - -> app : MARKUP_ON_SOLDITEMS_NOT_PERMITTED_MESSAGE
end

markupCommand -> SalesMarkUp ** : new SalesMarkUp(shelfName, index, userRequestPercent)
activate SalesMarkUp
SalesMarkUp - -> markupCommand
deactivate SalesMarkUp

markupCommand -> SalesMarkUp : getItemToMarkUpInfo()
activate SalesMarkUp
SalesMarkUp - -> markupCommand : itemMarkUpInfoString
deactivate SalesMarkUp

markupCommand -> SalesMarkUp : getSelectedItemMarkUpInfo()
activate SalesMarkUp
SalesMarkUp - -> markupCommand : selectedItemMarkUpInfoString
deactivate SalesMarkUp

alt userRequestPercent == ""
    markupCommand -> SalesMarkUp : getEstimatedMarkUpInfo()
    activate SalesMarkUp
    SalesMarkUp - -> markupCommand : estimatedMarkUpInfoString
    deactivate SalesMarkUp
else
   markupCommand -> SalesMarkUp : getUserRequestMarkUpInfo()
       activate SalesMarkUp
       SalesMarkUp - -> markupCommand : userRequestMarkUpInfoString
       deactivate SalesMarkUp
end

markupCommand - -> app : resultString
deactivate markupCommand
app - -> user
deactivate app

hide footbox

@enduml

@startuml
skinparam style strictuml
skinparam backgroundColor white
skinparam box white

actor user

participant CLIverShelf as app #ffbf00
participant ":Parser" as parser #ffff00
participant ":newCommand: MarkUpCommand" as markupCommand #ffaabb
participant ":SalesMarkUp" as SalesMarkUp #fad6a5

user -> app: input
activate app
app -> parser: parseCommand(input)
activate parser
parser -> parser : prepareMarkup(argument)
activate parser
parser -> markupCommand **
deactivate parser
activate markupCommand
markupCommand - -> parser

deactivate markupCommand
parser - -> app
deactivate parser

app -> markupCommand: execute()

activate markupCommand
alt shelfName == soldItems
    markupCommand - -> app : MARKUP_ON_SOLDITEMS_NOT_PERMITTED_MESSAGE
end

markupCommand -> SalesMarkUp ** : new SalesMarkUp(shelfName, index, userRequestPercent)
activate SalesMarkUp
SalesMarkUp - -> markupCommand
deactivate SalesMarkUp

markupCommand -> SalesMarkUp : getItemToMarkUpInfo()
activate SalesMarkUp
SalesMarkUp - -> markupCommand : itemMarkUpInfoString
deactivate SalesMarkUp

markupCommand -> SalesMarkUp : getSelectedItemMarkUpInfo()
activate SalesMarkUp
SalesMarkUp - -> markupCommand : selectedItemMarkUpInfoString
deactivate SalesMarkUp

alt userRequestPercent == ""
    markupCommand -> SalesMarkUp : getEstimatedMarkUpInfo()
    activate SalesMarkUp
    SalesMarkUp - -> markupCommand : estimatedMarkUpInfoString
    deactivate SalesMarkUp
else
   markupCommand -> SalesMarkUp : getUserRequestMarkUpInfo()
       activate SalesMarkUp
       SalesMarkUp - -> markupCommand : userRequestMarkUpInfoString
       deactivate SalesMarkUp
end

markupCommand - -> app : resultString
deactivate markupCommand
app - -> user
deactivate app

hide footbox

@enduml

PlantUML version 1.2021.11(Sat Oct 02 21:26:11 SGT 2021)
(GPL source distribution)
Java Runtime: OpenJDK Runtime Environment
JVM: OpenJDK 64-Bit Server VM
Default Encoding: Cp1252
Language: en
Country: SG
--></g></svg>