<?xml version="1.0" encoding="UTF-8" standalone="no"?><svg xmlns="http://www.w3.org/2000/svg" xmlns:xlink="http://www.w3.org/1999/xlink" contentScriptType="application/ecmascript" contentStyleType="text/css" height="243px" preserveAspectRatio="none" style="width:408px;height:243px;background:#FFFFFF;" version="1.1" viewBox="0 0 408 243" width="408px" zoomAndPan="magnify"><defs><filter height="300%" id="f16bkwe2gss92y" width="300%" x="-1" y="-1"><feGaussianBlur result="blurOut" stdDeviation="2.0"/><feColorMatrix in="blurOut" result="blurOut2" type="matrix" values="0 0 0 0 0 0 0 0 0 0 0 0 0 0 0 0 0 0 .4 0"/><feOffset dx="4.0" dy="4.0" in="blurOut2" result="blurOut3"/><feBlend in="SourceGraphic" in2="blurOut3" mode="normal"/></filter></defs><g><rect fill="#FFFFFF" filter="url(#f16bkwe2gss92y)" height="146.6953" style="stroke:#A80036;stroke-width:1.0;" width="10" x="196" y="71.4297"/><rect fill="#FFFFFF" filter="url(#f16bkwe2gss92y)" height="14" style="stroke:#A80036;stroke-width:1.0;" width="10" x="201" y="145.8594"/><rect fill="#FFFFFF" filter="url(#f16bkwe2gss92y)" height="93.5625" style="stroke:#A80036;stroke-width:1.0;" width="10" x="336.5" y="95.4297"/><line style="stroke:#A80036;stroke-width:1.0;stroke-dasharray:5.0,5.0;" x1="53" x2="53" y1="40.2969" y2="236.125"/><line style="stroke:#A80036;stroke-width:1.0;stroke-dasharray:5.0,5.0;" x1="200.5" x2="200.5" y1="40.2969" y2="236.125"/><line style="stroke:#A80036;stroke-width:1.0;stroke-dasharray:5.0,5.0;" x1="341.5" x2="341.5" y1="112.0781" y2="236.125"/><rect fill="#FEFECE" filter="url(#f16bkwe2gss92y)" height="30.2969" style="stroke:#A80036;stroke-width:1.5;" width="92" x="5" y="5"/><text fill="#000000" font-family="sans-serif" font-size="14" lengthAdjust="spacing" textLength="78" x="12" y="24.9951">:Command</text><rect fill="#FEFECE" filter="url(#f16bkwe2gss92y)" height="30.2969" style="stroke:#A80036;stroke-width:1.5;" width="143" x="127.5" y="5"/><text fill="#000000" font-family="sans-serif" font-size="14" lengthAdjust="spacing" textLength="129" x="134.5" y="24.9951">shelfList:ShelfList</text><rect fill="#FFFFFF" filter="url(#f16bkwe2gss92y)" height="146.6953" style="stroke:#A80036;stroke-width:1.0;" width="10" x="196" y="71.4297"/><rect fill="#FFFFFF" filter="url(#f16bkwe2gss92y)" height="14" style="stroke:#A80036;stroke-width:1.0;" width="10" x="201" y="145.8594"/><rect fill="#FFFFFF" filter="url(#f16bkwe2gss92y)" height="93.5625" style="stroke:#A80036;stroke-width:1.0;" width="10" x="336.5" y="95.4297"/><polygon fill="#A80036" points="184,67.4297,194,71.4297,184,75.4297,188,71.4297" style="stroke:#A80036;stroke-width:1.0;"/><line style="stroke:#A80036;stroke-width:1.0;" x1="53" x2="190" y1="71.4297" y2="71.4297"/><text fill="#000000" font-family="sans-serif" font-size="13" lengthAdjust="spacing" textLength="124" x="60" y="66.3638">addShelf("novel-1")</text><polygon fill="#A80036" points="272.5,81.4297,282.5,85.4297,272.5,89.4297,276.5,85.4297" style="stroke:#A80036;stroke-width:1.0;"/><line style="stroke:#A80036;stroke-width:1.0;" x1="206" x2="278.5" y1="85.4297" y2="85.4297"/><rect fill="#FEFECE" filter="url(#f16bkwe2gss92y)" height="30.2969" style="stroke:#A80036;stroke-width:1.5;" width="110" x="284.5" y="79.4297"/><text fill="#000000" font-family="sans-serif" font-size="14" lengthAdjust="spacing" textLength="96" x="291.5" y="99.4248">novel-1:Shelf</text><polygon fill="#A80036" points="222,141.8594,212,145.8594,222,149.8594,218,145.8594" style="stroke:#A80036;stroke-width:1.0;"/><line style="stroke:#A80036;stroke-width:1.0;" x1="216" x2="335.5" y1="145.8594" y2="145.8594"/><text fill="#000000" font-family="sans-serif" font-size="13" lengthAdjust="spacing" textLength="89" x="228" y="140.7935">addShelf(this)</text><polygon fill="#A80036" points="324.5,155.8594,334.5,159.8594,324.5,163.8594,328.5,159.8594" style="stroke:#A80036;stroke-width:1.0;"/><line style="stroke:#A80036;stroke-width:1.0;stroke-dasharray:2.0,2.0;" x1="206" x2="330.5" y1="159.8594" y2="159.8594"/><polygon fill="#A80036" points="217,184.9922,207,188.9922,217,192.9922,213,188.9922" style="stroke:#A80036;stroke-width:1.0;"/><line style="stroke:#A80036;stroke-width:1.0;stroke-dasharray:2.0,2.0;" x1="211" x2="340.5" y1="188.9922" y2="188.9922"/><text fill="#000000" font-family="sans-serif" font-size="13" lengthAdjust="spacing" textLength="48" x="223" y="183.9263">novel-1</text><polygon fill="#A80036" points="64,214.125,54,218.125,64,222.125,60,218.125" style="stroke:#A80036;stroke-width:1.0;"/><line style="stroke:#A80036;stroke-width:1.0;stroke-dasharray:2.0,2.0;" x1="58" x2="200" y1="218.125" y2="218.125"/><text fill="#000000" font-family="sans-serif" font-size="13" lengthAdjust="spacing" textLength="48" x="70" y="213.0591">novel-1</text><!--MD5=[e5a4bb49be1c663ca38e05ea3900042f]
@startuml
hide footbox
participant ":Command" as command
participant "shelfList:ShelfList" as shelfList
participant "novel-1:Shelf" as shelf
command -> shelfList: addShelf("novel-1")
activate shelfList
shelfList -> shelf**
activate shelf
shelf -> shelfList:addShelf(this)
activate shelfList
shelfList - -> shelf
deactivate
shelf - -> shelfList: novel-1
deactivate
shelfList - -> command: novel-1
deactivate
@enduml

PlantUML version 1.2021.13beta8(Unknown compile time)
(GPL source distribution)
Java Runtime: Java(TM) SE Runtime Environment
JVM: Java HotSpot(TM) 64-Bit Server VM
Default Encoding: UTF-8
Language: en
Country: US
--></g></svg>