<?xml version="1.0" encoding="UTF-8" standalone="no"?><svg xmlns="http://www.w3.org/2000/svg" xmlns:xlink="http://www.w3.org/1999/xlink" contentScriptType="application/ecmascript" contentStyleType="text/css" height="371px" preserveAspectRatio="none" style="width:603px;height:371px;background:#FFFFFF;" version="1.1" viewBox="0 0 603 371" width="603px" zoomAndPan="magnify"><defs/><g><rect fill="#FFFFFF" height="225.1377" style="stroke:#A80036;stroke-width:1.0;" width="10" x="85" y="120.8745"/><rect fill="#FFFFFF" height="179.3833" style="stroke:#A80036;stroke-width:1.0;" width="10" x="274" y="152.6289"/><rect fill="#FFFFFF" height="100.8745" style="stroke:#A80036;stroke-width:1.0;" width="10" x="279" y="192.3833"/><rect fill="#FFFFFF" height="34.1201" style="stroke:#A80036;stroke-width:1.0;" width="10" x="499" y="221.3833"/><line style="stroke:#A80036;stroke-width:1.0;stroke-dasharray:5.0,5.0;" x1="22" x2="22" y1="87.1201" y2="364.0122"/><line style="stroke:#A80036;stroke-width:1.0;stroke-dasharray:5.0,5.0;" x1="90" x2="90" y1="87.1201" y2="364.0122"/><line style="stroke:#A80036;stroke-width:1.0;stroke-dasharray:5.0,5.0;" x1="279" x2="279" y1="87.1201" y2="364.0122"/><line style="stroke:#A80036;stroke-width:1.0;stroke-dasharray:5.0,5.0;" x1="503.5" x2="503.5" y1="237.4434" y2="364.0122"/><text fill="#000000" font-family="sans-serif" font-size="14" lengthAdjust="spacing" textLength="28" x="5" y="84.0439">user</text><ellipse cx="22" cy="15" fill="#FEFECE" rx="8" ry="8" style="stroke:#A80036;stroke-width:2.0;"/><path d="M22,23 L22,50 M9,31 L35,31 M22,50 L9,65 M22,50 L35,65 " fill="none" style="stroke:#A80036;stroke-width:2.0;"/><rect fill="#FEFECE" height="33.1201" style="stroke:#A80036;stroke-width:1.5;" width="82" x="49" y="53"/><text fill="#000000" font-family="sans-serif" font-size="14" lengthAdjust="spacing" textLength="68" x="56" y="76.0439">CliverShelf</text><rect fill="#FEFECE" height="33.1201" style="stroke:#A80036;stroke-width:1.5;" width="60" x="249" y="53"/><text fill="#000000" font-family="sans-serif" font-size="14" lengthAdjust="spacing" textLength="46" x="256" y="76.0439">:Parser</text><rect fill="#FFFFFF" height="225.1377" style="stroke:#A80036;stroke-width:1.0;" width="10" x="85" y="120.8745"/><rect fill="#FFFFFF" height="179.3833" style="stroke:#A80036;stroke-width:1.0;" width="10" x="274" y="152.6289"/><rect fill="#FFFFFF" height="100.8745" style="stroke:#A80036;stroke-width:1.0;" width="10" x="279" y="192.3833"/><rect fill="#FFFFFF" height="34.1201" style="stroke:#A80036;stroke-width:1.0;" width="10" x="499" y="221.3833"/><polygon fill="#A80036" points="73,116.8745,83,120.8745,73,124.8745" style="stroke:#A80036;stroke-width:1.0;"/><line style="stroke:#A80036;stroke-width:1.0;" x1="22" x2="79" y1="120.8745" y2="120.8745"/><text fill="#000000" font-family="sans-serif" font-size="13" lengthAdjust="spacing" textLength="28" x="29" y="116.0181">input</text><polygon fill="#A80036" points="262,148.6289,272,152.6289,262,156.6289" style="stroke:#A80036;stroke-width:1.0;"/><line style="stroke:#A80036;stroke-width:1.0;" x1="95" x2="268" y1="152.6289" y2="152.6289"/><text fill="#000000" font-family="sans-serif" font-size="13" lengthAdjust="spacing" textLength="127" x="102" y="147.7725">parseCommand(input)</text><line style="stroke:#A80036;stroke-width:1.0;" x1="284" x2="331" y1="179.3833" y2="179.3833"/><line style="stroke:#A80036;stroke-width:1.0;" x1="331" x2="331" y1="179.3833" y2="192.3833"/><line style="stroke:#A80036;stroke-width:1.0;" x1="290" x2="331" y1="192.3833" y2="192.3833"/><polygon fill="#A80036" points="300,188.3833,290,192.3833,300,196.3833" style="stroke:#A80036;stroke-width:1.0;"/><text fill="#000000" font-family="sans-serif" font-size="13" lengthAdjust="spacing" textLength="201" x="296" y="174.5269">prepare{commandWord}(argument)</text><polygon fill="#A80036" points="398.5,207.3833,408.5,211.3833,398.5,215.3833" style="stroke:#A80036;stroke-width:1.0;"/><line style="stroke:#A80036;stroke-width:1.0;" x1="289" x2="404.5" y1="211.3833" y2="211.3833"/><rect fill="#FEFECE" height="33.1201" style="stroke:#A80036;stroke-width:1.5;" width="187" x="410.5" y="205.3833"/><text fill="#000000" font-family="sans-serif" font-size="14" lengthAdjust="spacing" textLength="173" x="417.5" y="228.4272">:{commandWord}Command</text><polygon fill="#A80036" points="300,251.5034,290,255.5034,300,259.5034" style="stroke:#A80036;stroke-width:1.0;"/><line style="stroke:#A80036;stroke-width:1.0;stroke-dasharray:2.0,2.0;" x1="294" x2="503" y1="255.5034" y2="255.5034"/><line style="stroke:#A80036;stroke-width:1.0;stroke-dasharray:2.0,2.0;" x1="289" x2="331" y1="292.2578" y2="292.2578"/><line style="stroke:#A80036;stroke-width:1.0;stroke-dasharray:2.0,2.0;" x1="331" x2="331" y1="292.2578" y2="305.2578"/><line style="stroke:#A80036;stroke-width:1.0;stroke-dasharray:2.0,2.0;" x1="284" x2="331" y1="305.2578" y2="305.2578"/><polygon fill="#A80036" points="294,301.2578,284,305.2578,294,309.2578" style="stroke:#A80036;stroke-width:1.0;"/><text fill="#000000" font-family="sans-serif" font-size="13" lengthAdjust="spacing" textLength="182" x="296" y="287.4014">new {commandWord}Command</text><polygon fill="#A80036" points="106,328.0122,96,332.0122,106,336.0122" style="stroke:#A80036;stroke-width:1.0;"/><line style="stroke:#A80036;stroke-width:1.0;stroke-dasharray:2.0,2.0;" x1="100" x2="278" y1="332.0122" y2="332.0122"/><text fill="#000000" font-family="sans-serif" font-size="13" lengthAdjust="spacing" textLength="155" x="112" y="327.1558">{commandWord}Command</text><polygon fill="#A80036" points="33,342.0122,23,346.0122,33,350.0122" style="stroke:#A80036;stroke-width:1.0;"/><line style="stroke:#A80036;stroke-width:1.0;stroke-dasharray:2.0,2.0;" x1="27" x2="89" y1="346.0122" y2="346.0122"/><!--MD5=[cdb8a34aa2edee580d77fb99e2463646]
@startuml
'https://plantuml.com/sequence-diagram
!include Style.puml
actor user

participant CliverShelf as app
participant ":Parser" as parser
participant ":{commandWord}Command" as newCommand

user -> app: input
activate app
app -> parser: parseCommand(input)
activate parser
parser -> parser : prepare{commandWord}(argument)
activate parser
parser -> newCommand **
activate newCommand
newCommand - -> parser
deactivate newCommand

parser - -> parser : new {commandWord}Command

deactivate parser

parser - -> app : {commandWord}Command
deactivate parser
app - -> user
deactivate app

@enduml

@startuml
skinparam style strictuml
skinparam backgroundColor white
skinparam box white
skinparam classAttributeIconSize 0
actor user

participant CliverShelf as app
participant ":Parser" as parser
participant ":{commandWord}Command" as newCommand

user -> app: input
activate app
app -> parser: parseCommand(input)
activate parser
parser -> parser : prepare{commandWord}(argument)
activate parser
parser -> newCommand **
activate newCommand
newCommand - -> parser
deactivate newCommand

parser - -> parser : new {commandWord}Command

deactivate parser

parser - -> app : {commandWord}Command
deactivate parser
app - -> user
deactivate app

@enduml

PlantUML version 1.2021.11(Sat Oct 02 21:26:11 CST 2021)
(GPL source distribution)
Java Runtime: OpenJDK Runtime Environment
JVM: OpenJDK 64-Bit Server VM
Default Encoding: GBK
Language: zh
Country: CN
--></g></svg>