<?xml version="1.0" encoding="UTF-8" standalone="no"?><svg xmlns="http://www.w3.org/2000/svg" xmlns:xlink="http://www.w3.org/1999/xlink" contentScriptType="application/ecmascript" contentStyleType="text/css" height="360px" preserveAspectRatio="none" style="width:606px;height:360px;background:#FFFFFF;" version="1.1" viewBox="0 0 606 360" width="606px" zoomAndPan="magnify"><defs/><g><rect fill="#FFFFFF" height="218.0156" style="stroke:#A80036;stroke-width:1.0;" width="10" x="87.5" y="117.9609"/><rect fill="#FFFFFF" height="173.6641" style="stroke:#A80036;stroke-width:1.0;" width="10" x="276.5" y="148.3125"/><rect fill="#FFFFFF" height="97.9609" style="stroke:#A80036;stroke-width:1.0;" width="10" x="281.5" y="186.6641"/><rect fill="#FFFFFF" height="32.6094" style="stroke:#A80036;stroke-width:1.0;" width="10" x="501.5" y="215.6641"/><line style="stroke:#A80036;stroke-width:1.0;stroke-dasharray:5.0,5.0;" x1="22" x2="22" y1="85.6094" y2="353.9766"/><line style="stroke:#A80036;stroke-width:1.0;stroke-dasharray:5.0,5.0;" x1="92" x2="92" y1="85.6094" y2="353.9766"/><line style="stroke:#A80036;stroke-width:1.0;stroke-dasharray:5.0,5.0;" x1="281.5" x2="281.5" y1="85.6094" y2="353.9766"/><line style="stroke:#A80036;stroke-width:1.0;stroke-dasharray:5.0,5.0;" x1="506" x2="506" y1="230.9688" y2="353.9766"/><text fill="#000000" font-family="sans-serif" font-size="14" lengthAdjust="spacing" textLength="28" x="5" y="82.5332">user</text><ellipse cx="22" cy="15" fill="#FEFECE" rx="8" ry="8" style="stroke:#A80036;stroke-width:2.0;"/><path d="M22,23 L22,50 M9,31 L35,31 M22,50 L9,65 M22,50 L35,65 " fill="none" style="stroke:#A80036;stroke-width:2.0;"/><rect fill="#FFBF00" height="31.6094" style="stroke:#A80036;stroke-width:1.5;" width="87" x="49" y="53"/><text fill="#000000" font-family="sans-serif" font-size="14" lengthAdjust="spacing" textLength="73" x="56" y="74.5332">CLIverShelf</text><rect fill="#FFFF00" height="31.6094" style="stroke:#A80036;stroke-width:1.5;" width="60" x="251.5" y="53"/><text fill="#000000" font-family="sans-serif" font-size="14" lengthAdjust="spacing" textLength="46" x="258.5" y="74.5332">:Parser</text><rect fill="#FFFFFF" height="218.0156" style="stroke:#A80036;stroke-width:1.0;" width="10" x="87.5" y="117.9609"/><rect fill="#FFFFFF" height="173.6641" style="stroke:#A80036;stroke-width:1.0;" width="10" x="276.5" y="148.3125"/><rect fill="#FFFFFF" height="97.9609" style="stroke:#A80036;stroke-width:1.0;" width="10" x="281.5" y="186.6641"/><rect fill="#FFFFFF" height="32.6094" style="stroke:#A80036;stroke-width:1.0;" width="10" x="501.5" y="215.6641"/><polygon fill="#A80036" points="75.5,113.9609,85.5,117.9609,75.5,121.9609" style="stroke:#A80036;stroke-width:1.0;"/><line style="stroke:#A80036;stroke-width:1.0;" x1="22" x2="81.5" y1="117.9609" y2="117.9609"/><text fill="#000000" font-family="sans-serif" font-size="13" lengthAdjust="spacing" textLength="28" x="29" y="113.1045">input</text><polygon fill="#A80036" points="264.5,144.3125,274.5,148.3125,264.5,152.3125" style="stroke:#A80036;stroke-width:1.0;"/><line style="stroke:#A80036;stroke-width:1.0;" x1="97.5" x2="270.5" y1="148.3125" y2="148.3125"/><text fill="#000000" font-family="sans-serif" font-size="13" lengthAdjust="spacing" textLength="127" x="104.5" y="143.4561">parseCommand(input)</text><line style="stroke:#A80036;stroke-width:1.0;" x1="286.5" x2="333.5" y1="173.6641" y2="173.6641"/><line style="stroke:#A80036;stroke-width:1.0;" x1="333.5" x2="333.5" y1="173.6641" y2="186.6641"/><line style="stroke:#A80036;stroke-width:1.0;" x1="292.5" x2="333.5" y1="186.6641" y2="186.6641"/><polygon fill="#A80036" points="302.5,182.6641,292.5,186.6641,302.5,190.6641" style="stroke:#A80036;stroke-width:1.0;"/><text fill="#000000" font-family="sans-serif" font-size="13" lengthAdjust="spacing" textLength="201" x="298.5" y="168.8076">prepare{commandWord}(argument)</text><polygon fill="#A80036" points="401,201.6641,411,205.6641,401,209.6641" style="stroke:#A80036;stroke-width:1.0;"/><line style="stroke:#A80036;stroke-width:1.0;" x1="291.5" x2="407" y1="205.6641" y2="205.6641"/><rect fill="#FFAABB" height="31.6094" style="stroke:#A80036;stroke-width:1.5;" width="187" x="413" y="199.6641"/><text fill="#000000" font-family="sans-serif" font-size="14" lengthAdjust="spacing" textLength="173" x="420" y="221.1973">:{commandWord}Command</text><polygon fill="#A80036" points="302.5,244.2734,292.5,248.2734,302.5,252.2734" style="stroke:#A80036;stroke-width:1.0;"/><line style="stroke:#A80036;stroke-width:1.0;stroke-dasharray:2.0,2.0;" x1="296.5" x2="505.5" y1="248.2734" y2="248.2734"/><line style="stroke:#A80036;stroke-width:1.0;stroke-dasharray:2.0,2.0;" x1="291.5" x2="333.5" y1="283.625" y2="283.625"/><line style="stroke:#A80036;stroke-width:1.0;stroke-dasharray:2.0,2.0;" x1="333.5" x2="333.5" y1="283.625" y2="296.625"/><line style="stroke:#A80036;stroke-width:1.0;stroke-dasharray:2.0,2.0;" x1="286.5" x2="333.5" y1="296.625" y2="296.625"/><polygon fill="#A80036" points="296.5,292.625,286.5,296.625,296.5,300.625" style="stroke:#A80036;stroke-width:1.0;"/><text fill="#000000" font-family="sans-serif" font-size="13" lengthAdjust="spacing" textLength="182" x="298.5" y="278.7686">new {commandWord}Command</text><polygon fill="#A80036" points="108.5,317.9766,98.5,321.9766,108.5,325.9766" style="stroke:#A80036;stroke-width:1.0;"/><line style="stroke:#A80036;stroke-width:1.0;stroke-dasharray:2.0,2.0;" x1="102.5" x2="280.5" y1="321.9766" y2="321.9766"/><text fill="#000000" font-family="sans-serif" font-size="13" lengthAdjust="spacing" textLength="155" x="114.5" y="317.1201">{commandWord}Command</text><polygon fill="#A80036" points="33,331.9766,23,335.9766,33,339.9766" style="stroke:#A80036;stroke-width:1.0;"/><line style="stroke:#A80036;stroke-width:1.0;stroke-dasharray:2.0,2.0;" x1="27" x2="91.5" y1="335.9766" y2="335.9766"/><!--MD5=[7ae23a5455b2361a4a4739392084fc07]
@startuml
'https://plantuml.com/sequence-diagram
!include Style.puml
actor user

participant CLIverShelf as app LOGIC_COLOR
participant ":Parser" as parser LOGIC_COLOR_T1
participant ":{commandWord}Command" as newCommand MARKUP_COMMAND_COLOUR

user -> app: input
activate app
app -> parser: parseCommand(input)
activate parser
parser -> parser : prepare{commandWord}(argument)
activate parser
parser -> newCommand **
activate newCommand
newCommand - -> parser
deactivate newCommand

parser - -> parser : new {commandWord}Command

deactivate parser

parser - -> app : {commandWord}Command
deactivate parser
app - -> user
deactivate app

@enduml

@startuml
skinparam style strictuml
skinparam backgroundColor white
skinparam box white
skinparam classAttributeIconSize 0
actor user

participant CLIverShelf as app #ffbf00
participant ":Parser" as parser #ffff00
participant ":{commandWord}Command" as newCommand #ffaabb

user -> app: input
activate app
app -> parser: parseCommand(input)
activate parser
parser -> parser : prepare{commandWord}(argument)
activate parser
parser -> newCommand **
activate newCommand
newCommand - -> parser
deactivate newCommand

parser - -> parser : new {commandWord}Command

deactivate parser

parser - -> app : {commandWord}Command
deactivate parser
app - -> user
deactivate app

@enduml

PlantUML version 1.2021.11(Sat Oct 02 21:26:11 SGT 2021)
(GPL source distribution)
Java Runtime: OpenJDK Runtime Environment
JVM: OpenJDK 64-Bit Server VM
Default Encoding: Cp1252
Language: en
Country: SG
--></g></svg>