<?xml version="1.0" encoding="UTF-8" standalone="no"?><svg xmlns="http://www.w3.org/2000/svg" xmlns:xlink="http://www.w3.org/1999/xlink" contentScriptType="application/ecmascript" contentStyleType="text/css" height="343px" preserveAspectRatio="none" style="width:351px;height:343px;background:#FFFFFF;" version="1.1" viewBox="0 0 351 343" width="351px" zoomAndPan="magnify"><defs/><g><!--MD5=[97ef906b1d0ea9ba1310723274dfd56e]
class CLIvershelf--><rect codeLine="5" fill="#FEFECE" height="26.3887" id="CLIvershelf" style="stroke:#A80036;stroke-width:1.5;" width="68" x="121" y="7"/><text fill="#000000" font-family="sans-serif" font-size="12" lengthAdjust="spacing" textLength="62" x="124" y="25.752">CLIvershelf</text><!--MD5=[71cea2dfb2163bac4b85ec617c47f2aa]
class SalesManager--><rect codeLine="6" fill="#FEFECE" height="26.3887" id="SalesManager" style="stroke:#A80036;stroke-width:1.5;" width="86" x="28" y="311"/><text fill="#000000" font-family="sans-serif" font-size="12" lengthAdjust="spacing" textLength="80" x="31" y="329.752">SalesManager</text><!--MD5=[114918039f41c3fe658f8cf1cba4717d]
class SellCommand--><rect codeLine="7" fill="#FEFECE" height="26.3887" id="SellCommand" style="stroke:#A80036;stroke-width:1.5;" width="86" x="7" y="168"/><text fill="#000000" font-family="sans-serif" font-size="12" lengthAdjust="spacing" textLength="80" x="10" y="186.752">SellCommand</text><!--MD5=[f97d9cdbbad848d6467e4cf8becab05b]
class ReportCommand--><rect codeLine="8" fill="#FEFECE" height="26.3887" id="ReportCommand" style="stroke:#A80036;stroke-width:1.5;" width="102" x="100" y="112"/><text fill="#000000" font-family="sans-serif" font-size="12" lengthAdjust="spacing" textLength="96" x="103" y="130.752">ReportCommand</text><!--MD5=[f2131b5177caf1431dd19e2745434090]
class MarkUpCommand--><rect codeLine="9" fill="#FEFECE" height="26.3887" id="MarkUpCommand" style="stroke:#A80036;stroke-width:1.5;" width="107" x="237.5" y="112"/><text fill="#000000" font-family="sans-serif" font-size="12" lengthAdjust="spacing" textLength="101" x="240.5" y="130.752">MarkUpCommand</text><!--MD5=[76f3fdfefeefff14323f9e9b031a1186]
class SalesReport--><rect codeLine="10" fill="#FEFECE" height="26.3887" id="SalesReport" style="stroke:#A80036;stroke-width:1.5;" width="75" x="106.5" y="224"/><text fill="#000000" font-family="sans-serif" font-size="12" lengthAdjust="spacing" textLength="69" x="109.5" y="242.752">SalesReport</text><!--MD5=[b3f309f94dd16375349f0d0c3d202b6e]
class SalesMarkUp--><rect fill="#FEFECE" height="26.3887" id="SalesMarkUp" style="stroke:#A80036;stroke-width:1.5;" width="80" x="251" y="224"/><text fill="#000000" font-family="sans-serif" font-size="12" lengthAdjust="spacing" textLength="74" x="254" y="242.752">SalesMarkUp</text><!--MD5=[465191a4dc48dc1fde4a8047c914756b]
link CLIvershelf to ReportCommand--><path codeLine="13" d="M154.53,33.22 C153.76,53.04 152.24,91.98 151.47,111.8 " fill="none" id="CLIvershelf-ReportCommand" style="stroke:#A80036;stroke-width:1.0;"/><polygon fill="#000000" points="158.8054,77.8734,162.0941,68.9495,156.2207,68.7208,158.8054,77.8734" style="stroke:#000000;stroke-width:1.0;"/><text fill="#000000" font-family="sans-serif" font-size="13" lengthAdjust="spacing" textLength="53" x="168" y="78.8979">executes</text><!--MD5=[e4695e1ec1b737d808962c963b22f0aa]
link CLIvershelf to SellCommand--><path codeLine="14" d="M120.64,32.05 C105.15,38.69 87.92,48.69 77,63 C52.72,94.82 49.67,144.72 49.67,167.68 " fill="none" id="CLIvershelf-SellCommand" style="stroke:#A80036;stroke-width:1.0;"/><polygon fill="#000000" points="79.6819,77.3074,86.4794,70.6557,81.2714,67.9306,79.6819,77.3074" style="stroke:#000000;stroke-width:1.0;"/><text fill="#000000" font-family="sans-serif" font-size="13" lengthAdjust="spacing" textLength="53" x="91" y="78.8979">executes</text><!--MD5=[bfb169280b4917c133303aa77e459b7c]
link CLIvershelf to MarkUpCommand--><path codeLine="15" d="M180.73,33.18 C195.73,40.81 214.65,51.38 230,63 C249.58,77.82 269.11,98.69 280.62,111.77 " fill="none" id="CLIvershelf-MarkUpCommand" style="stroke:#A80036;stroke-width:1.0;"/><polygon fill="#000000" points="260.9296,75.9689,255.6381,68.0662,252.0037,72.6857,260.9296,75.9689" style="stroke:#000000;stroke-width:1.0;"/><text fill="#000000" font-family="sans-serif" font-size="13" lengthAdjust="spacing" textLength="53" x="266" y="78.8979">executes</text><!--MD5=[2e62dfbe5d1b95778ab6a4c9bdebeb59]
link ReportCommand to SalesReport--><path codeLine="17" d="M150.22,138.19 C148.98,157.77 146.53,196.28 145.1,218.69 " fill="none" id="ReportCommand-to-SalesReport" style="stroke:#A80036;stroke-width:1.0;"/><polygon fill="#A80036" points="144.78,223.75,149.3383,215.0195,145.0946,218.7599,141.3541,214.5162,144.78,223.75" style="stroke:#A80036;stroke-width:1.0;"/><!--MD5=[84842e30aee1b4b5c4ebf82e5bfe9e0c]
link SalesReport to SalesManager--><path codeLine="18" d="M133.54,250.18 C120.75,265.07 99.05,290.34 84.87,306.85 " fill="none" id="SalesReport-to-SalesManager" style="stroke:#A80036;stroke-width:1.0;"/><polygon fill="#A80036" points="81.44,310.84,90.342,306.6264,84.701,307.0498,84.2777,301.4088,81.44,310.84" style="stroke:#A80036;stroke-width:1.0;"/><!--MD5=[2c7945e80522ad8a63c27e64cc502081]
link MarkUpCommand to SalesMarkUp--><path codeLine="19" d="M291,138.19 C291,157.77 291,196.28 291,218.69 " fill="none" id="MarkUpCommand-to-SalesMarkUp" style="stroke:#A80036;stroke-width:1.0;"/><polygon fill="#A80036" points="291,223.75,295,214.75,291,218.75,287,214.75,291,223.75" style="stroke:#A80036;stroke-width:1.0;"/><!--MD5=[0d9265a4d3005c8fb5c0fdbfb5818085]
link SellCommand to SalesManager--><path codeLine="20" d="M51.79,194.02 C55.51,218.97 64.07,276.48 68.4,305.53 " fill="none" id="SellCommand-to-SalesManager" style="stroke:#A80036;stroke-width:1.0;"/><polygon fill="#A80036" points="69.15,310.61,71.768,301.1155,68.4069,305.6655,63.8568,302.3044,69.15,310.61" style="stroke:#A80036;stroke-width:1.0;"/><!--MD5=[300f83e33250770e48bb3f8219d98c85]
@startuml
'https://plantuml.com/class-diagram
!include Style.puml
hide empty members

class CLIvershelf
class SalesManager
class SellCommand
class ReportCommand
class MarkUpCommand
class SalesReport


CLIvershelf - - ReportCommand : executes >
CLIvershelf - - SellCommand : executes >
CLIvershelf - - MarkUpCommand : executes >

ReportCommand - -> SalesReport
SalesReport - -> SalesManager
MarkUpCommand - -> SalesMarkUp
SellCommand - -> SalesManager

@enduml

@startuml
skinparam style strictuml
skinparam backgroundColor white
skinparam box white
skinparam classAttributeIconSize 0
hide empty members

class CLIvershelf
class SalesManager
class SellCommand
class ReportCommand
class MarkUpCommand
class SalesReport


CLIvershelf - - ReportCommand : executes >
CLIvershelf - - SellCommand : executes >
CLIvershelf - - MarkUpCommand : executes >

ReportCommand - -> SalesReport
SalesReport - -> SalesManager
MarkUpCommand - -> SalesMarkUp
SellCommand - -> SalesManager

@enduml

PlantUML version 1.2021.11(Sat Oct 02 21:26:11 CST 2021)
(GPL source distribution)
Java Runtime: OpenJDK Runtime Environment
JVM: OpenJDK 64-Bit Server VM
Default Encoding: GBK
Language: zh
Country: CN
--></g></svg>