<?xml version="1.0" encoding="UTF-8" standalone="no"?><svg xmlns="http://www.w3.org/2000/svg" xmlns:xlink="http://www.w3.org/1999/xlink" contentScriptType="application/ecmascript" contentStyleType="text/css" height="337px" preserveAspectRatio="none" style="width:351px;height:337px;background:#FFFFFF;" version="1.1" viewBox="0 0 351 337" width="351px" zoomAndPan="magnify"><defs/><g><!--MD5=[cbbc2731b9f44e58649810226c96c33b]
class CliverShelf--><rect codeLine="5" fill="#FEFECE" height="25.0938" id="CliverShelf" style="stroke:#A80036;stroke-width:1.5;" width="65" x="122.5" y="7"/><text fill="#000000" font-family="sans-serif" font-size="12" lengthAdjust="spacing" textLength="59" x="125.5" y="24.457">CliverShelf</text><!--MD5=[71cea2dfb2163bac4b85ec617c47f2aa]
class SalesManager--><rect codeLine="6" fill="#FEFECE" height="25.0938" id="SalesManager" style="stroke:#A80036;stroke-width:1.5;" width="86" x="28" y="306"/><text fill="#000000" font-family="sans-serif" font-size="12" lengthAdjust="spacing" textLength="80" x="31" y="323.457">SalesManager</text><!--MD5=[114918039f41c3fe658f8cf1cba4717d]
class SellCommand--><rect codeLine="7" fill="#FEFECE" height="25.0938" id="SellCommand" style="stroke:#A80036;stroke-width:1.5;" width="86" x="7" y="165"/><text fill="#000000" font-family="sans-serif" font-size="12" lengthAdjust="spacing" textLength="80" x="10" y="182.457">SellCommand</text><!--MD5=[f97d9cdbbad848d6467e4cf8becab05b]
class ReportCommand--><rect codeLine="8" fill="#FEFECE" height="25.0938" id="ReportCommand" style="stroke:#A80036;stroke-width:1.5;" width="102" x="100" y="110"/><text fill="#000000" font-family="sans-serif" font-size="12" lengthAdjust="spacing" textLength="96" x="103" y="127.457">ReportCommand</text><!--MD5=[f2131b5177caf1431dd19e2745434090]
class MarkUpCommand--><rect codeLine="9" fill="#FEFECE" height="25.0938" id="MarkUpCommand" style="stroke:#A80036;stroke-width:1.5;" width="107" x="237.5" y="110"/><text fill="#000000" font-family="sans-serif" font-size="12" lengthAdjust="spacing" textLength="101" x="240.5" y="127.457">MarkUpCommand</text><!--MD5=[76f3fdfefeefff14323f9e9b031a1186]
class SalesReport--><rect codeLine="10" fill="#FEFECE" height="25.0938" id="SalesReport" style="stroke:#A80036;stroke-width:1.5;" width="75" x="106.5" y="220"/><text fill="#000000" font-family="sans-serif" font-size="12" lengthAdjust="spacing" textLength="69" x="109.5" y="237.457">SalesReport</text><!--MD5=[b3f309f94dd16375349f0d0c3d202b6e]
class SalesMarkUp--><rect fill="#FEFECE" height="25.0938" id="SalesMarkUp" style="stroke:#A80036;stroke-width:1.5;" width="80" x="251" y="220"/><text fill="#000000" font-family="sans-serif" font-size="12" lengthAdjust="spacing" textLength="74" x="254" y="237.457">SalesMarkUp</text><!--MD5=[ec1bb137a14f44414f253b74623983b9]
link CliverShelf to ReportCommand--><path codeLine="12" d="M154.54,32.09 C153.77,51.46 152.24,90.24 151.47,109.74 " fill="none" id="CliverShelf-ReportCommand" style="stroke:#A80036;stroke-width:1.0;"/><polygon fill="#000000" points="158.8025,76.1719,162.0964,67.25,156.2232,67.0178,158.8025,76.1719" style="stroke:#000000;stroke-width:1.0;"/><text fill="#000000" font-family="sans-serif" font-size="13" lengthAdjust="spacing" textLength="53" x="168" y="76.4951">executes</text><!--MD5=[a4982ff9a6360283cf040c563da7eee6]
link CliverShelf to SellCommand--><path codeLine="13" d="M122.26,30.69 C106.38,37.22 88.33,47.3 77,62 C52.94,93.22 49.81,142.44 49.73,164.78 " fill="none" id="CliverShelf-SellCommand" style="stroke:#A80036;stroke-width:1.0;"/><polygon fill="#000000" points="79.6212,75.5736,86.5095,69.0161,81.3395,66.2196,79.6212,75.5736" style="stroke:#000000;stroke-width:1.0;"/><text fill="#000000" font-family="sans-serif" font-size="13" lengthAdjust="spacing" textLength="53" x="91" y="76.4951">executes</text><!--MD5=[426a96dca8041701f540be095942f98b]
link CliverShelf to MarkUpCommand--><path codeLine="14" d="M179.65,32.03 C194.79,39.61 214.23,50.28 230,62 C249.47,76.47 269.03,96.82 280.57,109.58 " fill="none" id="CliverShelf-MarkUpCommand" style="stroke:#A80036;stroke-width:1.0;"/><polygon fill="#000000" points="258.9647,74.2223,253.5833,66.3807,250.0018,71.0414,258.9647,74.2223" style="stroke:#000000;stroke-width:1.0;"/><text fill="#000000" font-family="sans-serif" font-size="13" lengthAdjust="spacing" textLength="53" x="264" y="76.4951">executes</text><!--MD5=[2e62dfbe5d1b95778ab6a4c9bdebeb59]
link ReportCommand to SalesReport--><path codeLine="16" d="M150.25,135.06 C149.01,154.2 146.52,192.57 145.09,214.71 " fill="none" id="ReportCommand-to-SalesReport" style="stroke:#A80036;stroke-width:1.0;"/><polygon fill="#A80036" points="144.76,219.7,149.3183,210.9695,145.0746,214.7099,141.3341,210.4662,144.76,219.7" style="stroke:#A80036;stroke-width:1.0;"/><!--MD5=[84842e30aee1b4b5c4ebf82e5bfe9e0c]
link SalesReport to SalesManager--><path codeLine="17" d="M133.85,245.18 C120.99,259.97 98.79,285.52 84.51,301.95 " fill="none" id="SalesReport-to-SalesManager" style="stroke:#A80036;stroke-width:1.0;"/><polygon fill="#A80036" points="81.06,305.92,89.9789,301.7424,84.3363,302.143,83.9357,296.5003,81.06,305.92" style="stroke:#A80036;stroke-width:1.0;"/><!--MD5=[2c7945e80522ad8a63c27e64cc502081]
link MarkUpCommand to SalesMarkUp--><path codeLine="18" d="M291,135.06 C291,154.12 291,192.25 291,214.42 " fill="none" id="MarkUpCommand-to-SalesMarkUp" style="stroke:#A80036;stroke-width:1.0;"/><polygon fill="#A80036" points="291,219.7,295,210.7,291,214.7,287,210.7,291,219.7" style="stroke:#A80036;stroke-width:1.0;"/><!--MD5=[0d9265a4d3005c8fb5c0fdbfb5818085]
link SellCommand to SalesManager--><path codeLine="19" d="M51.79,190.35 C55.53,215.07 64.16,272.21 68.46,300.71 " fill="none" id="SellCommand-to-SalesManager" style="stroke:#A80036;stroke-width:1.0;"/><polygon fill="#A80036" points="69.21,305.68,71.8012,296.1781,68.4529,300.7376,63.8934,297.3894,69.21,305.68" style="stroke:#A80036;stroke-width:1.0;"/><!--MD5=[e6b500bddb16dd1220a8ee7bdd600110]
@startuml
'https://plantuml.com/class-diagram
!include Style.puml
hide empty members

class CliverShelf
class SalesManager
class SellCommand
class ReportCommand
class MarkUpCommand
class SalesReport

CliverShelf - - ReportCommand : executes >
CliverShelf - - SellCommand : executes >
CliverShelf - - MarkUpCommand : executes >

ReportCommand - -> SalesReport
SalesReport - -> SalesManager
MarkUpCommand - -> SalesMarkUp
SellCommand - -> SalesManager

@enduml

@startuml
skinparam style strictuml
skinparam backgroundColor white
skinparam box white
skinparam classAttributeIconSize 0
hide empty members

class CliverShelf
class SalesManager
class SellCommand
class ReportCommand
class MarkUpCommand
class SalesReport

CliverShelf - - ReportCommand : executes >
CliverShelf - - SellCommand : executes >
CliverShelf - - MarkUpCommand : executes >

ReportCommand - -> SalesReport
SalesReport - -> SalesManager
MarkUpCommand - -> SalesMarkUp
SellCommand - -> SalesManager

@enduml

PlantUML version 1.2021.11(Sat Oct 02 21:26:11 SGT 2021)
(GPL source distribution)
Java Runtime: OpenJDK Runtime Environment
JVM: OpenJDK 64-Bit Server VM
Default Encoding: Cp1252
Language: en
Country: SG
--></g></svg>