<?xml version="1.0" encoding="UTF-8" standalone="no"?><svg xmlns="http://www.w3.org/2000/svg" xmlns:xlink="http://www.w3.org/1999/xlink" contentScriptType="application/ecmascript" contentStyleType="text/css" height="1072px" preserveAspectRatio="none" style="width:1398px;height:1072px;background:#FFFFFF;" version="1.1" viewBox="0 0 1398 1072" width="1398px" zoomAndPan="magnify"><defs><filter height="300%" id="f1jr8w1jnv9cgw" width="300%" x="-1" y="-1"><feGaussianBlur result="blurOut" stdDeviation="2.0"/><feColorMatrix in="blurOut" result="blurOut2" type="matrix" values="0 0 0 0 0 0 0 0 0 0 0 0 0 0 0 0 0 0 .4 0"/><feOffset dx="4.0" dy="4.0" in="blurOut2" result="blurOut3"/><feBlend in="SourceGraphic" in2="blurOut3" mode="normal"/></filter></defs><g><rect fill="#FFFFFF" filter="url(#f1jr8w1jnv9cgw)" height="976.0957" style="stroke:#A80036;stroke-width:1.0;" width="10" x="141.5" y="71.7988"/><rect fill="#FFFFFF" filter="url(#f1jr8w1jnv9cgw)" height="504.8359" style="stroke:#A80036;stroke-width:1.0;" width="10" x="146.5" y="522.0586"/><rect fill="#FFFFFF" filter="url(#f1jr8w1jnv9cgw)" height="202.7305" style="stroke:#A80036;stroke-width:1.0;" width="10" x="328.5" y="170.9082"/><rect fill="#FFFFFF" filter="url(#f1jr8w1jnv9cgw)" height="40.3105" style="stroke:#A80036;stroke-width:1.0;" width="10" x="333.5" y="253.707"/><rect fill="#FFFFFF" filter="url(#f1jr8w1jnv9cgw)" height="29.3105" style="stroke:#A80036;stroke-width:1.0;" width="10" x="328.5" y="409.9492"/><rect fill="#FFFFFF" filter="url(#f1jr8w1jnv9cgw)" height="29.3105" style="stroke:#A80036;stroke-width:1.0;" width="10" x="611" y="684.7891"/><rect fill="#FFFFFF" filter="url(#f1jr8w1jnv9cgw)" height="74.7988" style="stroke:#A80036;stroke-width:1.0;" width="10" x="775.5" y="580.6797"/><rect fill="#FFFFFF" filter="url(#f1jr8w1jnv9cgw)" height="50.7988" style="stroke:#A80036;stroke-width:1.0;" width="10" x="1075" y="816.0313"/><rect fill="#FFFFFF" filter="url(#f1jr8w1jnv9cgw)" height="50.7988" style="stroke:#A80036;stroke-width:1.0;" width="10" x="1251" y="905.7852"/><rect fill="#FFFFFF" filter="url(#f1jr8w1jnv9cgw)" height="249.3516" style="stroke:#000000;stroke-width:2.0;" width="430" x="99" y="132.2871"/><rect fill="#FFFFFF" filter="url(#f1jr8w1jnv9cgw)" height="465.8359" style="stroke:#000000;stroke-width:2.0;" width="1305" x="79" y="542.0586"/><rect fill="#FFFFFF" filter="url(#f1jr8w1jnv9cgw)" height="271.7949" style="stroke:#000000;stroke-width:2.0;" width="1285" x="89" y="729.0996"/><rect fill="#FFFFFF" filter="url(#f1jr8w1jnv9cgw)" height="181.8633" style="stroke:#000000;stroke-width:2.0;" width="1265" x="99" y="782.7207"/><rect fill="#FFFFFF" height="89.7539" style="stroke:none;stroke-width:1.0;" width="1265" x="99" y="874.8301"/><line style="stroke:#A80036;stroke-width:1.0;stroke-dasharray:5.0,5.0;" x1="52" x2="52" y1="40.4883" y2="1065.8945"/><line style="stroke:#A80036;stroke-width:1.0;stroke-dasharray:5.0,5.0;" x1="146" x2="146" y1="40.4883" y2="1065.8945"/><line style="stroke:#A80036;stroke-width:1.0;stroke-dasharray:5.0,5.0;" x1="333" x2="333" y1="112.543" y2="1065.8945"/><line style="stroke:#A80036;stroke-width:1.0;stroke-dasharray:5.0,5.0;" x1="475" x2="475" y1="211.6523" y2="1065.8945"/><line style="stroke:#A80036;stroke-width:1.0;stroke-dasharray:5.0,5.0;" x1="616" x2="616" y1="480.0039" y2="1065.8945"/><line style="stroke:#A80036;stroke-width:1.0;stroke-dasharray:5.0,5.0;" x1="780" x2="780" y1="40.4883" y2="1065.8945"/><line style="stroke:#A80036;stroke-width:1.0;stroke-dasharray:5.0,5.0;" x1="930" x2="930" y1="621.4238" y2="1065.8945"/><line style="stroke:#A80036;stroke-width:1.0;stroke-dasharray:5.0,5.0;" x1="1080" x2="1080" y1="832.7754" y2="1065.8945"/><line style="stroke:#A80036;stroke-width:1.0;stroke-dasharray:5.0,5.0;" x1="1256" x2="1256" y1="922.5293" y2="1065.8945"/><rect fill="#FEFECE" filter="url(#f1jr8w1jnv9cgw)" height="30.4883" style="stroke:#A80036;stroke-width:1.5;" width="90" x="5" y="5"/><text fill="#000000" font-family="sans-serif" font-size="14" lengthAdjust="spacing" textLength="76" x="12" y="25.5352">CLIverShelf</text><rect fill="#FEFECE" filter="url(#f1jr8w1jnv9cgw)" height="30.4883" style="stroke:#A80036;stroke-width:1.5;" width="71" x="109" y="5"/><text fill="#000000" font-family="sans-serif" font-size="14" lengthAdjust="spacing" textLength="57" x="116" y="25.5352">:Storage</text><rect fill="#FEFECE" filter="url(#f1jr8w1jnv9cgw)" height="30.4883" style="stroke:#A80036;stroke-width:1.5;" width="131" x="713" y="5"/><text fill="#000000" font-family="sans-serif" font-size="14" lengthAdjust="spacing" textLength="117" x="720" y="25.5352">shelfList:ShelfList</text><rect fill="#FFFFFF" filter="url(#f1jr8w1jnv9cgw)" height="976.0957" style="stroke:#A80036;stroke-width:1.0;" width="10" x="141.5" y="71.7988"/><rect fill="#FFFFFF" filter="url(#f1jr8w1jnv9cgw)" height="504.8359" style="stroke:#A80036;stroke-width:1.0;" width="10" x="146.5" y="522.0586"/><rect fill="#FFFFFF" filter="url(#f1jr8w1jnv9cgw)" height="202.7305" style="stroke:#A80036;stroke-width:1.0;" width="10" x="328.5" y="170.9082"/><rect fill="#FFFFFF" filter="url(#f1jr8w1jnv9cgw)" height="40.3105" style="stroke:#A80036;stroke-width:1.0;" width="10" x="333.5" y="253.707"/><rect fill="#FFFFFF" filter="url(#f1jr8w1jnv9cgw)" height="29.3105" style="stroke:#A80036;stroke-width:1.0;" width="10" x="328.5" y="409.9492"/><rect fill="#FFFFFF" filter="url(#f1jr8w1jnv9cgw)" height="29.3105" style="stroke:#A80036;stroke-width:1.0;" width="10" x="611" y="684.7891"/><rect fill="#FFFFFF" filter="url(#f1jr8w1jnv9cgw)" height="74.7988" style="stroke:#A80036;stroke-width:1.0;" width="10" x="775.5" y="580.6797"/><rect fill="#FFFFFF" filter="url(#f1jr8w1jnv9cgw)" height="50.7988" style="stroke:#A80036;stroke-width:1.0;" width="10" x="1075" y="816.0313"/><rect fill="#FFFFFF" filter="url(#f1jr8w1jnv9cgw)" height="50.7988" style="stroke:#A80036;stroke-width:1.0;" width="10" x="1251" y="905.7852"/><polygon fill="#A80036" points="129.5,67.7988,139.5,71.7988,129.5,75.7988,133.5,71.7988" style="stroke:#A80036;stroke-width:1.0;"/><line style="stroke:#A80036;stroke-width:1.0;" x1="52" x2="135.5" y1="71.7988" y2="71.7988"/><text fill="#000000" font-family="sans-serif" font-size="13" lengthAdjust="spacing" textLength="64" x="59" y="67.0566">loadData()</text><polygon fill="#A80036" points="288,81.7988,298,85.7988,288,89.7988,292,85.7988" style="stroke:#A80036;stroke-width:1.0;"/><line style="stroke:#A80036;stroke-width:1.0;" x1="151.5" x2="294" y1="85.7988" y2="85.7988"/><rect fill="#FEFECE" filter="url(#f1jr8w1jnv9cgw)" height="30.4883" style="stroke:#A80036;stroke-width:1.5;" width="63" x="300" y="79.7988"/><text fill="#000000" font-family="sans-serif" font-size="14" lengthAdjust="spacing" textLength="49" x="307" y="100.334">file:File</text><path d="M99,132.2871 L166,132.2871 L166,139.2871 L156,149.2871 L99,149.2871 L99,132.2871 " fill="#EEEEEE" style="stroke:#000000;stroke-width:1.0;"/><rect fill="none" height="249.3516" style="stroke:#000000;stroke-width:2.0;" width="430" x="99" y="132.2871"/><text fill="#000000" font-family="sans-serif" font-size="13" font-weight="bold" lengthAdjust="spacing" textLength="22" x="114" y="145.8555">opt</text><text fill="#000000" font-family="sans-serif" font-size="11" font-weight="bold" lengthAdjust="spacing" textLength="79" x="181" y="144.9219">[file not exist]</text><polygon fill="#A80036" points="316.5,166.9082,326.5,170.9082,316.5,174.9082,320.5,170.9082" style="stroke:#A80036;stroke-width:1.0;"/><line style="stroke:#A80036;stroke-width:1.0;" x1="151.5" x2="322.5" y1="170.9082" y2="170.9082"/><text fill="#000000" font-family="sans-serif" font-size="13" lengthAdjust="spacing" textLength="95" x="158.5" y="166.166">createNewFile()</text><polygon fill="#A80036" points="420,180.9082,430,184.9082,420,188.9082,424,184.9082" style="stroke:#A80036;stroke-width:1.0;"/><line style="stroke:#A80036;stroke-width:1.0;" x1="338.5" x2="426" y1="184.9082" y2="184.9082"/><rect fill="#FEFECE" filter="url(#f1jr8w1jnv9cgw)" height="30.4883" style="stroke:#A80036;stroke-width:1.5;" width="83" x="432" y="178.9082"/><text fill="#000000" font-family="sans-serif" font-size="14" lengthAdjust="spacing" textLength="69" x="439" y="199.4434">:FileWriter</text><line style="stroke:#A80036;stroke-width:1.0;" x1="338.5" x2="385.5" y1="240.707" y2="240.707"/><line style="stroke:#A80036;stroke-width:1.0;" x1="385.5" x2="385.5" y1="240.707" y2="253.707"/><line style="stroke:#A80036;stroke-width:1.0;" x1="344.5" x2="385.5" y1="253.707" y2="253.707"/><polygon fill="#A80036" points="354.5,249.707,344.5,253.707,354.5,257.707,350.5,253.707" style="stroke:#A80036;stroke-width:1.0;"/><text fill="#000000" font-family="sans-serif" font-size="13" lengthAdjust="spacing" textLength="82" x="350.5" y="235.9648">sampleData()</text><line style="stroke:#A80036;stroke-width:1.0;stroke-dasharray:2.0,2.0;" x1="343.5" x2="385.5" y1="293.0176" y2="293.0176"/><line style="stroke:#A80036;stroke-width:1.0;stroke-dasharray:2.0,2.0;" x1="385.5" x2="385.5" y1="293.0176" y2="306.0176"/><line style="stroke:#A80036;stroke-width:1.0;stroke-dasharray:2.0,2.0;" x1="338.5" x2="385.5" y1="306.0176" y2="306.0176"/><polygon fill="#A80036" points="348.5,302.0176,338.5,306.0176,348.5,310.0176,344.5,306.0176" style="stroke:#A80036;stroke-width:1.0;"/><text fill="#000000" font-family="sans-serif" font-size="13" lengthAdjust="spacing" textLength="74" x="350.5" y="288.2754">sampleData</text><polygon fill="#A80036" points="463.5,326.3281,473.5,330.3281,463.5,334.3281,467.5,330.3281" style="stroke:#A80036;stroke-width:1.0;"/><line style="stroke:#A80036;stroke-width:1.0;" x1="338.5" x2="469.5" y1="330.3281" y2="330.3281"/><text fill="#000000" font-family="sans-serif" font-size="13" lengthAdjust="spacing" textLength="113" x="345.5" y="325.5859">write(sampleData)</text><polygon fill="#A80036" points="463.5,355.6387,473.5,359.6387,463.5,363.6387,467.5,359.6387" style="stroke:#A80036;stroke-width:1.0;"/><line style="stroke:#A80036;stroke-width:1.0;" x1="338.5" x2="469.5" y1="359.6387" y2="359.6387"/><text fill="#000000" font-family="sans-serif" font-size="13" lengthAdjust="spacing" textLength="41" x="345.5" y="354.8965">close()</text><line style="stroke:#A80036;stroke-width:2.0;" x1="466.5" x2="484.5" y1="350.6387" y2="368.6387"/><line style="stroke:#A80036;stroke-width:2.0;" x1="466.5" x2="484.5" y1="368.6387" y2="350.6387"/><polygon fill="#A80036" points="162.5,369.6387,152.5,373.6387,162.5,377.6387,158.5,373.6387" style="stroke:#A80036;stroke-width:1.0;"/><line style="stroke:#A80036;stroke-width:1.0;stroke-dasharray:2.0,2.0;" x1="156.5" x2="332.5" y1="373.6387" y2="373.6387"/><polygon fill="#A80036" points="316.5,405.9492,326.5,409.9492,316.5,413.9492,320.5,409.9492" style="stroke:#A80036;stroke-width:1.0;"/><line style="stroke:#A80036;stroke-width:1.0;" x1="151.5" x2="322.5" y1="409.9492" y2="409.9492"/><text fill="#000000" font-family="sans-serif" font-size="13" lengthAdjust="spacing" textLength="72" x="158.5" y="405.207">readString()</text><polygon fill="#A80036" points="162.5,435.2598,152.5,439.2598,162.5,443.2598,158.5,439.2598" style="stroke:#A80036;stroke-width:1.0;"/><line style="stroke:#A80036;stroke-width:1.0;stroke-dasharray:2.0,2.0;" x1="156.5" x2="332.5" y1="439.2598" y2="439.2598"/><text fill="#000000" font-family="sans-serif" font-size="13" lengthAdjust="spacing" textLength="25" x="168.5" y="434.5176">text</text><polygon fill="#A80036" points="517,464.5703,527,468.5703,517,472.5703,521,468.5703" style="stroke:#A80036;stroke-width:1.0;"/><line style="stroke:#A80036;stroke-width:1.0;" x1="151.5" x2="523" y1="468.5703" y2="468.5703"/><text fill="#000000" font-family="sans-serif" font-size="13" lengthAdjust="spacing" textLength="134" x="158.5" y="463.8281">new JSONObject(text)</text><rect fill="#FEFECE" filter="url(#f1jr8w1jnv9cgw)" height="30.4883" style="stroke:#A80036;stroke-width:1.5;" width="170" x="529" y="447.2598"/><text fill="#000000" font-family="sans-serif" font-size="14" lengthAdjust="spacing" textLength="156" x="536" y="467.7949">storedData:JSONObject</text><line style="stroke:#A80036;stroke-width:1.0;" x1="151.5" x2="198.5" y1="509.0586" y2="509.0586"/><line style="stroke:#A80036;stroke-width:1.0;" x1="198.5" x2="198.5" y1="509.0586" y2="522.0586"/><line style="stroke:#A80036;stroke-width:1.0;" x1="157.5" x2="198.5" y1="522.0586" y2="522.0586"/><polygon fill="#A80036" points="167.5,518.0586,157.5,522.0586,167.5,526.0586,163.5,522.0586" style="stroke:#A80036;stroke-width:1.0;"/><text fill="#000000" font-family="sans-serif" font-size="13" lengthAdjust="spacing" textLength="163" x="163.5" y="504.3164">loadFromJson(storedData)</text><path d="M79,542.0586 L153,542.0586 L153,549.0586 L143,559.0586 L79,559.0586 L79,542.0586 " fill="#EEEEEE" style="stroke:#000000;stroke-width:1.0;"/><rect fill="none" height="465.8359" style="stroke:#000000;stroke-width:2.0;" width="1305" x="79" y="542.0586"/><text fill="#000000" font-family="sans-serif" font-size="13" font-weight="bold" lengthAdjust="spacing" textLength="29" x="94" y="555.627">loop</text><text fill="#000000" font-family="sans-serif" font-size="11" font-weight="bold" lengthAdjust="spacing" textLength="231" x="168" y="554.6934">[for all shelfName in storedData.keySet()]</text><polygon fill="#A80036" points="763.5,576.6797,773.5,580.6797,763.5,584.6797,767.5,580.6797" style="stroke:#A80036;stroke-width:1.0;"/><line style="stroke:#A80036;stroke-width:1.0;" x1="156.5" x2="769.5" y1="580.6797" y2="580.6797"/><text fill="#000000" font-family="sans-serif" font-size="13" lengthAdjust="spacing" textLength="129" x="163.5" y="575.9375">addShelf(shelfName)</text><polygon fill="#A80036" points="846,590.6797,856,594.6797,846,598.6797,850,594.6797" style="stroke:#A80036;stroke-width:1.0;"/><line style="stroke:#A80036;stroke-width:1.0;" x1="785.5" x2="852" y1="594.6797" y2="594.6797"/><rect fill="#FEFECE" filter="url(#f1jr8w1jnv9cgw)" height="30.4883" style="stroke:#A80036;stroke-width:1.5;" width="140" x="858" y="588.6797"/><text fill="#000000" font-family="sans-serif" font-size="14" lengthAdjust="spacing" textLength="126" x="865" y="609.2148">currentShelf: Shelf</text><polygon fill="#A80036" points="167.5,651.4785,157.5,655.4785,167.5,659.4785,163.5,655.4785" style="stroke:#A80036;stroke-width:1.0;"/><line style="stroke:#A80036;stroke-width:1.0;stroke-dasharray:2.0,2.0;" x1="161.5" x2="779.5" y1="655.4785" y2="655.4785"/><text fill="#000000" font-family="sans-serif" font-size="13" lengthAdjust="spacing" textLength="76" x="173.5" y="650.7363">currentShelf</text><polygon fill="#A80036" points="599,680.7891,609,684.7891,599,688.7891,603,684.7891" style="stroke:#A80036;stroke-width:1.0;"/><line style="stroke:#A80036;stroke-width:1.0;" x1="156.5" x2="605" y1="684.7891" y2="684.7891"/><text fill="#000000" font-family="sans-serif" font-size="13" lengthAdjust="spacing" textLength="369" x="163.5" y="680.0469">getJSONObject(shelfName).getJSONObject("items").keySet()</text><polygon fill="#A80036" points="167.5,710.0996,157.5,714.0996,167.5,718.0996,163.5,714.0996" style="stroke:#A80036;stroke-width:1.0;"/><line style="stroke:#A80036;stroke-width:1.0;stroke-dasharray:2.0,2.0;" x1="161.5" x2="615" y1="714.0996" y2="714.0996"/><text fill="#000000" font-family="sans-serif" font-size="13" lengthAdjust="spacing" textLength="71" x="173.5" y="709.3574">itemNames</text><path d="M89,729.0996 L163,729.0996 L163,736.0996 L153,746.0996 L89,746.0996 L89,729.0996 " fill="#EEEEEE" style="stroke:#000000;stroke-width:1.0;"/><rect fill="none" height="271.7949" style="stroke:#000000;stroke-width:2.0;" width="1285" x="89" y="729.0996"/><text fill="#000000" font-family="sans-serif" font-size="13" font-weight="bold" lengthAdjust="spacing" textLength="29" x="104" y="742.668">loop</text><text fill="#000000" font-family="sans-serif" font-size="11" font-weight="bold" lengthAdjust="spacing" textLength="184" x="178" y="741.7344">[for all itemName in itemNames]</text><polygon fill="#A80036" points="604,763.7207,614,767.7207,604,771.7207,608,767.7207" style="stroke:#A80036;stroke-width:1.0;"/><line style="stroke:#A80036;stroke-width:1.0;" x1="156.5" x2="610" y1="767.7207" y2="767.7207"/><text fill="#000000" font-family="sans-serif" font-size="13" lengthAdjust="spacing" textLength="331" x="163.5" y="762.9785">get information about the item with name itemName</text><path d="M99,782.7207 L161,782.7207 L161,789.7207 L151,799.7207 L99,799.7207 L99,782.7207 " fill="#EEEEEE" style="stroke:#000000;stroke-width:1.0;"/><rect fill="none" height="181.8633" style="stroke:#000000;stroke-width:2.0;" width="1265" x="99" y="782.7207"/><text fill="#000000" font-family="sans-serif" font-size="13" font-weight="bold" lengthAdjust="spacing" textLength="17" x="114" y="796.2891">alt</text><text fill="#000000" font-family="sans-serif" font-size="11" font-weight="bold" lengthAdjust="spacing" textLength="132" x="176" y="795.3555">[item is not a soldItem]</text><polygon fill="#A80036" points="1000,802.0313,1010,806.0313,1000,810.0313,1004,806.0313" style="stroke:#A80036;stroke-width:1.0;"/><line style="stroke:#A80036;stroke-width:1.0;" x1="156.5" x2="1006" y1="806.0313" y2="806.0313"/><rect fill="#FEFECE" filter="url(#f1jr8w1jnv9cgw)" height="30.4883" style="stroke:#A80036;stroke-width:1.5;" width="132" x="1012" y="800.0313"/><text fill="#000000" font-family="sans-serif" font-size="14" lengthAdjust="spacing" textLength="118" x="1019" y="820.5664">currentItem: Item</text><polygon fill="#A80036" points="167.5,862.8301,157.5,866.8301,167.5,870.8301,163.5,866.8301" style="stroke:#A80036;stroke-width:1.0;"/><line style="stroke:#A80036;stroke-width:1.0;stroke-dasharray:2.0,2.0;" x1="161.5" x2="1079" y1="866.8301" y2="866.8301"/><text fill="#000000" font-family="sans-serif" font-size="13" lengthAdjust="spacing" textLength="28" x="173.5" y="862.0879">item</text><line style="stroke:#000000;stroke-width:1.0;stroke-dasharray:2.0,2.0;" x1="99" x2="1364" y1="875.8301" y2="875.8301"/><text fill="#000000" font-family="sans-serif" font-size="11" font-weight="bold" lengthAdjust="spacing" textLength="110" x="104" y="886.4648">[item is a soldItem]</text><polygon fill="#A80036" points="1146,891.7852,1156,895.7852,1146,899.7852,1150,895.7852" style="stroke:#A80036;stroke-width:1.0;"/><line style="stroke:#A80036;stroke-width:1.0;" x1="156.5" x2="1152" y1="895.7852" y2="895.7852"/><rect fill="#FEFECE" filter="url(#f1jr8w1jnv9cgw)" height="30.4883" style="stroke:#A80036;stroke-width:1.5;" width="192" x="1158" y="889.7852"/><text fill="#000000" font-family="sans-serif" font-size="14" lengthAdjust="spacing" textLength="178" x="1165" y="910.3203">currentSoldItem: SoldItem</text><polygon fill="#A80036" points="167.5,952.584,157.5,956.584,167.5,960.584,163.5,956.584" style="stroke:#A80036;stroke-width:1.0;"/><line style="stroke:#A80036;stroke-width:1.0;stroke-dasharray:2.0,2.0;" x1="161.5" x2="1255" y1="956.584" y2="956.584"/><text fill="#000000" font-family="sans-serif" font-size="13" lengthAdjust="spacing" textLength="28" x="173.5" y="951.8418">item</text><polygon fill="#A80036" points="918,988.8945,928,992.8945,918,996.8945,922,992.8945" style="stroke:#A80036;stroke-width:1.0;"/><line style="stroke:#A80036;stroke-width:1.0;" x1="156.5" x2="924" y1="992.8945" y2="992.8945"/><text fill="#000000" font-family="sans-serif" font-size="13" lengthAdjust="spacing" textLength="87" x="163.5" y="988.1523">addItem(item)</text><line style="stroke:#A80036;stroke-width:1.0;stroke-dasharray:2.0,2.0;" x1="156.5" x2="198.5" y1="1025.8945" y2="1025.8945"/><line style="stroke:#A80036;stroke-width:1.0;stroke-dasharray:2.0,2.0;" x1="198.5" x2="198.5" y1="1025.8945" y2="1038.8945"/><line style="stroke:#A80036;stroke-width:1.0;stroke-dasharray:2.0,2.0;" x1="151.5" x2="198.5" y1="1038.8945" y2="1038.8945"/><polygon fill="#A80036" points="161.5,1034.8945,151.5,1038.8945,161.5,1042.8945,157.5,1038.8945" style="stroke:#A80036;stroke-width:1.0;"/><polygon fill="#A80036" points="63,1043.8945,53,1047.8945,63,1051.8945,59,1047.8945" style="stroke:#A80036;stroke-width:1.0;"/><line style="stroke:#A80036;stroke-width:1.0;stroke-dasharray:2.0,2.0;" x1="57" x2="145.5" y1="1047.8945" y2="1047.8945"/><line style="stroke:#A80036;stroke-width:2.0;" x1="324.5" x2="342.5" y1="1038.8945" y2="1056.8945"/><line style="stroke:#A80036;stroke-width:2.0;" x1="324.5" x2="342.5" y1="1056.8945" y2="1038.8945"/><line style="stroke:#A80036;stroke-width:2.0;" x1="607" x2="625" y1="1038.8945" y2="1056.8945"/><line style="stroke:#A80036;stroke-width:2.0;" x1="607" x2="625" y1="1056.8945" y2="1038.8945"/><!--MD5=[dd3e090ea81480fb6125910b2801ce2f]
@startuml
hide footbox
participant CLIverShelf as app
participant ":Storage" as storage
participant "file:File" as file
participant ":FileWriter" as FileWriter
participant "storedData:JSONObject" as storedData
participant "shelfList:ShelfList" as shelfList
participant "currentShelf: Shelf" as currentShelf
participant "currentItem: Item" as currentItem
participant "currentSoldItem: SoldItem" as currentSoldItem

app->storage:loadData()
activate storage
storage -> file**
opt file not exist
    storage -> file:createNewFile()
    activate file
    file -> FileWriter **
    file -> file:sampleData()
    activate file
    file - -> file: sampleData
    deactivate file
    file -> FileWriter: write(sampleData)
    file -> FileWriter !!:close()
    file - -> storage
    deactivate file
    end
storage -> file: readString()
activate file
file - -> storage: text
deactivate file
storage -> storedData**: new JSONObject(text)
storage -> storage:loadFromJson(storedData)
activate storage
loop for all shelfName in storedData.keySet()
    storage -> shelfList:addShelf(shelfName)
    activate shelfList
    shelfList -> currentShelf**
    shelfList - -> storage: currentShelf
    deactivate shelfList
    storage -> storedData: getJSONObject(shelfName).getJSONObject("items").keySet()
    activate storedData
    storedData - -> storage: itemNames
    deactivate storedData
    loop for all itemName in itemNames
        storage -> storedData: get information about the item with name itemName
        alt item is not a soldItem
            storage -> currentItem**
            activate currentItem
            currentItem - -> storage:item
            deactivate currentItem
        else item is a soldItem
            storage -> currentSoldItem**
            activate currentSoldItem
            currentSoldItem - -> storage:item
            deactivate currentSoldItem
        end
        storage -> currentShelf: addItem(item)
        end
    end
storage - -> storage
deactivate
storage - -> app
deactivate
destroy file
destroy storedData
@enduml

PlantUML version 1.2021.11(Sat Oct 02 21:26:11 SGT 2021)
(GPL source distribution)
Java Runtime: OpenJDK Runtime Environment
JVM: OpenJDK 64-Bit Server VM
Default Encoding: UTF-8
Language: en
Country: SG
--></g></svg>